<svg xmlns="http://www.w3.org/2000/svg" xmlns:xlink="http://www.w3.org/1999/xlink" viewBox="0 0 4100 2300" width="4100" height="2300" preserveAspectRatio="xMidYMid meet" style="width: 100%; height: 100%; transform: translate3d(0px, 0px, 0px); content-visibility: visible;"><defs><clipPath id="__lottie_element_25154"><rect width="4100" height="2300" x="0" y="0"></rect></clipPath><radialGradient id="__lottie_element_25165" spreadMethod="pad" gradientUnits="userSpaceOnUse" cx="790.0650024414062" cy="517.0449829101562" r="127.93678510043186" fx="790.0650024414062" fy="517.0449829101562"><stop offset="0%" stop-color="rgb(239,125,147)"></stop><stop offset="50%" stop-color="rgb(234,92,129)"></stop><stop offset="100%" stop-color="rgb(228,59,111)"></stop></radialGradient><clipPath id="__lottie_element_25170"><path d="M0,0 L5646,0 L5646,2890 L0,2890z"></path></clipPath><g id="__lottie_element_25173"><g transform="matrix(1,0,0,1,2823,1445)" opacity="1" style="display: block;"><g opacity="1" transform="matrix(1,0,0,1,0,0)"><path fill="rgb(255,200,0)" fill-opacity="1" d=" M-625,-827.5 C-625,-827.5 -732,-752.25 -732,-752.25 C-732,-752.25 -710.25,-648.25 -704.8909912109375,-624.4530029296875 C-705.5,-648 -683.3270263671875,-678.4219970703125 -627,-674.5 C-574.1220092773438,-670.8189697265625 -557.5330200195312,-643.3920288085938 -555.6430053710938,-621.0089721679688 C-549.5,-644 -527,-740 -527,-740 C-527,-740 -625,-827.5 -625,-827.5z"></path></g></g></g><mask id="__lottie_element_25173_1" mask-type="alpha"><use xlink:href="#__lottie_element_25173"></use></mask><g id="__lottie_element_25179"><g transform="matrix(1,0,0,1,2823,1445)" opacity="1" style="display: block;"><g opacity="1" transform="matrix(1,0,0,1,0,0)"><path fill="rgb(255,200,0)" fill-opacity="1" d=" M-625,-827.5 C-625,-827.5 -732,-752.25 -732,-752.25 C-732,-752.25 -710,-649 -704.8909912109375,-624.4530029296875 C-699.781982421875,-599.906005859375 -672.5,-577 -632,-576.5 C-580.7479858398438,-575.8670043945312 -562.0360107421875,-596.7680053710938 -555.6430053710938,-621.0089721679688 C-549.25,-645.25 -527,-740 -527,-740 C-527,-740 -625,-827.5 -625,-827.5z"></path></g></g></g><mask id="__lottie_element_25179_1" mask-type="alpha"><use xlink:href="#__lottie_element_25179"></use></mask><linearGradient id="__lottie_element_25209" spreadMethod="pad" gradientUnits="userSpaceOnUse" x1="-1717.3819580078125" y1="-279.2699890136719" x2="-1731.7840576171875" y2="-227.9969940185547"><stop offset="0%" stop-color="rgb(255,198,0)"></stop><stop offset="50%" stop-color="rgb(246,155,10)"></stop><stop offset="100%" stop-color="rgb(237,112,20)"></stop></linearGradient><radialGradient id="__lottie_element_25210" spreadMethod="pad" gradientUnits="userSpaceOnUse" cx="-1769.677978515625" cy="-258.6910095214844" r="49.36766941305763" fx="-1769.677978515625" fy="-258.6910095214844"><stop offset="0%" stop-color="rgb(253,199,0)"></stop><stop offset="50%" stop-color="rgb(245,156,10)"></stop><stop offset="100%" stop-color="rgb(237,112,20)"></stop></radialGradient></defs><g clip-path="url(#__lottie_element_25154)"><g transform="matrix(1,0,0,1,2606,1505.0826416015625)" opacity="1" style="display: block;"><g opacity="1" transform="matrix(1,0,0,1,0,0)"><path fill="rgb(137,216,119)" fill-opacity="1" d=" M-2359.25,-1311 C-2359.25,-1311 -2393.5,-1300.25 -2393.5,-1300.25 C-2393.5,-1300.25 -2394,-1268.75 -2394,-1268.75 C-2394,-1268.75 -2380.18798828125,-1258.8070068359375 -2380.18798828125,-1258.8070068359375 C-2380.18798828125,-1258.8070068359375 -2345.25,-1301.25 -2345.25,-1301.25 C-2345.25,-1301.25 -2359.25,-1311 -2359.25,-1311z"></path><path stroke-linecap="round" stroke-linejoin="round" fill-opacity="0" stroke="rgb(137,216,120)" stroke-opacity="1" stroke-width="19" d=" M-2359.25,-1311 C-2359.25,-1311 -2393.5,-1300.25 -2393.5,-1300.25 C-2393.5,-1300.25 -2394,-1268.75 -2394,-1268.75 C-2394,-1268.75 -2380.18798828125,-1258.8070068359375 -2380.18798828125,-1258.8070068359375 C-2380.18798828125,-1258.8070068359375 -2345.25,-1301.25 -2345.25,-1301.25 C-2345.25,-1301.25 -2359.25,-1311 -2359.25,-1311z"></path></g><g opacity="1" transform="matrix(1,0,0,1,0,0)"><path fill="rgb(162,236,178)" fill-opacity="1" d=" M-2344.5,-1300.5 C-2344.5,-1300.5 -2379,-1289.5 -2379,-1289.5 C-2379,-1289.5 -2379.5,-1258.5 -2379.5,-1258.5 C-2379.5,-1258.5 -2345.5,-1270 -2345.5,-1270 C-2345.5,-1270 -2344.5,-1300.5 -2344.5,-1300.5z"></path><path stroke-linecap="round" stroke-linejoin="round" fill-opacity="0" stroke="rgb(162,236,178)" stroke-opacity="1" stroke-width="19" d=" M-2344.5,-1300.5 C-2344.5,-1300.5 -2379,-1289.5 -2379,-1289.5 C-2379,-1289.5 -2379.5,-1258.5 -2379.5,-1258.5 C-2379.5,-1258.5 -2345.5,-1270 -2345.5,-1270 C-2345.5,-1270 -2344.5,-1300.5 -2344.5,-1300.5z"></path></g></g><g transform="matrix(1,0,0,1,2606,1505.0826416015625)" opacity="1" style="display: block;"><g opacity="1" transform="matrix(1,0,0,1,0,0)"><path fill="rgb(194,193,239)" fill-opacity="1" d=" M-1894,-1303.75 C-1896,-1302.75 -1901.75,-1300.25 -1903.5,-1299.25 C-1905.25,-1298.25 -1906.5,-1296.75 -1907.25,-1294.5 C-1908,-1292.25 -1909.5,-1284.5 -1910,-1281.5 C-1910.5,-1278.5 -1910,-1275.75 -1908.5,-1274 C-1907,-1272.25 -1902.5,-1269 -1900.5,-1267.25 C-1898.5,-1265.5 -1895.75,-1265.75 -1893.25,-1266.75 C-1890.75,-1267.75 -1884.5,-1270.75 -1882.5,-1272.25 C-1880.5,-1273.75 -1879.25,-1275.5 -1879,-1277 C-1878.75,-1278.5 -1877,-1289 -1876.75,-1291.25 C-1876.4410400390625,-1294.0279541015625 -1876.5,-1296.5 -1878.25,-1297.75 C-1880,-1299 -1883.1500244140625,-1301.60595703125 -1885,-1303.25 C-1887.25,-1305.25 -1890.5,-1305.5 -1894,-1303.75z"></path><path stroke-linecap="butt" stroke-linejoin="miter" fill-opacity="0" stroke-miterlimit="4" stroke="rgb(137,216,120)" stroke-opacity="1" stroke-width="0" d=" M-1894,-1303.75 C-1896,-1302.75 -1901.75,-1300.25 -1903.5,-1299.25 C-1905.25,-1298.25 -1906.5,-1296.75 -1907.25,-1294.5 C-1908,-1292.25 -1909.5,-1284.5 -1910,-1281.5 C-1910.5,-1278.5 -1910,-1275.75 -1908.5,-1274 C-1907,-1272.25 -1902.5,-1269 -1900.5,-1267.25 C-1898.5,-1265.5 -1895.75,-1265.75 -1893.25,-1266.75 C-1890.75,-1267.75 -1884.5,-1270.75 -1882.5,-1272.25 C-1880.5,-1273.75 -1879.25,-1275.5 -1879,-1277 C-1878.75,-1278.5 -1877,-1289 -1876.75,-1291.25 C-1876.4410400390625,-1294.0279541015625 -1876.5,-1296.5 -1878.25,-1297.75 C-1880,-1299 -1883.1500244140625,-1301.60595703125 -1885,-1303.25 C-1887.25,-1305.25 -1890.5,-1305.5 -1894,-1303.75z"></path></g></g><g transform="matrix(0.800000011920929,0,0,0.800000011920929,2376.083984375,2215.18212890625)" opacity="1" style="display: block;"><g opacity="1" transform="matrix(1,0,0,1,0,0)"><path fill="rgb(107,204,249)" fill-opacity="1" d=" M-2306.39697265625,-759.6069946289062 C-2306.39697265625,-759.6069946289062 -2102.2451171875,-744.1610107421875 -2102.2451171875,-744.1610107421875 C-2102.2451171875,-744.1610107421875 -2063.510986328125,-917.2219848632812 -2063.510986328125,-917.2219848632812 C-2063.510986328125,-917.2219848632812 -2087.501953125,-946.8359985351562 -2087.501953125,-946.8359985351562 C-2087.501953125,-946.8359985351562 -2331.7099609375,-792.0919799804688 -2331.7099609375,-792.0919799804688 C-2331.7099609375,-792.0919799804688 -2306.39697265625,-759.6069946289062 -2306.39697265625,-759.6069946289062z"></path><path stroke-linecap="round" stroke-linejoin="round" fill-opacity="0" stroke="rgb(107,204,249)" stroke-opacity="1" stroke-width="40" d=" M-2306.39697265625,-759.6069946289062 C-2306.39697265625,-759.6069946289062 -2102.2451171875,-744.1610107421875 -2102.2451171875,-744.1610107421875 C-2102.2451171875,-744.1610107421875 -2063.510986328125,-917.2219848632812 -2063.510986328125,-917.2219848632812 C-2063.510986328125,-917.2219848632812 -2087.501953125,-946.8359985351562 -2087.501953125,-946.8359985351562 C-2087.501953125,-946.8359985351562 -2331.7099609375,-792.0919799804688 -2331.7099609375,-792.0919799804688 C-2331.7099609375,-792.0919799804688 -2306.39697265625,-759.6069946289062 -2306.39697265625,-759.6069946289062z"></path></g><g opacity="1" transform="matrix(1,0,0,1,0,0)"><path fill="rgb(61,188,248)" fill-opacity="1" d=" M-2332.27099609375,-792.947998046875 C-2332.27099609375,-792.947998046875 -2126.7470703125,-776.9320068359375 -2126.7470703125,-776.9320068359375 C-2126.7470703125,-776.9320068359375 -2086.886962890625,-946.6519775390625 -2086.886962890625,-946.6519775390625 C-2086.886962890625,-946.6519775390625 -2291.94189453125,-956.083984375 -2291.94189453125,-956.083984375 C-2291.94189453125,-956.083984375 -2332.27099609375,-792.947998046875 -2332.27099609375,-792.947998046875z"></path><path stroke-linecap="round" stroke-linejoin="round" fill-opacity="0" stroke="rgb(61,188,248)" stroke-opacity="1" stroke-width="40" d=" M-2332.27099609375,-792.947998046875 C-2332.27099609375,-792.947998046875 -2126.7470703125,-776.9320068359375 -2126.7470703125,-776.9320068359375 C-2126.7470703125,-776.9320068359375 -2086.886962890625,-946.6519775390625 -2086.886962890625,-946.6519775390625 C-2086.886962890625,-946.6519775390625 -2291.94189453125,-956.083984375 -2291.94189453125,-956.083984375 C-2291.94189453125,-956.083984375 -2332.27099609375,-792.947998046875 -2332.27099609375,-792.947998046875z"></path></g></g><g transform="matrix(0.9195153713226318,0.3930540680885315,-0.3930540680885315,0.9195153713226318,3695.035400390625,2870.8583984375)" opacity="1" style="display: block;"><g opacity="1" transform="matrix(1,0,0,1,0,0)"><path fill="rgb(28,176,246)" fill-opacity="1" d=" M-803.4618530273438,-561.22802734375 C-803.4618530273438,-561.22802734375 -828.1032104492188,-583.47998046875 -828.1032104492188,-583.47998046875 C-828.1032104492188,-583.47998046875 -829.11328125,-638.7680053710938 -829.11328125,-638.7680053710938 C-829.11328125,-638.7680053710938 -803.1412353515625,-662.426025390625 -803.1412353515625,-662.426025390625 C-803.1412353515625,-662.426025390625 -777.6715087890625,-630.9249877929688 -777.6715087890625,-630.9249877929688 C-777.6715087890625,-630.9249877929688 -777.87060546875,-582.4769897460938 -777.87060546875,-582.4769897460938 C-777.87060546875,-582.4769897460938 -803.4618530273438,-561.22802734375 -803.4618530273438,-561.22802734375z"></path><path stroke-linecap="butt" stroke-linejoin="miter" fill-opacity="0" stroke-miterlimit="4" stroke="rgb(255,135,141)" stroke-opacity="1" stroke-width="0" d=" M-803.4618530273438,-561.22802734375 C-803.4618530273438,-561.22802734375 -828.1032104492188,-583.47998046875 -828.1032104492188,-583.47998046875 C-828.1032104492188,-583.47998046875 -829.11328125,-638.7680053710938 -829.11328125,-638.7680053710938 C-829.11328125,-638.7680053710938 -803.1412353515625,-662.426025390625 -803.1412353515625,-662.426025390625 C-803.1412353515625,-662.426025390625 -777.6715087890625,-630.9249877929688 -777.6715087890625,-630.9249877929688 C-777.6715087890625,-630.9249877929688 -777.87060546875,-582.4769897460938 -777.87060546875,-582.4769897460938 C-777.87060546875,-582.4769897460938 -803.4618530273438,-561.22802734375 -803.4618530273438,-561.22802734375z"></path></g><g opacity="1" transform="matrix(1,0,0,1,0,0)"><path fill="rgb(255,255,255)" fill-opacity="1" d=" M-802.8433227539062,-662.3480224609375 C-802.8433227539062,-662.3480224609375 -816.367919921875,-637.9940185546875 -816.367919921875,-637.9940185546875 C-816.367919921875,-637.9940185546875 -802.2367553710938,-623.3930053710938 -802.2367553710938,-623.3930053710938 C-802.2367553710938,-623.3930053710938 -777.5524291992188,-630.989013671875 -777.5524291992188,-630.989013671875 C-777.5524291992188,-630.989013671875 -802.8433227539062,-662.3480224609375 -802.8433227539062,-662.3480224609375z"></path><path stroke-linecap="butt" stroke-linejoin="miter" fill-opacity="0" stroke-miterlimit="4" stroke="rgb(255,135,141)" stroke-opacity="1" stroke-width="0" d=" M-802.8433227539062,-662.3480224609375 C-802.8433227539062,-662.3480224609375 -816.367919921875,-637.9940185546875 -816.367919921875,-637.9940185546875 C-816.367919921875,-637.9940185546875 -802.2367553710938,-623.3930053710938 -802.2367553710938,-623.3930053710938 C-802.2367553710938,-623.3930053710938 -777.5524291992188,-630.989013671875 -777.5524291992188,-630.989013671875 C-777.5524291992188,-630.989013671875 -802.8433227539062,-662.3480224609375 -802.8433227539062,-662.3480224609375z"></path></g><g opacity="1" transform="matrix(1,0,0,1,0,0)"><path fill="rgb(112,205,249)" fill-opacity="1" d=" M-777.7564086914062,-582.14501953125 C-777.7564086914062,-582.14501953125 -802.3339233398438,-590.9340209960938 -802.3339233398438,-590.9340209960938 C-802.3339233398438,-590.9340209960938 -802.2367553710938,-623.3930053710938 -802.2367553710938,-623.3930053710938 C-802.2367553710938,-623.3930053710938 -777.5524291992188,-630.989013671875 -777.5524291992188,-630.989013671875 C-777.5524291992188,-630.989013671875 -777.7564086914062,-582.14501953125 -777.7564086914062,-582.14501953125z"></path><path stroke-linecap="butt" stroke-linejoin="miter" fill-opacity="0" stroke-miterlimit="4" stroke="rgb(255,135,141)" stroke-opacity="1" stroke-width="0" d=" M-777.7564086914062,-582.14501953125 C-777.7564086914062,-582.14501953125 -802.3339233398438,-590.9340209960938 -802.3339233398438,-590.9340209960938 C-802.3339233398438,-590.9340209960938 -802.2367553710938,-623.3930053710938 -802.2367553710938,-623.3930053710938 C-802.2367553710938,-623.3930053710938 -777.5524291992188,-630.989013671875 -777.5524291992188,-630.989013671875 C-777.5524291992188,-630.989013671875 -777.7564086914062,-582.14501953125 -777.7564086914062,-582.14501953125z"></path></g><g opacity="1" transform="matrix(1,0,0,1,0,0)"><path fill="rgb(33,166,229)" fill-opacity="1" d=" M-777.7564086914062,-582.14501953125 C-777.7564086914062,-582.14501953125 -802.3339233398438,-590.9340209960938 -802.3339233398438,-590.9340209960938 C-802.3339233398438,-590.9340209960938 -815.93896484375,-579.7100219726562 -815.93896484375,-579.7100219726562 C-815.93896484375,-579.7100219726562 -803.5346069335938,-560.6890258789062 -803.5346069335938,-560.6890258789062 C-803.5346069335938,-560.6890258789062 -777.7564086914062,-582.14501953125 -777.7564086914062,-582.14501953125z"></path><path stroke-linecap="butt" stroke-linejoin="miter" fill-opacity="0" stroke-miterlimit="4" stroke="rgb(255,135,141)" stroke-opacity="1" stroke-width="0" d=" M-777.7564086914062,-582.14501953125 C-777.7564086914062,-582.14501953125 -802.3339233398438,-590.9340209960938 -802.3339233398438,-590.9340209960938 C-802.3339233398438,-590.9340209960938 -815.93896484375,-579.7100219726562 -815.93896484375,-579.7100219726562 C-815.93896484375,-579.7100219726562 -803.5346069335938,-560.6890258789062 -803.5346069335938,-560.6890258789062 C-803.5346069335938,-560.6890258789062 -777.7564086914062,-582.14501953125 -777.7564086914062,-582.14501953125z"></path></g><g opacity="1" transform="matrix(1,0,0,1,0,0)"><path fill="rgb(28,159,221)" fill-opacity="1" d=" M-828.0670166015625,-583.780029296875 C-828.0670166015625,-583.780029296875 -829.2117309570312,-592.281982421875 -829.2117309570312,-592.281982421875 C-829.2117309570312,-592.281982421875 -815.93896484375,-579.7100219726562 -815.93896484375,-579.7100219726562 C-815.93896484375,-579.7100219726562 -803.5346069335938,-560.6890258789062 -803.5346069335938,-560.6890258789062 C-803.5346069335938,-560.6890258789062 -828.0670166015625,-583.780029296875 -828.0670166015625,-583.780029296875z"></path><path stroke-linecap="butt" stroke-linejoin="miter" fill-opacity="0" stroke-miterlimit="4" stroke="rgb(255,135,141)" stroke-opacity="1" stroke-width="0" d=" M-828.0670166015625,-583.780029296875 C-828.0670166015625,-583.780029296875 -829.2117309570312,-592.281982421875 -829.2117309570312,-592.281982421875 C-829.2117309570312,-592.281982421875 -815.93896484375,-579.7100219726562 -815.93896484375,-579.7100219726562 C-815.93896484375,-579.7100219726562 -803.5346069335938,-560.6890258789062 -803.5346069335938,-560.6890258789062 C-803.5346069335938,-560.6890258789062 -828.0670166015625,-583.780029296875 -828.0670166015625,-583.780029296875z"></path></g><g opacity="1" transform="matrix(1,0,0,1,0,0)"><path fill="rgb(45,188,255)" fill-opacity="1" d=" M-828.0670166015625,-583.780029296875 C-828.0670166015625,-583.780029296875 -829.2117309570312,-592.281982421875 -829.2117309570312,-592.281982421875 C-829.2117309570312,-592.281982421875 -829.7816772460938,-626.9390258789062 -829.7816772460938,-626.9390258789062 C-829.7816772460938,-626.9390258789062 -829.1986083984375,-638.7119750976562 -829.1986083984375,-638.7119750976562 C-829.1986083984375,-638.7119750976562 -828.0670166015625,-583.780029296875 -828.0670166015625,-583.780029296875z"></path><path stroke-linecap="butt" stroke-linejoin="miter" fill-opacity="0" stroke-miterlimit="4" stroke="rgb(255,135,141)" stroke-opacity="1" stroke-width="0" d=" M-828.0670166015625,-583.780029296875 C-828.0670166015625,-583.780029296875 -829.2117309570312,-592.281982421875 -829.2117309570312,-592.281982421875 C-829.2117309570312,-592.281982421875 -829.7816772460938,-626.9390258789062 -829.7816772460938,-626.9390258789062 C-829.7816772460938,-626.9390258789062 -829.1986083984375,-638.7119750976562 -829.1986083984375,-638.7119750976562 C-829.1986083984375,-638.7119750976562 -828.0670166015625,-583.780029296875 -828.0670166015625,-583.780029296875z"></path></g><g opacity="1" transform="matrix(1,0,0,1,0,0)"><path fill="rgb(112,205,249)" fill-opacity="1" d=" M-802.9801635742188,-662.6069946289062 C-802.9801635742188,-662.6069946289062 -816.367919921875,-637.9940185546875 -816.367919921875,-637.9940185546875 C-816.367919921875,-637.9940185546875 -829.7816772460938,-626.9390258789062 -829.7816772460938,-626.9390258789062 C-829.7816772460938,-626.9390258789062 -829.1986083984375,-638.7119750976562 -829.1986083984375,-638.7119750976562 C-829.1986083984375,-638.7119750976562 -802.9801635742188,-662.6069946289062 -802.9801635742188,-662.6069946289062z"></path><path stroke-linecap="butt" stroke-linejoin="miter" fill-opacity="0" stroke-miterlimit="4" stroke="rgb(255,135,141)" stroke-opacity="1" stroke-width="0" d=" M-802.9801635742188,-662.6069946289062 C-802.9801635742188,-662.6069946289062 -816.367919921875,-637.9940185546875 -816.367919921875,-637.9940185546875 C-816.367919921875,-637.9940185546875 -829.7816772460938,-626.9390258789062 -829.7816772460938,-626.9390258789062 C-829.7816772460938,-626.9390258789062 -829.1986083984375,-638.7119750976562 -829.1986083984375,-638.7119750976562 C-829.1986083984375,-638.7119750976562 -802.9801635742188,-662.6069946289062 -802.9801635742188,-662.6069946289062z"></path></g><g opacity="1" transform="matrix(1,0,0,1,0,0)"><path fill="rgb(28,176,246)" fill-opacity="1" d=" M-815.9004516601562,-579.1409912109375 C-815.9004516601562,-579.1409912109375 -829.279296875,-592.0679931640625 -829.279296875,-592.0679931640625 C-829.279296875,-592.0679931640625 -829.8740234375,-627.1690063476562 -829.8740234375,-627.1690063476562 C-829.8740234375,-627.1690063476562 -816.3993530273438,-638.3380126953125 -816.3993530273438,-638.3380126953125 C-816.3993530273438,-638.3380126953125 -801.8863525390625,-623.5170288085938 -801.8863525390625,-623.5170288085938 C-801.8863525390625,-623.5170288085938 -802.2391357421875,-590.4609985351562 -802.2391357421875,-590.4609985351562 C-802.2391357421875,-590.4609985351562 -815.9004516601562,-579.1409912109375 -815.9004516601562,-579.1409912109375z"></path><path stroke-linecap="butt" stroke-linejoin="miter" fill-opacity="0" stroke-miterlimit="4" stroke="rgb(255,135,141)" stroke-opacity="1" stroke-width="0" d=" M-815.9004516601562,-579.1409912109375 C-815.9004516601562,-579.1409912109375 -829.279296875,-592.0679931640625 -829.279296875,-592.0679931640625 C-829.279296875,-592.0679931640625 -829.8740234375,-627.1690063476562 -829.8740234375,-627.1690063476562 C-829.8740234375,-627.1690063476562 -816.3993530273438,-638.3380126953125 -816.3993530273438,-638.3380126953125 C-816.3993530273438,-638.3380126953125 -801.8863525390625,-623.5170288085938 -801.8863525390625,-623.5170288085938 C-801.8863525390625,-623.5170288085938 -802.2391357421875,-590.4609985351562 -802.2391357421875,-590.4609985351562 C-802.2391357421875,-590.4609985351562 -815.9004516601562,-579.1409912109375 -815.9004516601562,-579.1409912109375z"></path></g></g><g transform="matrix(0.715848445892334,-0.6982556581497192,0.6982556581497192,0.715848445892334,6137.8857421875,-11.0357666015625)" opacity="1" style="display: block;"><g opacity="1" transform="matrix(1,0,0,1,0,0)"><path fill="rgb(0,198,160)" fill-opacity="1" d=" M-2303.329833984375,-869.3114624023438 C-2303.329833984375,-869.3114624023438 -2320.896484375,-764.8936767578125 -2320.896484375,-764.8936767578125 C-2320.896484375,-764.8936767578125 -2273.626708984375,-732.6314086914062 -2273.626708984375,-732.6314086914062 C-2273.626708984375,-732.6314086914062 -2240.62109375,-730.50537109375 -2240.62109375,-730.50537109375 C-2240.62109375,-730.50537109375 -2268.286865234375,-871.7685546875 -2268.286865234375,-871.7685546875 C-2268.286865234375,-871.7685546875 -2303.329833984375,-869.3114624023438 -2303.329833984375,-869.3114624023438z"></path><path stroke-linecap="round" stroke-linejoin="round" fill-opacity="0" stroke="rgb(0,198,160)" stroke-opacity="1" stroke-width="30" d=" M-2303.329833984375,-869.3114624023438 C-2303.329833984375,-869.3114624023438 -2320.896484375,-764.8936767578125 -2320.896484375,-764.8936767578125 C-2320.896484375,-764.8936767578125 -2273.626708984375,-732.6314086914062 -2273.626708984375,-732.6314086914062 C-2273.626708984375,-732.6314086914062 -2240.62109375,-730.50537109375 -2240.62109375,-730.50537109375 C-2240.62109375,-730.50537109375 -2268.286865234375,-871.7685546875 -2268.286865234375,-871.7685546875 C-2268.286865234375,-871.7685546875 -2303.329833984375,-869.3114624023438 -2303.329833984375,-869.3114624023438z"></path></g></g><g transform="matrix(0.3354131877422333,-0.3271700441837311,0.6982556581497192,0.715848445892334,5284.8955078125,820.9909057617188)" opacity="1" style="display: block;"><g opacity="1" transform="matrix(1,0,0,1,0,0)"><path fill="rgb(43,230,156)" fill-opacity="1" d=" M-2276.943115234375,-871.3070068359375 C-2276.943115234375,-871.3070068359375 -2307.830078125,-773.5189819335938 -2307.830078125,-773.5189819335938 C-2307.830078125,-773.5189819335938 -2208.202880859375,-733.7750244140625 -2208.202880859375,-733.7750244140625 C-2208.202880859375,-733.7750244140625 -2176.4541015625,-833.541015625 -2176.4541015625,-833.541015625 C-2176.4541015625,-833.541015625 -2276.943115234375,-871.3070068359375 -2276.943115234375,-871.3070068359375z"></path><path stroke-linecap="round" stroke-linejoin="round" fill-opacity="0" stroke="rgb(43,230,156)" stroke-opacity="1" stroke-width="30" d=" M-2276.943115234375,-871.3070068359375 C-2276.943115234375,-871.3070068359375 -2307.830078125,-773.5189819335938 -2307.830078125,-773.5189819335938 C-2307.830078125,-773.5189819335938 -2208.202880859375,-733.7750244140625 -2208.202880859375,-733.7750244140625 C-2208.202880859375,-733.7750244140625 -2176.4541015625,-833.541015625 -2176.4541015625,-833.541015625 C-2176.4541015625,-833.541015625 -2276.943115234375,-871.3070068359375 -2276.943115234375,-871.3070068359375z"></path></g><g opacity="1" transform="matrix(1,0,0,1,0,0)"><path fill="rgb(255,255,255)" fill-opacity="1" d=" M-2243,-849.5 C-2243,-849.5 -2255,-841 -2255,-841 C-2255,-841 -2271.75,-788.5 -2271.75,-788.5 C-2271.75,-788.5 -2258.75,-798.25 -2258.75,-798.25 C-2258.75,-798.25 -2243,-849.5 -2243,-849.5z"></path><path stroke-linecap="butt" stroke-linejoin="miter" fill-opacity="0" stroke-miterlimit="4" stroke="rgb(255,255,255)" stroke-opacity="1" stroke-width="0" d=" M-2243,-849.5 C-2243,-849.5 -2255,-841 -2255,-841 C-2255,-841 -2271.75,-788.5 -2271.75,-788.5 C-2271.75,-788.5 -2258.75,-798.25 -2258.75,-798.25 C-2258.75,-798.25 -2243,-849.5 -2243,-849.5z"></path></g><g opacity="1" transform="matrix(1,0,0,1,0,0)"><path fill="rgb(255,255,255)" fill-opacity="1" d=" M-2229,-839.75 C-2229,-839.75 -2235.5,-831.75 -2235.5,-831.75 C-2235.5,-831.75 -2225.75,-823.5 -2225.75,-823.5 C-2225.75,-823.5 -2218.5,-831.5 -2218.5,-831.5 C-2218.5,-831.5 -2229,-839.75 -2229,-839.75z"></path><path stroke-linecap="butt" stroke-linejoin="miter" fill-opacity="0" stroke-miterlimit="4" stroke="rgb(255,255,255)" stroke-opacity="1" stroke-width="0" d=" M-2229,-839.75 C-2229,-839.75 -2235.5,-831.75 -2235.5,-831.75 C-2235.5,-831.75 -2225.75,-823.5 -2225.75,-823.5 C-2225.75,-823.5 -2218.5,-831.5 -2218.5,-831.5 C-2218.5,-831.5 -2229,-839.75 -2229,-839.75z"></path></g><g opacity="1" transform="matrix(1,0,0,1,0,0)"><path fill="rgb(255,255,255)" fill-opacity="1" d=" M-2223.5,-809.75 C-2223.5,-809.75 -2232.75,-800 -2232.75,-800 C-2232.75,-800 -2224.25,-788 -2228.25,-782.5 C-2230.4208984375,-779.5150146484375 -2231.114013671875,-778.72802734375 -2238.25,-775 C-2255,-766.25 -2266.5,-782.5 -2266.5,-782.5 C-2266.5,-761 -2246.0791015625,-747.176025390625 -2226.75,-772.75 C-2210.5,-794.25 -2223.5,-809.75 -2223.5,-809.75z"></path><path stroke-linecap="butt" stroke-linejoin="miter" fill-opacity="0" stroke-miterlimit="4" stroke="rgb(255,255,255)" stroke-opacity="1" stroke-width="0" d=" M-2223.5,-809.75 C-2223.5,-809.75 -2232.75,-800 -2232.75,-800 C-2232.75,-800 -2224.25,-788 -2228.25,-782.5 C-2230.4208984375,-779.5150146484375 -2231.114013671875,-778.72802734375 -2238.25,-775 C-2255,-766.25 -2266.5,-782.5 -2266.5,-782.5 C-2266.5,-761 -2246.0791015625,-747.176025390625 -2226.75,-772.75 C-2210.5,-794.25 -2223.5,-809.75 -2223.5,-809.75z"></path></g></g><g transform="matrix(1,0,0,1,3929.5,2300.52001953125)" opacity="1" style="display: block;"><g opacity="1" transform="matrix(1,0,0,1,0,0)"><path fill="rgb(194,193,239)" fill-opacity="1" d=" M-1895.7249755859375,-1305.0059814453125 C-1898.197998046875,-1303.8330078125 -1903.56494140625,-1301.135986328125 -1905.7259521484375,-1299.968994140625 C-1907.886962890625,-1298.802001953125 -1909.4169921875,-1297.0789794921875 -1910.3089599609375,-1294.5179443359375 C-1911.2010498046875,-1291.95703125 -1912.1739501953125,-1284.9110107421875 -1912.739990234375,-1281.5069580078125 C-1913.3060302734375,-1278.10302734375 -1912.6309814453125,-1275.0030517578125 -1910.72900390625,-1273.0550537109375 C-1908.8270263671875,-1271.1070556640625 -1902.6590576171875,-1266.2740478515625 -1900.134033203125,-1264.3360595703125 C-1897.6090087890625,-1262.39794921875 -1894.18701171875,-1262.739013671875 -1891.0909423828125,-1263.9219970703125 C-1887.9949951171875,-1265.10498046875 -1881.5159912109375,-1268.1280517578125 -1879.052001953125,-1269.865966796875 C-1876.5880126953125,-1271.60400390625 -1875.06298828125,-1273.6099853515625 -1874.780029296875,-1275.31201171875 C-1874.4969482421875,-1277.0140380859375 -1872.5150146484375,-1287.427001953125 -1872.2459716796875,-1289.97705078125 C-1871.9139404296875,-1293.1259765625 -1872.0340576171875,-1295.9210205078125 -1874.238037109375,-1297.2979736328125 C-1876.4420166015625,-1298.675048828125 -1882.166015625,-1302.8070068359375 -1884.501953125,-1304.6280517578125 C-1887.343017578125,-1306.843017578125 -1891.39697265625,-1307.0579833984375 -1895.7249755859375,-1305.0059814453125z"></path><path stroke-linecap="butt" stroke-linejoin="miter" fill-opacity="0" stroke-miterlimit="4" stroke="rgb(137,216,120)" stroke-opacity="1" stroke-width="0" d=" M-1895.7249755859375,-1305.0059814453125 C-1898.197998046875,-1303.8330078125 -1903.56494140625,-1301.135986328125 -1905.7259521484375,-1299.968994140625 C-1907.886962890625,-1298.802001953125 -1909.4169921875,-1297.0789794921875 -1910.3089599609375,-1294.5179443359375 C-1911.2010498046875,-1291.95703125 -1912.1739501953125,-1284.9110107421875 -1912.739990234375,-1281.5069580078125 C-1913.3060302734375,-1278.10302734375 -1912.6309814453125,-1275.0030517578125 -1910.72900390625,-1273.0550537109375 C-1908.8270263671875,-1271.1070556640625 -1902.6590576171875,-1266.2740478515625 -1900.134033203125,-1264.3360595703125 C-1897.6090087890625,-1262.39794921875 -1894.18701171875,-1262.739013671875 -1891.0909423828125,-1263.9219970703125 C-1887.9949951171875,-1265.10498046875 -1881.5159912109375,-1268.1280517578125 -1879.052001953125,-1269.865966796875 C-1876.5880126953125,-1271.60400390625 -1875.06298828125,-1273.6099853515625 -1874.780029296875,-1275.31201171875 C-1874.4969482421875,-1277.0140380859375 -1872.5150146484375,-1287.427001953125 -1872.2459716796875,-1289.97705078125 C-1871.9139404296875,-1293.1259765625 -1872.0340576171875,-1295.9210205078125 -1874.238037109375,-1297.2979736328125 C-1876.4420166015625,-1298.675048828125 -1882.166015625,-1302.8070068359375 -1884.501953125,-1304.6280517578125 C-1887.343017578125,-1306.843017578125 -1891.39697265625,-1307.0579833984375 -1895.7249755859375,-1305.0059814453125z"></path></g></g><g transform="matrix(0.8660253882408142,-0.5,0.5,0.8660253882408142,5633.62255859375,1385.3450927734375)" opacity="1" style="display: block;"><g opacity="1" transform="matrix(1,0,0,1,0,0)"><path fill="rgb(0,198,160)" fill-opacity="1" d=" M-2313.781005859375,-766.8729858398438 C-2313.781005859375,-766.8729858398438 -2211.071044921875,-715.0230102539062 -2211.071044921875,-715.0230102539062 C-2211.071044921875,-715.0230102539062 -2115.423095703125,-787.3920288085938 -2115.423095703125,-787.3920288085938 C-2115.423095703125,-787.3920288085938 -2118.200927734375,-829.5330200195312 -2118.200927734375,-829.5330200195312 C-2118.200927734375,-829.5330200195312 -2325.9580078125,-804.8150024414062 -2325.9580078125,-804.8150024414062 C-2325.9580078125,-804.8150024414062 -2313.781005859375,-766.8729858398438 -2313.781005859375,-766.8729858398438z"></path><path stroke-linecap="round" stroke-linejoin="round" fill-opacity="0" stroke="rgb(0,198,160)" stroke-opacity="1" stroke-width="60" d=" M-2313.781005859375,-766.8729858398438 C-2313.781005859375,-766.8729858398438 -2211.071044921875,-715.0230102539062 -2211.071044921875,-715.0230102539062 C-2211.071044921875,-715.0230102539062 -2115.423095703125,-787.3920288085938 -2115.423095703125,-787.3920288085938 C-2115.423095703125,-787.3920288085938 -2118.200927734375,-829.5330200195312 -2118.200927734375,-829.5330200195312 C-2118.200927734375,-829.5330200195312 -2325.9580078125,-804.8150024414062 -2325.9580078125,-804.8150024414062 C-2325.9580078125,-804.8150024414062 -2313.781005859375,-766.8729858398438 -2313.781005859375,-766.8729858398438z"></path></g></g><g transform="matrix(0.8660253882408142,-0.5,0.5,0.8660253882408142,5633.62255859375,1385.3450927734375)" opacity="1" style="display: block;"><g opacity="1" transform="matrix(1,0,0,1,0,0)"><path fill="rgb(43,230,156)" fill-opacity="1" d=" M-2335.468017578125,-810.5960083007812 C-2335.468017578125,-810.5960083007812 -2219.59912109375,-758.35400390625 -2219.59912109375,-758.35400390625 C-2219.59912109375,-758.35400390625 -2113.178955078125,-838.7780151367188 -2113.178955078125,-838.7780151367188 C-2113.178955078125,-838.7780151367188 -2229.3310546875,-887.8519897460938 -2229.3310546875,-887.8519897460938 C-2229.3310546875,-887.8519897460938 -2335.468017578125,-810.5960083007812 -2335.468017578125,-810.5960083007812z"></path><path stroke-linecap="round" stroke-linejoin="round" fill-opacity="0" stroke="rgb(43,230,156)" stroke-opacity="1" stroke-width="40" d=" M-2335.468017578125,-810.5960083007812 C-2335.468017578125,-810.5960083007812 -2219.59912109375,-758.35400390625 -2219.59912109375,-758.35400390625 C-2219.59912109375,-758.35400390625 -2113.178955078125,-838.7780151367188 -2113.178955078125,-838.7780151367188 C-2113.178955078125,-838.7780151367188 -2229.3310546875,-887.8519897460938 -2229.3310546875,-887.8519897460938 C-2229.3310546875,-887.8519897460938 -2335.468017578125,-810.5960083007812 -2335.468017578125,-810.5960083007812z"></path></g><g opacity="1" transform="matrix(1,0,0,1,0,0)"><path stroke-linecap="round" stroke-linejoin="round" fill-opacity="0" stroke="rgb(255,255,255)" stroke-opacity="1" stroke-width="9" d=" M-2271,-816 C-2271,-816 -2243,-838.75 -2243,-838.75 C-2243,-838.75 -2225.75,-815.25 -2224,-790"></path></g><g opacity="1" transform="matrix(1,0,0,1,0,0)"><path stroke-linecap="round" stroke-linejoin="round" fill-opacity="0" stroke="rgb(255,255,255)" stroke-opacity="1" stroke-width="9" d=" M-2236.5,-860.5 C-2236.5,-860.5 -2172.75,-825.5 -2172.75,-825.5"></path></g><g opacity="1" transform="matrix(1,0,0,1,0,0)"><path stroke-linecap="round" stroke-linejoin="round" fill-opacity="0" stroke="rgb(255,255,255)" stroke-opacity="1" stroke-width="9" d=" M-2189.25,-855 C-2189.25,-855 -2203.5,-842.25 -2203.5,-842.25"></path></g></g><g transform="matrix(0.5,-0.8660253882408142,0.8660253882408142,0.5,2728.9580078125,553.5343017578125)" opacity="1" style="display: block;"><g opacity="1" transform="matrix(1,0,0,1,0,0)"><path fill="rgb(28,176,246)" fill-opacity="1" d=" M-766.1439819335938,-542.625 C-766.1439819335938,-542.625 -799.9959716796875,-560.9039916992188 -799.9959716796875,-560.9039916992188 C-799.9959716796875,-560.9039916992188 -813.9119873046875,-621.8369750976562 -813.9119873046875,-621.8369750976562 C-813.9119873046875,-621.8369750976562 -786.8519897460938,-655.5 -786.8519897460938,-655.5 C-786.8519897460938,-655.5 -757.7219848632812,-627.3939819335938 -757.7219848632812,-627.3939819335938 C-757.7219848632812,-627.3939819335938 -748.9439697265625,-573.0880126953125 -748.9439697265625,-573.0880126953125 C-748.9439697265625,-573.0880126953125 -766.1439819335938,-542.625 -766.1439819335938,-542.625z"></path><path stroke-linecap="butt" stroke-linejoin="miter" fill-opacity="0" stroke-miterlimit="4" stroke="rgb(255,135,141)" stroke-opacity="1" stroke-width="0" d=" M-766.1439819335938,-542.625 C-766.1439819335938,-542.625 -799.9959716796875,-560.9039916992188 -799.9959716796875,-560.9039916992188 C-799.9959716796875,-560.9039916992188 -813.9119873046875,-621.8369750976562 -813.9119873046875,-621.8369750976562 C-813.9119873046875,-621.8369750976562 -786.8519897460938,-655.5 -786.8519897460938,-655.5 C-786.8519897460938,-655.5 -757.7219848632812,-627.3939819335938 -757.7219848632812,-627.3939819335938 C-757.7219848632812,-627.3939819335938 -748.9439697265625,-573.0880126953125 -748.9439697265625,-573.0880126953125 C-748.9439697265625,-573.0880126953125 -766.1439819335938,-542.625 -766.1439819335938,-542.625z"></path></g><g opacity="1" transform="matrix(1,0,0,1,0,0)"><path fill="rgb(255,255,255)" fill-opacity="1" d=" M-786.4949951171875,-655.5 C-786.4949951171875,-655.5 -774.8400268554688,-630.1209716796875 -774.8400268554688,-630.1209716796875 C-774.8400268554688,-630.1209716796875 -760.9340209960938,-618.6500244140625 -760.9340209960938,-618.6500244140625 C-760.9340209960938,-618.6500244140625 -757.5960083007812,-627.5 -757.5960083007812,-627.5 C-757.5960083007812,-627.5 -786.4949951171875,-655.5 -786.4949951171875,-655.5z"></path><path stroke-linecap="butt" stroke-linejoin="miter" fill-opacity="0" stroke-miterlimit="4" stroke="rgb(255,135,141)" stroke-opacity="1" stroke-width="0" d=" M-786.4949951171875,-655.5 C-786.4949951171875,-655.5 -774.8400268554688,-630.1209716796875 -774.8400268554688,-630.1209716796875 C-774.8400268554688,-630.1209716796875 -760.9340209960938,-618.6500244140625 -760.9340209960938,-618.6500244140625 C-760.9340209960938,-618.6500244140625 -757.5960083007812,-627.5 -757.5960083007812,-627.5 C-757.5960083007812,-627.5 -786.4949951171875,-655.5 -786.4949951171875,-655.5z"></path></g><g opacity="1" transform="matrix(1,0,0,1,0,0)"><path fill="rgb(112,205,249)" fill-opacity="1" d=" M-748.75,-572.75 C-748.75,-572.75 -755.89697265625,-582.4080200195312 -755.89697265625,-582.4080200195312 C-755.89697265625,-582.4080200195312 -760.9340209960938,-618.6500244140625 -760.9340209960938,-618.6500244140625 C-760.9340209960938,-618.6500244140625 -757.5960083007812,-627.5 -757.5960083007812,-627.5 C-757.5960083007812,-627.5 -748.75,-572.75 -748.75,-572.75z"></path><path stroke-linecap="butt" stroke-linejoin="miter" fill-opacity="0" stroke-miterlimit="4" stroke="rgb(255,135,141)" stroke-opacity="1" stroke-width="0" d=" M-748.75,-572.75 C-748.75,-572.75 -755.89697265625,-582.4080200195312 -755.89697265625,-582.4080200195312 C-755.89697265625,-582.4080200195312 -760.9340209960938,-618.6500244140625 -760.9340209960938,-618.6500244140625 C-760.9340209960938,-618.6500244140625 -757.5960083007812,-627.5 -757.5960083007812,-627.5 C-757.5960083007812,-627.5 -748.75,-572.75 -748.75,-572.75z"></path></g><g opacity="1" transform="matrix(1,0,0,1,0,0)"><path fill="rgb(33,166,229)" fill-opacity="1" d=" M-748.75,-572.75 C-748.75,-572.75 -755.89697265625,-582.4080200195312 -755.89697265625,-582.4080200195312 C-755.89697265625,-582.4080200195312 -765.2990112304688,-565.2490234375 -765.2990112304688,-565.2490234375 C-765.2990112304688,-565.2490234375 -766.1279907226562,-542 -766.1279907226562,-542 C-766.1279907226562,-542 -748.75,-572.75 -748.75,-572.75z"></path><path stroke-linecap="butt" stroke-linejoin="miter" fill-opacity="0" stroke-miterlimit="4" stroke="rgb(255,135,141)" stroke-opacity="1" stroke-width="0" d=" M-748.75,-572.75 C-748.75,-572.75 -755.89697265625,-582.4080200195312 -755.89697265625,-582.4080200195312 C-755.89697265625,-582.4080200195312 -765.2990112304688,-565.2490234375 -765.2990112304688,-565.2490234375 C-765.2990112304688,-565.2490234375 -766.1279907226562,-542 -766.1279907226562,-542 C-766.1279907226562,-542 -748.75,-572.75 -748.75,-572.75z"></path></g><g opacity="1" transform="matrix(1,0,0,1,0,0)"><path fill="rgb(28,159,221)" fill-opacity="1" d=" M-800.010009765625,-561.25 C-800.010009765625,-561.25 -778.1799926757812,-574.7490234375 -778.1799926757812,-574.7490234375 C-778.1799926757812,-574.7490234375 -765.2990112304688,-565.2490234375 -765.2990112304688,-565.2490234375 C-765.2990112304688,-565.2490234375 -766.1279907226562,-542 -766.1279907226562,-542 C-766.1279907226562,-542 -800.010009765625,-561.25 -800.010009765625,-561.25z"></path><path stroke-linecap="butt" stroke-linejoin="miter" fill-opacity="0" stroke-miterlimit="4" stroke="rgb(255,135,141)" stroke-opacity="1" stroke-width="0" d=" M-800.010009765625,-561.25 C-800.010009765625,-561.25 -778.1799926757812,-574.7490234375 -778.1799926757812,-574.7490234375 C-778.1799926757812,-574.7490234375 -765.2990112304688,-565.2490234375 -765.2990112304688,-565.2490234375 C-765.2990112304688,-565.2490234375 -766.1279907226562,-542 -766.1279907226562,-542 C-766.1279907226562,-542 -800.010009765625,-561.25 -800.010009765625,-561.25z"></path></g><g opacity="1" transform="matrix(1,0,0,1,0,0)"><path fill="rgb(45,188,255)" fill-opacity="1" d=" M-800.010009765625,-561.25 C-800.010009765625,-561.25 -778.1799926757812,-574.7490234375 -778.1799926757812,-574.7490234375 C-778.1799926757812,-574.7490234375 -784.1119995117188,-613.2160034179688 -784.1119995117188,-613.2160034179688 C-784.1119995117188,-613.2160034179688 -814,-621.75 -814,-621.75 C-814,-621.75 -800.010009765625,-561.25 -800.010009765625,-561.25z"></path><path stroke-linecap="butt" stroke-linejoin="miter" fill-opacity="0" stroke-miterlimit="4" stroke="rgb(255,135,141)" stroke-opacity="1" stroke-width="0" d=" M-800.010009765625,-561.25 C-800.010009765625,-561.25 -778.1799926757812,-574.7490234375 -778.1799926757812,-574.7490234375 C-778.1799926757812,-574.7490234375 -784.1119995117188,-613.2160034179688 -784.1119995117188,-613.2160034179688 C-784.1119995117188,-613.2160034179688 -814,-621.75 -814,-621.75 C-814,-621.75 -800.010009765625,-561.25 -800.010009765625,-561.25z"></path></g><g opacity="1" transform="matrix(1,0,0,1,0,0)"><path fill="rgb(112,205,249)" fill-opacity="1" d=" M-786.7009887695312,-655.75 C-786.7009887695312,-655.75 -774.8400268554688,-630.1209716796875 -774.8400268554688,-630.1209716796875 C-774.8400268554688,-630.1209716796875 -784.1119995117188,-613.2160034179688 -784.1119995117188,-613.2160034179688 C-784.1119995117188,-613.2160034179688 -814,-621.75 -814,-621.75 C-814,-621.75 -786.7009887695312,-655.75 -786.7009887695312,-655.75z"></path><path stroke-linecap="butt" stroke-linejoin="miter" fill-opacity="0" stroke-miterlimit="4" stroke="rgb(255,135,141)" stroke-opacity="1" stroke-width="0" d=" M-786.7009887695312,-655.75 C-786.7009887695312,-655.75 -774.8400268554688,-630.1209716796875 -774.8400268554688,-630.1209716796875 C-774.8400268554688,-630.1209716796875 -784.1119995117188,-613.2160034179688 -784.1119995117188,-613.2160034179688 C-784.1119995117188,-613.2160034179688 -814,-621.75 -814,-621.75 C-814,-621.75 -786.7009887695312,-655.75 -786.7009887695312,-655.75z"></path></g><g opacity="1" transform="matrix(1,0,0,1,0,0)"><path fill="rgb(28,176,246)" fill-opacity="1" d=" M-765.177001953125,-564.6270141601562 C-765.177001953125,-564.6270141601562 -778.2020263671875,-574.4869995117188 -778.2020263671875,-574.4869995117188 C-778.2020263671875,-574.4869995117188 -784.2239990234375,-613.4400024414062 -784.2239990234375,-613.4400024414062 C-784.2239990234375,-613.4400024414062 -774.9199829101562,-630.4940185546875 -774.9199829101562,-630.4940185546875 C-774.9199829101562,-630.4940185546875 -760.666015625,-618.9089965820312 -760.666015625,-618.9089965820312 C-760.666015625,-618.9089965820312 -755.7440185546875,-581.9119873046875 -755.7440185546875,-581.9119873046875 C-755.7440185546875,-581.9119873046875 -765.177001953125,-564.6270141601562 -765.177001953125,-564.6270141601562z"></path><path stroke-linecap="butt" stroke-linejoin="miter" fill-opacity="0" stroke-miterlimit="4" stroke="rgb(255,135,141)" stroke-opacity="1" stroke-width="0" d=" M-765.177001953125,-564.6270141601562 C-765.177001953125,-564.6270141601562 -778.2020263671875,-574.4869995117188 -778.2020263671875,-574.4869995117188 C-778.2020263671875,-574.4869995117188 -784.2239990234375,-613.4400024414062 -784.2239990234375,-613.4400024414062 C-784.2239990234375,-613.4400024414062 -774.9199829101562,-630.4940185546875 -774.9199829101562,-630.4940185546875 C-774.9199829101562,-630.4940185546875 -760.666015625,-618.9089965820312 -760.666015625,-618.9089965820312 C-760.666015625,-618.9089965820312 -755.7440185546875,-581.9119873046875 -755.7440185546875,-581.9119873046875 C-755.7440185546875,-581.9119873046875 -765.177001953125,-564.6270141601562 -765.177001953125,-564.6270141601562z"></path></g></g><g transform="matrix(0.7660444378852844,0.6427876353263855,-0.6427876353263855,0.7660444378852844,3210.111083984375,2884.81103515625)" opacity="1" style="display: block;"><g opacity="1" transform="matrix(1,0,0,1,0,0)"><path fill="rgb(76,225,211)" fill-opacity="1" d=" M-2150.758056640625,-740.3839721679688 C-2150.758056640625,-740.3839721679688 -2151.5,-831.3099975585938 -2151.5,-831.3099975585938 C-2151.5,-831.3099975585938 -2203.251953125,-853.3629760742188 -2203.251953125,-853.3629760742188 C-2203.251953125,-853.3629760742188 -2248.5,-849.6270141601562 -2248.5,-849.6270141601562 C-2248.5,-849.6270141601562 -2191.10009765625,-736.2830200195312 -2191.10009765625,-736.2830200195312 C-2191.10009765625,-736.2830200195312 -2150.758056640625,-740.3839721679688 -2150.758056640625,-740.3839721679688z"></path><path stroke-linecap="round" stroke-linejoin="round" fill-opacity="0" stroke="rgb(76,225,211)" stroke-opacity="1" stroke-width="20" d=" M-2150.758056640625,-740.3839721679688 C-2150.758056640625,-740.3839721679688 -2151.5,-831.3099975585938 -2151.5,-831.3099975585938 C-2151.5,-831.3099975585938 -2203.251953125,-853.3629760742188 -2203.251953125,-853.3629760742188 C-2203.251953125,-853.3629760742188 -2248.5,-849.6270141601562 -2248.5,-849.6270141601562 C-2248.5,-849.6270141601562 -2191.10009765625,-736.2830200195312 -2191.10009765625,-736.2830200195312 C-2191.10009765625,-736.2830200195312 -2150.758056640625,-740.3839721679688 -2150.758056640625,-740.3839721679688z"></path></g></g><g transform="matrix(0.5362311005592346,0.4499513506889343,-0.6427876353263855,0.7660444378852844,2698.889404296875,2455.844970703125)" opacity="1" style="display: block;"><g opacity="1" transform="matrix(1,0,0,1,0,0)"><path fill="rgb(60,213,152)" fill-opacity="1" d=" M-2182.989013671875,-736.5479736328125 C-2182.989013671875,-736.5479736328125 -2184.947998046875,-822.8289794921875 -2184.947998046875,-822.8289794921875 C-2184.947998046875,-822.8289794921875 -2266.028076171875,-847.4879760742188 -2266.028076171875,-847.4879760742188 C-2266.028076171875,-847.4879760742188 -2263.9990234375,-760.3579711914062 -2263.9990234375,-760.3579711914062 C-2263.9990234375,-760.3579711914062 -2182.989013671875,-736.5479736328125 -2182.989013671875,-736.5479736328125z"></path><path stroke-linecap="round" stroke-linejoin="round" fill-opacity="0" stroke="rgb(60,213,152)" stroke-opacity="1" stroke-width="20" d=" M-2182.989013671875,-736.5479736328125 C-2182.989013671875,-736.5479736328125 -2184.947998046875,-822.8289794921875 -2184.947998046875,-822.8289794921875 C-2184.947998046875,-822.8289794921875 -2266.028076171875,-847.4879760742188 -2266.028076171875,-847.4879760742188 C-2266.028076171875,-847.4879760742188 -2263.9990234375,-760.3579711914062 -2263.9990234375,-760.3579711914062 C-2263.9990234375,-760.3579711914062 -2182.989013671875,-736.5479736328125 -2182.989013671875,-736.5479736328125z"></path></g><g opacity="1" transform="matrix(1,0,0,1,0,0)"><path fill="rgb(255,255,255)" fill-opacity="1" d=" M-2228.31201171875,-821.18798828125 C-2228.31201171875,-816.6810302734375 -2228.2041015625,-815.56201171875 -2228.25,-812.75 C-2252.25,-815.75 -2258.75,-782 -2227.25,-773 C-2227.25,-770.25 -2227.25,-768 -2227.25,-765.25 C-2227.25,-760.75 -2220.25,-759.25 -2220.25,-763.75 C-2220.25,-766.25 -2220.25,-768.5 -2220.25,-771.25 C-2191.25,-767 -2189.75,-804 -2221.5,-811.25 C-2221.5,-812.5 -2221.580078125,-815.2540283203125 -2221.75,-819 C-2222,-824.5 -2228.31201171875,-825.6950073242188 -2228.31201171875,-821.18798828125z"></path><path stroke-linecap="butt" stroke-linejoin="miter" fill-opacity="0" stroke-miterlimit="4" stroke="rgb(217,71,172)" stroke-opacity="1" stroke-width="0" d=" M-2228.31201171875,-821.18798828125 C-2228.31201171875,-816.6810302734375 -2228.2041015625,-815.56201171875 -2228.25,-812.75 C-2252.25,-815.75 -2258.75,-782 -2227.25,-773 C-2227.25,-770.25 -2227.25,-768 -2227.25,-765.25 C-2227.25,-760.75 -2220.25,-759.25 -2220.25,-763.75 C-2220.25,-766.25 -2220.25,-768.5 -2220.25,-771.25 C-2191.25,-767 -2189.75,-804 -2221.5,-811.25 C-2221.5,-812.5 -2221.580078125,-815.2540283203125 -2221.75,-819 C-2222,-824.5 -2228.31201171875,-825.6950073242188 -2228.31201171875,-821.18798828125z"></path></g><g opacity="1" transform="matrix(1,0,0,1,0,0)"><path fill="rgb(60,213,152)" fill-opacity="1" d=" M-2221,-803.5 C-2221,-803.5 -2220.43798828125,-777.625 -2220.43798828125,-777.625 C-2220.43798828125,-777.625 -2204.75,-775.5 -2204.75,-786 C-2204.75,-800.25 -2221,-803.5 -2221,-803.5z"></path><path stroke-linecap="butt" stroke-linejoin="miter" fill-opacity="0" stroke-miterlimit="4" stroke="rgb(217,71,172)" stroke-opacity="1" stroke-width="0" d=" M-2221,-803.5 C-2221,-803.5 -2220.43798828125,-777.625 -2220.43798828125,-777.625 C-2220.43798828125,-777.625 -2204.75,-775.5 -2204.75,-786 C-2204.75,-800.25 -2221,-803.5 -2221,-803.5z"></path></g><g opacity="1" transform="matrix(1,0,0,1,0,0)"><path fill="rgb(60,213,152)" fill-opacity="1" d=" M-2227.75,-805.5 C-2227.75,-805.5 -2242.25,-807.5 -2242.25,-796.75 C-2242.25,-786.75 -2227.375,-780.06201171875 -2227.375,-780.06201171875 C-2227.375,-780.06201171875 -2227.75,-805.5 -2227.75,-805.5z"></path><path stroke-linecap="butt" stroke-linejoin="miter" fill-opacity="0" stroke-miterlimit="4" stroke="rgb(217,71,172)" stroke-opacity="1" stroke-width="0" d=" M-2227.75,-805.5 C-2227.75,-805.5 -2242.25,-807.5 -2242.25,-796.75 C-2242.25,-786.75 -2227.375,-780.06201171875 -2227.375,-780.06201171875 C-2227.375,-780.06201171875 -2227.75,-805.5 -2227.75,-805.5z"></path></g></g><g transform="matrix(1,0,0,1,4807,2007.6639404296875)" opacity="1" style="display: block;"><g opacity="1" transform="matrix(1,0,0,1,0,0)"><path fill="rgb(28,176,246)" fill-opacity="1" d=" M-768.166015625,-665.3389892578125 C-768.166015625,-665.3389892578125 -757.4730224609375,-628.6160278320312 -757.4730224609375,-628.6160278320312 C-757.4730224609375,-628.6160278320312 -784.8720092773438,-572.3300170898438 -784.8720092773438,-572.3300170898438 C-784.8720092773438,-572.3300170898438 -812.9210205078125,-560.97900390625 -812.9210205078125,-560.97900390625 C-812.9210205078125,-560.97900390625 -816.1370239257812,-562.166015625 -816.1370239257812,-562.166015625 C-816.1370239257812,-562.166015625 -823.6209716796875,-597.8460083007812 -823.6209716796875,-597.8460083007812 C-823.6209716796875,-597.8460083007812 -802.8690185546875,-647.7659912109375 -802.8690185546875,-647.7659912109375 C-802.8690185546875,-647.7659912109375 -770.5260009765625,-666.7949829101562 -770.5260009765625,-666.7949829101562 C-770.5260009765625,-666.7949829101562 -768.166015625,-665.3389892578125 -768.166015625,-665.3389892578125z"></path><path stroke-linecap="butt" stroke-linejoin="miter" fill-opacity="0" stroke-miterlimit="4" stroke="rgb(255,135,141)" stroke-opacity="1" stroke-width="0" d=" M-768.166015625,-665.3389892578125 C-768.166015625,-665.3389892578125 -757.4730224609375,-628.6160278320312 -757.4730224609375,-628.6160278320312 C-757.4730224609375,-628.6160278320312 -784.8720092773438,-572.3300170898438 -784.8720092773438,-572.3300170898438 C-784.8720092773438,-572.3300170898438 -812.9210205078125,-560.97900390625 -812.9210205078125,-560.97900390625 C-812.9210205078125,-560.97900390625 -816.1370239257812,-562.166015625 -816.1370239257812,-562.166015625 C-816.1370239257812,-562.166015625 -823.6209716796875,-597.8460083007812 -823.6209716796875,-597.8460083007812 C-823.6209716796875,-597.8460083007812 -802.8690185546875,-647.7659912109375 -802.8690185546875,-647.7659912109375 C-802.8690185546875,-647.7659912109375 -770.5260009765625,-666.7949829101562 -770.5260009765625,-666.7949829101562 C-770.5260009765625,-666.7949829101562 -768.166015625,-665.3389892578125 -768.166015625,-665.3389892578125z"></path></g><g opacity="1" transform="matrix(1,0,0,1,0,0)"><path fill="rgb(28,159,220)" fill-opacity="1" d=" M-816.3690185546875,-562.6119995117188 C-816.3690185546875,-562.6119995117188 -815.8939819335938,-586.35302734375 -815.8939819335938,-586.35302734375 C-815.8939819335938,-586.35302734375 -819.5830078125,-602.6920166015625 -819.5830078125,-602.6920166015625 C-819.5830078125,-602.6920166015625 -823.9959716796875,-597.8090209960938 -823.9959716796875,-597.8090209960938 C-823.9959716796875,-597.8090209960938 -816.3690185546875,-562.6119995117188 -816.3690185546875,-562.6119995117188z"></path><path stroke-linecap="butt" stroke-linejoin="miter" fill-opacity="0" stroke-miterlimit="4" stroke="rgb(255,135,141)" stroke-opacity="1" stroke-width="0" d=" M-816.3690185546875,-562.6119995117188 C-816.3690185546875,-562.6119995117188 -815.8939819335938,-586.35302734375 -815.8939819335938,-586.35302734375 C-815.8939819335938,-586.35302734375 -819.5830078125,-602.6920166015625 -819.5830078125,-602.6920166015625 C-819.5830078125,-602.6920166015625 -823.9959716796875,-597.8090209960938 -823.9959716796875,-597.8090209960938 C-823.9959716796875,-597.8090209960938 -816.3690185546875,-562.6119995117188 -816.3690185546875,-562.6119995117188z"></path></g><g opacity="1" transform="matrix(1,0,0,1,0,0)"><path fill="rgb(124,214,246)" fill-opacity="1" d=" M-802.7979736328125,-648.10302734375 C-802.7979736328125,-648.10302734375 -805.1929931640625,-636.4630126953125 -805.1929931640625,-636.4630126953125 C-805.1929931640625,-636.4630126953125 -819.5830078125,-602.6920166015625 -819.5830078125,-602.6920166015625 C-819.5830078125,-602.6920166015625 -823.9959716796875,-597.8090209960938 -823.9959716796875,-597.8090209960938 C-823.9959716796875,-597.8090209960938 -802.7979736328125,-648.10302734375 -802.7979736328125,-648.10302734375z"></path><path stroke-linecap="butt" stroke-linejoin="miter" fill-opacity="0" stroke-miterlimit="4" stroke="rgb(255,135,141)" stroke-opacity="1" stroke-width="0" d=" M-802.7979736328125,-648.10302734375 C-802.7979736328125,-648.10302734375 -805.1929931640625,-636.4630126953125 -805.1929931640625,-636.4630126953125 C-805.1929931640625,-636.4630126953125 -819.5830078125,-602.6920166015625 -819.5830078125,-602.6920166015625 C-819.5830078125,-602.6920166015625 -823.9959716796875,-597.8090209960938 -823.9959716796875,-597.8090209960938 C-823.9959716796875,-597.8090209960938 -802.7979736328125,-648.10302734375 -802.7979736328125,-648.10302734375z"></path></g><g opacity="1" transform="matrix(1,0,0,1,0,0)"><path fill="rgb(255,255,255)" fill-opacity="1" d=" M-802.7979736328125,-648.10302734375 C-802.7979736328125,-648.10302734375 -805.1929931640625,-636.4630126953125 -805.1929931640625,-636.4630126953125 C-805.1929931640625,-636.4630126953125 -788.625,-645.2340087890625 -788.625,-645.2340087890625 C-788.625,-645.2340087890625 -770.3460083007812,-666.8359985351562 -770.3460083007812,-666.8359985351562 C-770.3460083007812,-666.8359985351562 -802.7979736328125,-648.10302734375 -802.7979736328125,-648.10302734375z"></path><path stroke-linecap="butt" stroke-linejoin="miter" fill-opacity="0" stroke-miterlimit="4" stroke="rgb(255,135,141)" stroke-opacity="1" stroke-width="0" d=" M-802.7979736328125,-648.10302734375 C-802.7979736328125,-648.10302734375 -805.1929931640625,-636.4630126953125 -805.1929931640625,-636.4630126953125 C-805.1929931640625,-636.4630126953125 -788.625,-645.2340087890625 -788.625,-645.2340087890625 C-788.625,-645.2340087890625 -770.3460083007812,-666.8359985351562 -770.3460083007812,-666.8359985351562 C-770.3460083007812,-666.8359985351562 -802.7979736328125,-648.10302734375 -802.7979736328125,-648.10302734375z"></path></g><g opacity="1" transform="matrix(1,0,0,1,0,0)"><path fill="rgb(112,205,249)" fill-opacity="1" d=" M-760.39697265625,-629.5889892578125 C-760.39697265625,-629.5889892578125 -785.6799926757812,-628.2520141601562 -785.6799926757812,-628.2520141601562 C-785.6799926757812,-628.2520141601562 -788.625,-645.2340087890625 -788.625,-645.2340087890625 C-788.625,-645.2340087890625 -770.3460083007812,-666.8359985351562 -770.3460083007812,-666.8359985351562 C-770.3460083007812,-666.8359985351562 -760.39697265625,-629.5889892578125 -760.39697265625,-629.5889892578125z"></path><path stroke-linecap="butt" stroke-linejoin="miter" fill-opacity="0" stroke-miterlimit="4" stroke="rgb(255,135,141)" stroke-opacity="1" stroke-width="0" d=" M-760.39697265625,-629.5889892578125 C-760.39697265625,-629.5889892578125 -785.6799926757812,-628.2520141601562 -785.6799926757812,-628.2520141601562 C-785.6799926757812,-628.2520141601562 -788.625,-645.2340087890625 -788.625,-645.2340087890625 C-788.625,-645.2340087890625 -770.3460083007812,-666.8359985351562 -770.3460083007812,-666.8359985351562 C-770.3460083007812,-666.8359985351562 -760.39697265625,-629.5889892578125 -760.39697265625,-629.5889892578125z"></path></g><g opacity="1" transform="matrix(1,0,0,1,0,0)"><path fill="rgb(45,188,255)" fill-opacity="1" d=" M-760.39697265625,-629.5889892578125 C-760.39697265625,-629.5889892578125 -785.6799926757812,-628.2520141601562 -785.6799926757812,-628.2520141601562 C-785.6799926757812,-628.2520141601562 -800.572021484375,-595.2540283203125 -800.572021484375,-595.2540283203125 C-800.572021484375,-595.2540283203125 -787.5269775390625,-573.3660278320312 -787.5269775390625,-573.3660278320312 C-787.5269775390625,-573.3660278320312 -760.39697265625,-629.5889892578125 -760.39697265625,-629.5889892578125z"></path><path stroke-linecap="butt" stroke-linejoin="miter" fill-opacity="0" stroke-miterlimit="4" stroke="rgb(255,135,141)" stroke-opacity="1" stroke-width="0" d=" M-760.39697265625,-629.5889892578125 C-760.39697265625,-629.5889892578125 -785.6799926757812,-628.2520141601562 -785.6799926757812,-628.2520141601562 C-785.6799926757812,-628.2520141601562 -800.572021484375,-595.2540283203125 -800.572021484375,-595.2540283203125 C-800.572021484375,-595.2540283203125 -787.5269775390625,-573.3660278320312 -787.5269775390625,-573.3660278320312 C-787.5269775390625,-573.3660278320312 -760.39697265625,-629.5889892578125 -760.39697265625,-629.5889892578125z"></path></g><g opacity="1" transform="matrix(1,0,0,1,0,0)"><path fill="rgb(33,166,229)" fill-opacity="1" d=" M-816.3870239257812,-562.3389892578125 C-816.3870239257812,-562.3389892578125 -815.8939819335938,-586.35302734375 -815.8939819335938,-586.35302734375 C-815.8939819335938,-586.35302734375 -800.572021484375,-595.2540283203125 -800.572021484375,-595.2540283203125 C-800.572021484375,-595.2540283203125 -787.5269775390625,-573.3660278320312 -787.5269775390625,-573.3660278320312 C-787.5269775390625,-573.3660278320312 -816.3870239257812,-562.3389892578125 -816.3870239257812,-562.3389892578125z"></path><path stroke-linecap="butt" stroke-linejoin="miter" fill-opacity="0" stroke-miterlimit="4" stroke="rgb(255,135,141)" stroke-opacity="1" stroke-width="0" d=" M-816.3870239257812,-562.3389892578125 C-816.3870239257812,-562.3389892578125 -815.8939819335938,-586.35302734375 -815.8939819335938,-586.35302734375 C-815.8939819335938,-586.35302734375 -800.572021484375,-595.2540283203125 -800.572021484375,-595.2540283203125 C-800.572021484375,-595.2540283203125 -787.5269775390625,-573.3660278320312 -787.5269775390625,-573.3660278320312 C-787.5269775390625,-573.3660278320312 -816.3870239257812,-562.3389892578125 -816.3870239257812,-562.3389892578125z"></path></g><g opacity="1" transform="matrix(1,0,0,1,0,0)"><path fill="rgb(28,176,246)" fill-opacity="1" d=" M-788.3809814453125,-645.781982421875 C-788.3809814453125,-645.781982421875 -785.5170288085938,-628.4400024414062 -785.5170288085938,-628.4400024414062 C-785.5170288085938,-628.4400024414062 -800.60498046875,-595.0170288085938 -800.60498046875,-595.0170288085938 C-800.60498046875,-595.0170288085938 -816.0349731445312,-586.02001953125 -816.0349731445312,-586.02001953125 C-816.0349731445312,-586.02001953125 -819.9429931640625,-602.6480102539062 -819.9429931640625,-602.6480102539062 C-819.9429931640625,-602.6480102539062 -805.0440063476562,-636.9320068359375 -805.0440063476562,-636.9320068359375 C-805.0440063476562,-636.9320068359375 -788.3809814453125,-645.781982421875 -788.3809814453125,-645.781982421875z"></path><path stroke-linecap="butt" stroke-linejoin="miter" fill-opacity="0" stroke-miterlimit="4" stroke="rgb(255,135,141)" stroke-opacity="1" stroke-width="0" d=" M-788.3809814453125,-645.781982421875 C-788.3809814453125,-645.781982421875 -785.5170288085938,-628.4400024414062 -785.5170288085938,-628.4400024414062 C-785.5170288085938,-628.4400024414062 -800.60498046875,-595.0170288085938 -800.60498046875,-595.0170288085938 C-800.60498046875,-595.0170288085938 -816.0349731445312,-586.02001953125 -816.0349731445312,-586.02001953125 C-816.0349731445312,-586.02001953125 -819.9429931640625,-602.6480102539062 -819.9429931640625,-602.6480102539062 C-819.9429931640625,-602.6480102539062 -805.0440063476562,-636.9320068359375 -805.0440063476562,-636.9320068359375 C-805.0440063476562,-636.9320068359375 -788.3809814453125,-645.781982421875 -788.3809814453125,-645.781982421875z"></path></g></g><g transform="matrix(1,0,0,1,2457,1468.8338623046875)" opacity="1" style="display: block;"><g opacity="1" transform="matrix(1,0,0,1,0,0)"><path fill="url(#__lottie_element_25209)" fill-opacity="1" d=" M-1744.5,-279.5 C-1751.009033203125,-271.364013671875 -1767.25,-251 -1775.75,-239.5 C-1784.25,-228 -1786.512939453125,-209.8489990234375 -1786.25,-194.75 C-1785.75,-166 -1756.154052734375,-139.19900512695312 -1718.75,-146 C-1694.383056640625,-150.42999267578125 -1680.0870361328125,-169.1999969482422 -1675.77197265625,-187.7550048828125 C-1671.8089599609375,-204.8000030517578 -1673.2540283203125,-217.89100646972656 -1683.25,-230.25 C-1697,-247.25 -1715.75,-270.5 -1723,-279.25 C-1730.25,-288 -1737.990966796875,-287.635986328125 -1744.5,-279.5z"></path><path stroke-linecap="butt" stroke-linejoin="miter" fill-opacity="0" stroke-miterlimit="4" stroke="rgb(34,168,130)" stroke-opacity="1" stroke-width="0" d=" M-1744.5,-279.5 C-1751.009033203125,-271.364013671875 -1767.25,-251 -1775.75,-239.5 C-1784.25,-228 -1786.512939453125,-209.8489990234375 -1786.25,-194.75 C-1785.75,-166 -1756.154052734375,-139.19900512695312 -1718.75,-146 C-1694.383056640625,-150.42999267578125 -1680.0870361328125,-169.1999969482422 -1675.77197265625,-187.7550048828125 C-1671.8089599609375,-204.8000030517578 -1673.2540283203125,-217.89100646972656 -1683.25,-230.25 C-1697,-247.25 -1715.75,-270.5 -1723,-279.25 C-1730.25,-288 -1737.990966796875,-287.635986328125 -1744.5,-279.5z"></path></g><g opacity="1" transform="matrix(1,0,0,1,0,0)"><path fill="url(#__lottie_element_25210)" fill-opacity="1" d=" M-1789.958984375,-254.39100646972656 C-1789.8409423828125,-249.07699584960938 -1787.7110595703125,-210.00399780273438 -1786.3360595703125,-195.01300048828125 C-1784.5,-175 -1743.75,-166 -1726.676025390625,-187.60299682617188 C-1718.842041015625,-197.51499938964844 -1711.5,-228.5 -1746.3759765625,-247.43099975585938 C-1755.741943359375,-252.51499938964844 -1767.81494140625,-258.9289855957031 -1772.968017578125,-261.5830078125 C-1783,-266.75 -1790.0770263671875,-259.7049865722656 -1789.958984375,-254.39100646972656z"></path><path stroke-linecap="butt" stroke-linejoin="miter" fill-opacity="0" stroke-miterlimit="4" stroke="rgb(34,168,130)" stroke-opacity="1" stroke-width="0" d=" M-1789.958984375,-254.39100646972656 C-1789.8409423828125,-249.07699584960938 -1787.7110595703125,-210.00399780273438 -1786.3360595703125,-195.01300048828125 C-1784.5,-175 -1743.75,-166 -1726.676025390625,-187.60299682617188 C-1718.842041015625,-197.51499938964844 -1711.5,-228.5 -1746.3759765625,-247.43099975585938 C-1755.741943359375,-252.51499938964844 -1767.81494140625,-258.9289855957031 -1772.968017578125,-261.5830078125 C-1783,-266.75 -1790.0770263671875,-259.7049865722656 -1789.958984375,-254.39100646972656z"></path></g><g opacity="1" transform="matrix(1,0,0,1,0,0)"><path fill="rgb(255,200,0)" fill-opacity="1" d=" M-1730.552001953125,-222.02099609375 C-1731.5279541015625,-216.7969970703125 -1734.2530517578125,-202.86900329589844 -1734.9229736328125,-187.8300018310547 C-1735.75,-169.25 -1724.25,-162.25 -1709.1429443359375,-164.21200561523438 C-1694.0489501953125,-166.17300415039062 -1679.7509765625,-185.427001953125 -1692.7779541015625,-204.93499755859375 C-1700,-215.75 -1703.6490478515625,-221.00900268554688 -1707.135009765625,-225.63999938964844 C-1715.5,-236.75 -1728.5,-233 -1730.552001953125,-222.02099609375z"></path><path stroke-linecap="butt" stroke-linejoin="miter" fill-opacity="0" stroke-miterlimit="4" stroke="rgb(34,168,130)" stroke-opacity="1" stroke-width="0" d=" M-1730.552001953125,-222.02099609375 C-1731.5279541015625,-216.7969970703125 -1734.2530517578125,-202.86900329589844 -1734.9229736328125,-187.8300018310547 C-1735.75,-169.25 -1724.25,-162.25 -1709.1429443359375,-164.21200561523438 C-1694.0489501953125,-166.17300415039062 -1679.7509765625,-185.427001953125 -1692.7779541015625,-204.93499755859375 C-1700,-215.75 -1703.6490478515625,-221.00900268554688 -1707.135009765625,-225.63999938964844 C-1715.5,-236.75 -1728.5,-233 -1730.552001953125,-222.02099609375z"></path></g></g><g transform="matrix(1,0,0,1,2607,1535.646484375)" opacity="1" style="display: block;"><g opacity="1" transform="matrix(1,0,0,1,0,0)"><path fill="rgb(96,208,253)" fill-opacity="1" d=" M-1384.178955078125,-828.302001953125 C-1384.178955078125,-828.302001953125 -1315.739013671875,-860.72900390625 -1315.739013671875,-860.72900390625 C-1315.739013671875,-860.72900390625 -1328.824951171875,-922.7730102539062 -1328.824951171875,-922.7730102539062 C-1328.824951171875,-922.7730102539062 -1397.3919677734375,-889.469970703125 -1397.3919677734375,-889.469970703125 C-1397.3919677734375,-889.469970703125 -1384.178955078125,-828.302001953125 -1384.178955078125,-828.302001953125z"></path><path stroke-linecap="round" stroke-linejoin="round" fill-opacity="0" stroke="rgb(96,208,253)" stroke-opacity="1" stroke-width="30" d=" M-1384.178955078125,-828.302001953125 C-1384.178955078125,-828.302001953125 -1315.739013671875,-860.72900390625 -1315.739013671875,-860.72900390625 C-1315.739013671875,-860.72900390625 -1328.824951171875,-922.7730102539062 -1328.824951171875,-922.7730102539062 C-1328.824951171875,-922.7730102539062 -1397.3919677734375,-889.469970703125 -1397.3919677734375,-889.469970703125 C-1397.3919677734375,-889.469970703125 -1384.178955078125,-828.302001953125 -1384.178955078125,-828.302001953125z"></path></g></g><g transform="matrix(1,0,0,1,2467,1625.5506591796875)" opacity="1" style="display: block;"><g opacity="1" transform="matrix(1,0,0,1,0,0)"><path fill="rgb(94,196,235)" fill-opacity="1" d=" M-2033.884033203125,-1174.7359619140625 C-2033.884033203125,-1174.7359619140625 -1983.85205078125,-1178 -1983.85205078125,-1178 C-1983.85205078125,-1178 -1952.25,-1218.9000244140625 -1952.25,-1218.9000244140625 C-1952.25,-1218.9000244140625 -1958.8330078125,-1234.7650146484375 -1958.8330078125,-1234.7650146484375 C-1958.8330078125,-1234.7650146484375 -2042.875,-1189.5770263671875 -2042.875,-1189.5770263671875 C-2042.875,-1189.5770263671875 -2033.884033203125,-1174.7359619140625 -2033.884033203125,-1174.7359619140625z"></path><path stroke-linecap="round" stroke-linejoin="round" fill-opacity="0" stroke="rgb(94,196,235)" stroke-opacity="1" stroke-width="12" d=" M-2033.884033203125,-1174.7359619140625 C-2033.884033203125,-1174.7359619140625 -1983.85205078125,-1178 -1983.85205078125,-1178 C-1983.85205078125,-1178 -1952.25,-1218.9000244140625 -1952.25,-1218.9000244140625 C-1952.25,-1218.9000244140625 -1958.8330078125,-1234.7650146484375 -1958.8330078125,-1234.7650146484375 C-1958.8330078125,-1234.7650146484375 -2042.875,-1189.5770263671875 -2042.875,-1189.5770263671875 C-2042.875,-1189.5770263671875 -2033.884033203125,-1174.7359619140625 -2033.884033203125,-1174.7359619140625z"></path></g><g opacity="1" transform="matrix(1,0,0,1,0,0)"><path fill="rgb(96,208,253)" fill-opacity="1" d=" M-2042.678955078125,-1192.802001953125 C-2042.678955078125,-1192.802001953125 -1994.739013671875,-1197.22900390625 -1994.739013671875,-1197.22900390625 C-1994.739013671875,-1197.22900390625 -1961.824951171875,-1235.27294921875 -1961.824951171875,-1235.27294921875 C-1961.824951171875,-1235.27294921875 -2011.8919677734375,-1229.469970703125 -2011.8919677734375,-1229.469970703125 C-2011.8919677734375,-1229.469970703125 -2042.678955078125,-1192.802001953125 -2042.678955078125,-1192.802001953125z"></path><path stroke-linecap="round" stroke-linejoin="round" fill-opacity="0" stroke="rgb(96,208,253)" stroke-opacity="1" stroke-width="12" d=" M-2042.678955078125,-1192.802001953125 C-2042.678955078125,-1192.802001953125 -1994.739013671875,-1197.22900390625 -1994.739013671875,-1197.22900390625 C-1994.739013671875,-1197.22900390625 -1961.824951171875,-1235.27294921875 -1961.824951171875,-1235.27294921875 C-1961.824951171875,-1235.27294921875 -2011.8919677734375,-1229.469970703125 -2011.8919677734375,-1229.469970703125 C-2011.8919677734375,-1229.469970703125 -2042.678955078125,-1192.802001953125 -2042.678955078125,-1192.802001953125z"></path></g><g opacity="1" transform="matrix(1,0,0,1,0,0)"><path fill="rgb(253,253,255)" fill-opacity="1" d=" M-1987.5,-1232.5 C-2003.25,-1230.75 -2013,-1225.25 -2017.25,-1219.5 C-2016,-1219.25 -2011,-1219.5 -2011,-1219.5 C-2011,-1219.5 -2002.3070068359375,-1227.3690185546875 -1992,-1228 C-1979.75,-1228.75 -1989.5,-1220.5 -1989.5,-1220.5 C-1989.5,-1220.5 -2021.7230224609375,-1216.279052734375 -2029.75,-1206.5 C-2043.5,-1189.75 -2002.5,-1203.25 -2002.5,-1203.25 C-2002.5,-1203.25 -2004.25,-1199.75 -2004.25,-1199.75 C-2004.25,-1199.75 -1995.75,-1200 -1995.75,-1200 C-1995.75,-1200 -1994.5,-1203.5 -1991.25,-1207.75 C-1988,-1212 -1979.75,-1222.25 -1977.75,-1224.75 C-1975.75,-1227.25 -1971.75,-1234.25 -1987.5,-1232.5z"></path><path stroke-linecap="butt" stroke-linejoin="miter" fill-opacity="0" stroke-miterlimit="4" stroke="rgb(137,216,120)" stroke-opacity="1" stroke-width="0" d=" M-1987.5,-1232.5 C-2003.25,-1230.75 -2013,-1225.25 -2017.25,-1219.5 C-2016,-1219.25 -2011,-1219.5 -2011,-1219.5 C-2011,-1219.5 -2002.3070068359375,-1227.3690185546875 -1992,-1228 C-1979.75,-1228.75 -1989.5,-1220.5 -1989.5,-1220.5 C-1989.5,-1220.5 -2021.7230224609375,-1216.279052734375 -2029.75,-1206.5 C-2043.5,-1189.75 -2002.5,-1203.25 -2002.5,-1203.25 C-2002.5,-1203.25 -2004.25,-1199.75 -2004.25,-1199.75 C-2004.25,-1199.75 -1995.75,-1200 -1995.75,-1200 C-1995.75,-1200 -1994.5,-1203.5 -1991.25,-1207.75 C-1988,-1212 -1979.75,-1222.25 -1977.75,-1224.75 C-1975.75,-1227.25 -1971.75,-1234.25 -1987.5,-1232.5z"></path></g><g opacity="1" transform="matrix(1,0,0,1,0,0)"><path fill="rgb(96,207,251)" fill-opacity="1" d=" M-1993.75,-1215.75 C-1993.75,-1215.75 -2008.5,-1214.5 -2016.25,-1210.75 C-2023.02001953125,-1207.4739990234375 -2028.5,-1200 -2015.75,-1202.25 C-2001.0169677734375,-1204.8499755859375 -1993.75,-1215.75 -1993.75,-1215.75z"></path><path stroke-linecap="butt" stroke-linejoin="miter" fill-opacity="0" stroke-miterlimit="4" stroke="rgb(137,216,120)" stroke-opacity="1" stroke-width="0" d=" M-1993.75,-1215.75 C-1993.75,-1215.75 -2008.5,-1214.5 -2016.25,-1210.75 C-2023.02001953125,-1207.4739990234375 -2028.5,-1200 -2015.75,-1202.25 C-2001.0169677734375,-1204.8499755859375 -1993.75,-1215.75 -1993.75,-1215.75z"></path></g></g><g transform="matrix(0.9396926164627075,-0.3420201539993286,0.3420201539993286,0.9396926164627075,2697.722900390625,435.4088134765625)" opacity="1" style="display: block;"><g opacity="1" transform="matrix(1,0,0,1,0,0)"><path fill="rgb(34,167,130)" fill-opacity="1" d=" M-2003.48095703125,-1032.2239990234375 C-2003.48095703125,-1032.2239990234375 -2089.1220703125,-1035.0489501953125 -2089.1220703125,-1035.0489501953125 C-2089.1220703125,-1035.0489501953125 -2128.444091796875,-956.8419799804688 -2128.444091796875,-956.8419799804688 C-2128.444091796875,-956.8419799804688 -2112.839111328125,-928.7869873046875 -2112.839111328125,-928.7869873046875 C-2112.839111328125,-928.7869873046875 -1980.81103515625,-1009.405029296875 -1980.81103515625,-1009.405029296875 C-1980.81103515625,-1009.405029296875 -2003.48095703125,-1032.2239990234375 -2003.48095703125,-1032.2239990234375z"></path><path stroke-linecap="round" stroke-linejoin="round" fill-opacity="0" stroke="rgb(34,168,130)" stroke-opacity="1" stroke-width="30" d=" M-2003.48095703125,-1032.2239990234375 C-2003.48095703125,-1032.2239990234375 -2089.1220703125,-1035.0489501953125 -2089.1220703125,-1035.0489501953125 C-2089.1220703125,-1035.0489501953125 -2128.444091796875,-956.8419799804688 -2128.444091796875,-956.8419799804688 C-2128.444091796875,-956.8419799804688 -2112.839111328125,-928.7869873046875 -2112.839111328125,-928.7869873046875 C-2112.839111328125,-928.7869873046875 -1980.81103515625,-1009.405029296875 -1980.81103515625,-1009.405029296875 C-1980.81103515625,-1009.405029296875 -2003.48095703125,-1032.2239990234375 -2003.48095703125,-1032.2239990234375z"></path></g><g opacity="1" transform="matrix(1,0,0,1,0,0)"><path fill="rgb(34,206,155)" fill-opacity="1" d=" M-1979.5,-1007.4180297851562 C-1979.5,-1007.4180297851562 -2069.884033203125,-1010.4409790039062 -2069.884033203125,-1010.4409790039062 C-2069.884033203125,-1010.4409790039062 -2110.73291015625,-927.364990234375 -2110.73291015625,-927.364990234375 C-2110.73291015625,-927.364990234375 -2023.8900146484375,-927.5 -2023.8900146484375,-927.5 C-2023.8900146484375,-927.5 -1979.5,-1007.4180297851562 -1979.5,-1007.4180297851562z"></path><path stroke-linecap="round" stroke-linejoin="round" fill-opacity="0" stroke="rgb(34,206,155)" stroke-opacity="1" stroke-width="30" d=" M-1979.5,-1007.4180297851562 C-1979.5,-1007.4180297851562 -2069.884033203125,-1010.4409790039062 -2069.884033203125,-1010.4409790039062 C-2069.884033203125,-1010.4409790039062 -2110.73291015625,-927.364990234375 -2110.73291015625,-927.364990234375 C-2110.73291015625,-927.364990234375 -2023.8900146484375,-927.5 -2023.8900146484375,-927.5 C-2023.8900146484375,-927.5 -1979.5,-1007.4180297851562 -1979.5,-1007.4180297851562z"></path></g></g><g transform="matrix(0.9180511832237244,-0.3964619040489197,0.3964619040489197,0.9180511832237244,3525.567626953125,1577.090087890625)" opacity="1" style="display: block;"><g opacity="1" transform="matrix(1,0,0,1,0,0)"><path fill="rgb(255,135,141)" fill-opacity="1" d=" M-2125.738525390625,-757.0678100585938 C-2125.738525390625,-757.0678100585938 -2153.402099609375,-904.4341430664062 -2153.402099609375,-904.4341430664062 C-2153.402099609375,-904.4341430664062 -2280.712890625,-916.1751708984375 -2280.712890625,-916.1751708984375 C-2280.712890625,-916.1751708984375 -2325.67236328125,-890.5033569335938 -2325.67236328125,-890.5033569335938 C-2325.67236328125,-890.5033569335938 -2159.15234375,-730.2185668945312 -2159.15234375,-730.2185668945312 C-2159.15234375,-730.2185668945312 -2125.738525390625,-757.0678100585938 -2125.738525390625,-757.0678100585938z"></path><path stroke-linecap="round" stroke-linejoin="round" fill-opacity="0" stroke="rgb(255,135,141)" stroke-opacity="1" stroke-width="50" d=" M-2125.738525390625,-757.0678100585938 C-2125.738525390625,-757.0678100585938 -2153.402099609375,-904.4341430664062 -2153.402099609375,-904.4341430664062 C-2153.402099609375,-904.4341430664062 -2280.712890625,-916.1751708984375 -2280.712890625,-916.1751708984375 C-2280.712890625,-916.1751708984375 -2325.67236328125,-890.5033569335938 -2325.67236328125,-890.5033569335938 C-2325.67236328125,-890.5033569335938 -2159.15234375,-730.2185668945312 -2159.15234375,-730.2185668945312 C-2159.15234375,-730.2185668945312 -2125.738525390625,-757.0678100585938 -2125.738525390625,-757.0678100585938z"></path></g></g><g transform="matrix(0.9237833619117737,-0.3989373445510864,0.3890356421470642,0.9008548259735107,3532.45947265625,1557.655517578125)" opacity="1" style="display: block;"><g opacity="1" transform="matrix(1,0,0,1,0,0)"><path fill="rgb(217,71,172)" fill-opacity="1" d=" M-2167.739013671875,-725.0479736328125 C-2167.739013671875,-725.0479736328125 -2199.697998046875,-874.5789794921875 -2199.697998046875,-874.5789794921875 C-2199.697998046875,-874.5789794921875 -2327.028076171875,-888.2379760742188 -2327.028076171875,-888.2379760742188 C-2327.028076171875,-888.2379760742188 -2292.7490234375,-737.1079711914062 -2292.7490234375,-737.1079711914062 C-2292.7490234375,-737.1079711914062 -2167.739013671875,-725.0479736328125 -2167.739013671875,-725.0479736328125z"></path><path stroke-linecap="round" stroke-linejoin="round" fill-opacity="0" stroke="rgb(217,71,172)" stroke-opacity="1" stroke-width="45" d=" M-2167.739013671875,-725.0479736328125 C-2167.739013671875,-725.0479736328125 -2199.697998046875,-874.5789794921875 -2199.697998046875,-874.5789794921875 C-2199.697998046875,-874.5789794921875 -2327.028076171875,-888.2379760742188 -2327.028076171875,-888.2379760742188 C-2327.028076171875,-888.2379760742188 -2292.7490234375,-737.1079711914062 -2292.7490234375,-737.1079711914062 C-2292.7490234375,-737.1079711914062 -2167.739013671875,-725.0479736328125 -2167.739013671875,-725.0479736328125z"></path></g><g opacity="1" transform="matrix(1,0,0,1,0,0)"><path fill="rgb(255,255,255)" fill-opacity="1" d=" M-2270.25,-870.75 C-2270.25,-870.75 -2267.75,-861.5 -2267.75,-861.5 C-2267.75,-861.5 -2263.75,-841.75 -2263.75,-841.75 C-2263.75,-841.75 -2316.5,-848.25 -2316.5,-848.25 C-2316.5,-848.25 -2304,-788.75 -2304,-788.75 C-2304,-788.75 -2303.75,-779.75 -2303.75,-779.75 C-2303.75,-779.75 -2291,-779.25 -2291,-779.25 C-2291,-779.25 -2292.75,-788.5 -2292.75,-788.5 C-2292.75,-788.5 -2252,-784.5 -2252,-784.5 C-2252,-784.5 -2243,-740 -2243,-740 C-2243,-740 -2242.5,-732.75 -2242.5,-732.75 C-2242.5,-732.75 -2235.5,-729.25 -2229.5,-732 C-2229.5,-735.25 -2232.5,-740.75 -2232.5,-740.75 C-2232.5,-740.75 -2241,-783.5 -2241,-783.5 C-2241,-783.5 -2198.75,-779 -2198.75,-779 C-2198.75,-779 -2196.75,-769.25 -2196.75,-769.25 C-2196.75,-769.25 -2185,-768.25 -2185,-768.25 C-2185,-768.25 -2199,-835 -2199,-835 C-2199,-835 -2253,-840.5 -2253,-840.5 C-2253,-840.5 -2256.75,-862 -2256.75,-862 C-2256.75,-862 -2257.75,-870 -2257.75,-870 C-2257.75,-870 -2270.25,-870.75 -2270.25,-870.75z"></path><path stroke-linecap="butt" stroke-linejoin="miter" fill-opacity="0" stroke-miterlimit="4" stroke="rgb(107,204,249)" stroke-opacity="1" stroke-width="0" d=" M-2270.25,-870.75 C-2270.25,-870.75 -2267.75,-861.5 -2267.75,-861.5 C-2267.75,-861.5 -2263.75,-841.75 -2263.75,-841.75 C-2263.75,-841.75 -2316.5,-848.25 -2316.5,-848.25 C-2316.5,-848.25 -2304,-788.75 -2304,-788.75 C-2304,-788.75 -2303.75,-779.75 -2303.75,-779.75 C-2303.75,-779.75 -2291,-779.25 -2291,-779.25 C-2291,-779.25 -2292.75,-788.5 -2292.75,-788.5 C-2292.75,-788.5 -2252,-784.5 -2252,-784.5 C-2252,-784.5 -2243,-740 -2243,-740 C-2243,-740 -2242.5,-732.75 -2242.5,-732.75 C-2242.5,-732.75 -2235.5,-729.25 -2229.5,-732 C-2229.5,-735.25 -2232.5,-740.75 -2232.5,-740.75 C-2232.5,-740.75 -2241,-783.5 -2241,-783.5 C-2241,-783.5 -2198.75,-779 -2198.75,-779 C-2198.75,-779 -2196.75,-769.25 -2196.75,-769.25 C-2196.75,-769.25 -2185,-768.25 -2185,-768.25 C-2185,-768.25 -2199,-835 -2199,-835 C-2199,-835 -2253,-840.5 -2253,-840.5 C-2253,-840.5 -2256.75,-862 -2256.75,-862 C-2256.75,-862 -2257.75,-870 -2257.75,-870 C-2257.75,-870 -2270.25,-870.75 -2270.25,-870.75z"></path></g><g opacity="1" transform="matrix(1,0,0,1,0,0)"><path fill="rgb(217,71,172)" fill-opacity="1" d=" M-2250.25,-830.5 C-2250.25,-830.5 -2243.25,-794.75 -2243.25,-794.75 C-2243.25,-794.75 -2201,-790.5 -2201,-790.5 C-2201,-790.5 -2208,-826 -2208,-826 C-2208,-826 -2250.25,-830.5 -2250.25,-830.5z"></path><path stroke-linecap="butt" stroke-linejoin="miter" fill-opacity="0" stroke-miterlimit="4" stroke="rgb(107,204,249)" stroke-opacity="1" stroke-width="0" d=" M-2250.25,-830.5 C-2250.25,-830.5 -2243.25,-794.75 -2243.25,-794.75 C-2243.25,-794.75 -2201,-790.5 -2201,-790.5 C-2201,-790.5 -2208,-826 -2208,-826 C-2208,-826 -2250.25,-830.5 -2250.25,-830.5z"></path></g><g opacity="1" transform="matrix(1,0,0,1,0,0)"><path fill="rgb(217,71,172)" fill-opacity="1" d=" M-2302.25,-836.5 C-2302.25,-836.5 -2295,-799.25 -2295,-799.25 C-2295,-799.25 -2254.56201171875,-795.625 -2254.56201171875,-795.625 C-2254.56201171875,-795.625 -2262,-832 -2262,-832 C-2262,-832 -2302.25,-836.5 -2302.25,-836.5z"></path><path stroke-linecap="butt" stroke-linejoin="miter" fill-opacity="0" stroke-miterlimit="4" stroke="rgb(107,204,249)" stroke-opacity="1" stroke-width="0" d=" M-2302.25,-836.5 C-2302.25,-836.5 -2295,-799.25 -2295,-799.25 C-2295,-799.25 -2254.56201171875,-795.625 -2254.56201171875,-795.625 C-2254.56201171875,-795.625 -2262,-832 -2262,-832 C-2262,-832 -2302.25,-836.5 -2302.25,-836.5z"></path></g></g><g transform="matrix(0.9180511832237244,0.3964619040489197,-0.3964619040489197,0.9180511832237244,2540.58984375,3072.8125)" opacity="1" style="display: block;"><g opacity="1" transform="matrix(1,0,0,1,0,0)"><path fill="rgb(154,117,217)" fill-opacity="1" d=" M-2089.68994140625,-891.9821166992188 C-2089.68994140625,-891.9821166992188 -1983.236328125,-928.9249877929688 -1983.236328125,-928.9249877929688 C-1983.236328125,-928.9249877929688 -1982.5382080078125,-1045.6226806640625 -1982.5382080078125,-1045.6226806640625 C-1982.5382080078125,-1045.6226806640625 -2011.659912109375,-1072.5635986328125 -2011.659912109375,-1072.5635986328125 C-2011.659912109375,-1072.5635986328125 -2123.41357421875,-911.3824462890625 -2123.41357421875,-911.3824462890625 C-2123.41357421875,-911.3824462890625 -2089.68994140625,-891.9821166992188 -2089.68994140625,-891.9821166992188z"></path><path stroke-linecap="round" stroke-linejoin="round" fill-opacity="0" stroke="rgb(154,117,217)" stroke-opacity="1" stroke-width="30" d=" M-2089.68994140625,-891.9821166992188 C-2089.68994140625,-891.9821166992188 -1983.236328125,-928.9249877929688 -1983.236328125,-928.9249877929688 C-1983.236328125,-928.9249877929688 -1982.5382080078125,-1045.6226806640625 -1982.5382080078125,-1045.6226806640625 C-1982.5382080078125,-1045.6226806640625 -2011.659912109375,-1072.5635986328125 -2011.659912109375,-1072.5635986328125 C-2011.659912109375,-1072.5635986328125 -2123.41357421875,-911.3824462890625 -2123.41357421875,-911.3824462890625 C-2123.41357421875,-911.3824462890625 -2089.68994140625,-891.9821166992188 -2089.68994140625,-891.9821166992188z"></path></g></g><g transform="matrix(0.8367385268211365,0.36134690046310425,-0.414019376039505,0.9587074518203735,2354.691162109375,3040.564453125)" opacity="1" style="display: block;"><g opacity="1" transform="matrix(1,0,0,1,0,0)"><path fill="rgb(194,158,255)" fill-opacity="1" d=" M-2132.739990234375,-922.9140014648438 C-2132.739990234375,-922.9140014648438 -2014.1319580078125,-961.052978515625 -2014.1319580078125,-961.052978515625 C-2014.1319580078125,-961.052978515625 -2009.697021484375,-1068.5389404296875 -2009.697021484375,-1068.5389404296875 C-2009.697021484375,-1068.5389404296875 -2128.406005859375,-1027.6209716796875 -2128.406005859375,-1027.6209716796875 C-2128.406005859375,-1027.6209716796875 -2132.739990234375,-922.9140014648438 -2132.739990234375,-922.9140014648438z"></path><path stroke-linecap="round" stroke-linejoin="round" fill-opacity="0" stroke="rgb(194,158,255)" stroke-opacity="1" stroke-width="30" d=" M-2132.739990234375,-922.9140014648438 C-2132.739990234375,-922.9140014648438 -2014.1319580078125,-961.052978515625 -2014.1319580078125,-961.052978515625 C-2014.1319580078125,-961.052978515625 -2009.697021484375,-1068.5389404296875 -2009.697021484375,-1068.5389404296875 C-2009.697021484375,-1068.5389404296875 -2128.406005859375,-1027.6209716796875 -2128.406005859375,-1027.6209716796875 C-2128.406005859375,-1027.6209716796875 -2132.739990234375,-922.9140014648438 -2132.739990234375,-922.9140014648438z"></path></g><g opacity="1" transform="matrix(1,0,0,1,0,0)"><path fill="rgb(255,255,255)" fill-opacity="1" d=" M-2051.75,-1041.25 C-2059.031005859375,-1031.8270263671875 -2068,-1032.5 -2076.75,-1033 C-2085.5,-1033.5 -2091.25,-1029.5 -2098,-1023 C-2104.75,-1016.5 -2097.5,-1010.25 -2091.75,-1016 C-2087.873046875,-1019.8770141601562 -2084.947998046875,-1024.447021484375 -2078.75,-1023.5 C-2060.75,-1020.75 -2050.176025390625,-1026.738037109375 -2043.75,-1035 C-2038.5,-1041.75 -2047.5,-1046.75 -2051.75,-1041.25z"></path><path stroke-linecap="butt" stroke-linejoin="miter" fill-opacity="0" stroke-miterlimit="4" stroke="rgb(34,168,130)" stroke-opacity="1" stroke-width="0" d=" M-2051.75,-1041.25 C-2059.031005859375,-1031.8270263671875 -2068,-1032.5 -2076.75,-1033 C-2085.5,-1033.5 -2091.25,-1029.5 -2098,-1023 C-2104.75,-1016.5 -2097.5,-1010.25 -2091.75,-1016 C-2087.873046875,-1019.8770141601562 -2084.947998046875,-1024.447021484375 -2078.75,-1023.5 C-2060.75,-1020.75 -2050.176025390625,-1026.738037109375 -2043.75,-1035 C-2038.5,-1041.75 -2047.5,-1046.75 -2051.75,-1041.25z"></path></g><g opacity="1" transform="matrix(1,0,0,1,0,0)"><path fill="rgb(255,255,255)" fill-opacity="1" d=" M-2059.25,-1011.75 C-2076.751953125,-1012.7050170898438 -2086.75,-1000.75 -2090.25,-997.5 C-2089.5,-1007.25 -2100,-1003.75 -2100.5,-995.75 C-2100.968994140625,-988.2479858398438 -2102,-961.25 -2102,-954.75 C-2102,-946.5 -2090.75,-952.75 -2090.75,-959.25 C-2090.75,-962.5 -2090.75,-977 -2090.75,-981.75 C-2090.75,-988 -2085.75,-996.25 -2073,-1001.5 C-2061.81689453125,-1006.10498046875 -2054.5,-999 -2054.5,-994.25 C-2054.5,-989.5 -2054.625,-976.06201171875 -2054.625,-970.06201171875 C-2054.625,-961.31201171875 -2043.75,-966.5 -2043.75,-973.5 C-2043.75,-978 -2043.75,-989 -2043.75,-995.5 C-2043.75,-1000.7559814453125 -2045.5,-1011 -2059.25,-1011.75z"></path><path stroke-linecap="butt" stroke-linejoin="miter" fill-opacity="0" stroke-miterlimit="4" stroke="rgb(34,168,130)" stroke-opacity="1" stroke-width="0" d=" M-2059.25,-1011.75 C-2076.751953125,-1012.7050170898438 -2086.75,-1000.75 -2090.25,-997.5 C-2089.5,-1007.25 -2100,-1003.75 -2100.5,-995.75 C-2100.968994140625,-988.2479858398438 -2102,-961.25 -2102,-954.75 C-2102,-946.5 -2090.75,-952.75 -2090.75,-959.25 C-2090.75,-962.5 -2090.75,-977 -2090.75,-981.75 C-2090.75,-988 -2085.75,-996.25 -2073,-1001.5 C-2061.81689453125,-1006.10498046875 -2054.5,-999 -2054.5,-994.25 C-2054.5,-989.5 -2054.625,-976.06201171875 -2054.625,-970.06201171875 C-2054.625,-961.31201171875 -2043.75,-966.5 -2043.75,-973.5 C-2043.75,-978 -2043.75,-989 -2043.75,-995.5 C-2043.75,-1000.7559814453125 -2045.5,-1011 -2059.25,-1011.75z"></path></g></g><g clip-path="url(#__lottie_element_25170)" transform="matrix(0.5807017087936401,0.8141164183616638,-0.8141164183616638,0.5807017087936401,1635.7681884765625,-1069.769775390625)" opacity="1" style="display: block;"><g mask="url(#__lottie_element_25179_1)" style="display: block;"><g transform="matrix(1,0,0,1,2823,1445)" opacity="1"><g opacity="1" transform="matrix(1,0,0,1,0,0)"><path fill="rgb(212,152,0)" fill-opacity="1" d=" M-602.0215454101562,-672.4683227539062 C-604.9888916015625,-681.33203125 -613.9982299804688,-682.2459106445312 -619.3604125976562,-673.7818603515625 C-631.8936157226562,-654.2196655273438 -692.3733520507812,-564.9081420898438 -692.3733520507812,-564.9081420898438 C-692.3733520507812,-564.9081420898438 -559.40576171875,-550.4329833984375 -559.40576171875,-550.4329833984375 C-559.40576171875,-550.4329833984375 -597.7147216796875,-659.5619506835938 -602.0215454101562,-672.4683227539062z"></path></g><g opacity="1" transform="matrix(1,0,0,1,0,0)"><path fill="rgb(212,152,0)" fill-opacity="1" d=" M-668.9235229492188,-675.3861083984375 C-673.418701171875,-684.5232543945312 -683.87744140625,-684.05908203125 -685.05517578125,-674.0242309570312 C-687.5339965820312,-651.9226684570312 -697.2603149414062,-561.9431762695312 -697.2603149414062,-561.9431762695312 C-697.2603149414062,-561.9431762695312 -597.4725341796875,-544.3402709960938 -597.4725341796875,-544.3402709960938 C-597.4725341796875,-544.3402709960938 -663.9318237304688,-665.4281005859375 -668.9235229492188,-675.3861083984375z"></path></g><g opacity="1" transform="matrix(1,0,0,1,0,0)"><path fill="rgb(212,152,0)" fill-opacity="1" d=" M-711.07568359375,-687.4429321289062 C-714.3251342773438,-698.185791015625 -719.6495971679688,-696.5315551757812 -717.0949096679688,-683.8163452148438 C-712.0949096679688,-658.879638671875 -696.1327514648438,-584.9137573242188 -696.1327514648438,-584.9137573242188 C-696.1327514648438,-584.9137573242188 -671.207763671875,-577.8628540039062 -671.207763671875,-577.8628540039062 C-671.207763671875,-577.8628540039062 -707.6280517578125,-674.6375732421875 -711.07568359375,-687.4429321289062z"></path></g><g opacity="1" transform="matrix(1,0,0,1,0,0)"><path fill="rgb(212,152,0)" fill-opacity="1" d=" M-543.8885498046875,-679.0891723632812 C-541.4190063476562,-690.0206298828125 -553.5963134765625,-693.7587890625 -559.9868774414062,-685.1537475585938 C-577.8970336914062,-661.0685424804688 -649.2318725585938,-554.8416137695312 -649.2318725585938,-554.8416137695312 C-649.2318725585938,-554.8416137695312 -570.0912475585938,-559.3114624023438 -570.0912475585938,-559.3114624023438 C-570.0912475585938,-559.3114624023438 -548.1051635742188,-660.6668701171875 -543.8885498046875,-679.0891723632812z"></path></g><g opacity="1" transform="matrix(1,0,0,1,0,0)"><path fill="rgb(212,152,0)" fill-opacity="1" d=" M-714,-665.5 C-726.0029907226562,-689.322021484375 -715,-572.5 -715,-572.5 C-715,-572.5 -548,-555.5 -548,-555.5 C-548,-555.5 -533.3670043945312,-690.6160278320312 -544.5,-664 C-576.5,-587.5 -681.5,-601 -714,-665.5z"></path></g></g></g><g mask="url(#__lottie_element_25173_1)" style="display: block;"><g transform="matrix(1,0,0,1,2823,1445)" opacity="1"><g opacity="1" transform="matrix(1,0,0,1,0,0)"><path fill="rgb(255,200,0)" fill-opacity="1" d=" M-636.7186889648438,-743.2880249023438 C-642.7147827148438,-752.8474731445312 -651.1520385742188,-751.87158203125 -656.1921997070312,-740.45263671875 C-667.07373046875,-716.2760620117188 -720.6770629882812,-596.8296508789062 -720.6770629882812,-596.8296508789062 C-720.6770629882812,-596.8296508789062 -558.538818359375,-614.56640625 -558.538818359375,-614.56640625 C-558.538818359375,-614.56640625 -626.531005859375,-727.0468139648438 -636.7186889648438,-743.2880249023438z"></path></g><g opacity="1" transform="matrix(1,0,0,1,0,0)"><path fill="rgb(255,200,0)" fill-opacity="1" d=" M-558.1051635742188,-725.4276733398438 C-560.3062133789062,-736.0547485351562 -567.847900390625,-738.6143188476562 -574.5499267578125,-730.2113037109375 C-591.2972412109375,-709.218994140625 -674.64111328125,-613.0728149414062 -674.64111328125,-613.0728149414062 C-674.64111328125,-613.0728149414062 -534.4087524414062,-586.9025268554688 -534.4087524414062,-586.9025268554688 C-534.4087524414062,-586.9025268554688 -554.3658447265625,-707.3724365234375 -558.1051635742188,-725.4276733398438z"></path></g><g opacity="1" transform="matrix(1,0,0,1,0,0)"><path fill="rgb(255,200,0)" fill-opacity="1" d=" M-536.9751586914062,-695.909912109375 C-534.2462158203125,-706.8948974609375 -538.8346557617188,-708.5957641601562 -543.2445068359375,-699.0911254882812 C-555.4212036132812,-670.8833618164062 -594.977783203125,-584.8419799804688 -594.977783203125,-584.8419799804688 C-594.977783203125,-584.8419799804688 -570.5419921875,-559.6859741210938 -570.5419921875,-559.6859741210938 C-570.5419921875,-559.6859741210938 -541.6121826171875,-677.2459106445312 -536.9751586914062,-695.909912109375z"></path></g><g opacity="1" transform="matrix(1,0,0,1,0,0)"><path fill="rgb(255,200,0)" fill-opacity="1" d=" M-702.0673828125,-707.3798217773438 C-709.4090576171875,-715.9906005859375 -721.1673583984375,-712.2218627929688 -718.7293090820312,-698.607421875 C-714.4276733398438,-674.0911254882812 -701.7118530273438,-606.1336669921875 -701.7118530273438,-606.1336669921875 C-701.7118530273438,-606.1336669921875 -657.7181396484375,-654.6694946289062 -657.7181396484375,-654.6694946289062 C-657.7181396484375,-654.6694946289062 -695.6017456054688,-699.718505859375 -702.0673828125,-707.3798217773438z"></path></g></g></g></g><g transform="matrix(1,0,0,1,-217,-123.70703125)" opacity="1" style="display: block;"><g opacity="1" transform="matrix(0.7200000286102295,0,0,0.7200000286102295,2903.88427734375,1407.306640625)"><g opacity="1" transform="matrix(1,0,0,1,0,0)"><path fill="rgb(92,108,252)" fill-opacity="1" d=" M437,-431 C437,-431 399,-603 399,-603 C399,-603 361.9739990234375,-609.6599731445312 361.9739990234375,-609.6599731445312 C361.9739990234375,-609.6599731445312 182.76499938964844,-555.7150268554688 182.76499938964844,-555.7150268554688 C182.76499938964844,-555.7150268554688 214.5,-388.5 214.5,-388.5 C214.5,-388.5 241.5,-375 241.5,-375 C241.5,-375 437,-431 437,-431z"></path><path stroke-linecap="round" stroke-linejoin="round" fill-opacity="0" stroke="rgb(92,108,252)" stroke-opacity="1" stroke-width="70" d=" M437,-431 C437,-431 399,-603 399,-603 C399,-603 361.9739990234375,-609.6599731445312 361.9739990234375,-609.6599731445312 C361.9739990234375,-609.6599731445312 182.76499938964844,-555.7150268554688 182.76499938964844,-555.7150268554688 C182.76499938964844,-555.7150268554688 214.5,-388.5 214.5,-388.5 C214.5,-388.5 241.5,-375 241.5,-375 C241.5,-375 437,-431 437,-431z"></path></g></g><g opacity="1" transform="matrix(0.7919999957084656,0,0,0.7200000286102295,2882.10400390625,1407.3070068359375)"><g opacity="1" transform="matrix(1,0,0,1,0,0)"><path fill="rgb(215,217,254)" fill-opacity="1" d=" M319.5,-470.5 C318.5,-468.25 314,-460.5 312.5,-457.75 C311,-455 312.75,-454.25 314.25,-454.5 C315.75,-454.75 320.25,-455.5 322,-456 C323.75,-456.5 325,-458.5 324.75,-460.5 C324.5,-462.5 323.5,-467.5 322.75,-470 C322,-472.5 320.5,-472.75 319.5,-470.5z"></path></g><g opacity="1" transform="matrix(1,0,0,1,0,0)"><path fill="rgb(140,135,241)" fill-opacity="1" d=" M391,-602 C391,-602 223,-544 223,-544 C223,-544 254,-373 254,-373 C254,-373 422,-428 422,-428 C422,-428 391,-602 391,-602z"></path><path stroke-linecap="round" stroke-linejoin="round" fill-opacity="0" stroke="rgb(140,135,241)" stroke-opacity="1" stroke-width="70" d=" M391,-602 C391,-602 223,-544 223,-544 C223,-544 254,-373 254,-373 C254,-373 422,-428 422,-428 C422,-428 391,-602 391,-602z"></path></g><g opacity="1" transform="matrix(1,0,0,1,0,0)"><path fill="rgb(148,143,245)" fill-opacity="1" d=" M303,-583.75 C277.25,-576.5 282,-543.75 282,-543.75 C282,-543.75 235.75,-538 236.75,-486.25 C230.5,-479.75 226.25,-466 232.5,-452.5 C236.11700439453125,-444.68701171875 255.25,-406.25 260.75,-395.25 C266.25,-384.25 276,-377.75 288.75,-381.75 C301.5,-385.75 367.75,-406.5 383,-411.25 C398.25,-416 403,-431 404,-439 C405,-447 409.25,-485.5 410.5,-504.5 C411.75,-523.5 404.75,-533.5 394.25,-537.25 C380.25,-582.75 335.5,-561 335.5,-561 C335.5,-561 329.6449890136719,-591.2520141601562 303,-583.75z"></path></g><g opacity="1" transform="matrix(1,0,0,1,0,0)"><path fill="rgb(255,254,254)" fill-opacity="1" d=" M304.59600830078125,-577.3519897460938 C287.5820007324219,-572.2219848632812 283.75,-553.75 290.19000244140625,-539.0910034179688 C265.5,-532.5 242.25,-526.25 243.2030029296875,-484.82598876953125 C237.5760040283203,-478.9739990234375 232.75,-467.0950012207031 238.3769989013672,-454.9410095214844 C241.63299560546875,-447.9070129394531 260.1080017089844,-409.3039855957031 265.0589904785156,-399.4010009765625 C270.010009765625,-389.49798583984375 277.78900146484375,-385.14599609375 289.2669982910156,-388.74700927734375 C300.7449951171875,-392.3479919433594 367.88800048828125,-413.52899169921875 381.61700439453125,-417.80499267578125 C395.34600830078125,-422.08099365234375 397.62298583984375,-435.58599853515625 398.52301025390625,-442.7879943847656 C399.4230041503906,-449.989990234375 403,-486.6499938964844 404.125,-503.7550048828125 C405.25,-520.8599853515625 399.447998046875,-528.1129760742188 389.9949951171875,-531.489013671875 C378.25,-573 346,-557.75 330.60400390625,-552.3709716796875 C331.25,-566.25 322.5,-582.75 304.59600830078125,-577.3519897460938z"></path></g><g opacity="1" transform="matrix(1,0,0,1,0,0)"><path fill="rgb(167,160,255)" fill-opacity="1" d=" M306.5,-565.5 C299.75,-563.75 296.25,-556.5 297.25,-549.25 C297.98699951171875,-543.9039916992188 302.5,-537 310.75,-539.5 C319,-542 320.75,-550.25 319.75,-555.75 C318.75,-561.25 313.25,-567.25 306.5,-565.5z"></path></g><g opacity="1" transform="matrix(1,0,0,1,0,0)"><path fill="rgb(92,108,252)" fill-opacity="1" d=" M353.25,-546.75 C337.5,-542.5 295.62200927734375,-528.3590087890625 274.5,-522 C251.25,-515 248.5,-489.75 258.75,-468.5 C266.4949951171875,-452.4429931640625 306.5,-461.5 323.75,-465 C341,-468.5 381,-490 382,-513.5 C383,-537 369,-551 353.25,-546.75z"></path></g><g opacity="1" transform="matrix(1,0,0,1,0,0)"><path fill="rgb(167,160,255)" fill-opacity="1" d=" M324,-520 C318,-525 311.5,-524.25 307.25,-516.25 C303,-508.25 281.5,-467.75 281.5,-467.75 C281.5,-467.75 267.75,-473.5 259.5,-477.25 C251.25,-481 242.5,-472 247,-461.75 C251.05099487304688,-452.5220031738281 269.8420104980469,-415.0350036621094 272.75,-408.25 C275.75,-401.25 279.5,-397.75 289.5,-400.75 C299.5,-403.75 368,-425.75 377.25,-428.75 C386.5,-431.75 387.5,-436.5 388.5,-443.25 C389.5,-450 393.5,-498 394,-509.5 C394.5,-521 383.25,-522.5 378.5,-515.75 C375.62298583984375,-511.6610107421875 361.25,-493 361.25,-493 C361.25,-493 328.95599365234375,-515.8699951171875 324,-520z"></path></g><g opacity="1" transform="matrix(1,0,0,1,0,0)"><path fill="rgb(191,175,255)" fill-opacity="1" d=" M298,-477.5 C294.5,-471.25 289.25,-462.5 284.75,-454.5 C276,-460 269.75,-455.25 273,-447.25 C275.114990234375,-442.0450134277344 284.75,-420 285.75,-417.5 C286.75,-415 288,-412.25 292.25,-413.5 C296.5,-414.75 302.5,-416.75 309.5,-419 C313.19500732421875,-420.18798828125 314,-422.75 313.5,-427.5 C313,-432.25 308,-470 307.25,-475.75 C306.5,-481.5 301.5,-483.75 298,-477.5z"></path></g><g opacity="1" transform="matrix(1,0,0,1,0,0)"><path fill="rgb(175,181,255)" fill-opacity="1" d=" M378,-495.25 C373.25,-489.75 370.5,-486.5 370,-477.5 C369.5,-468.5 368.25,-449 368,-444.5 C367.75,-440 369.5,-438.5 375.25,-440 C381,-441.5 382,-442.75 382.25,-447.75 C382.625,-455.2569885253906 385.25,-487 385.75,-493.25 C386.25,-499.5 382.75,-500.75 378,-495.25z"></path></g><g opacity="1" transform="matrix(1,0,0,1,0,0)"><path fill="rgb(92,108,252)" fill-opacity="1" d=" M326.75,-478.5 C322.5,-481 321,-480.75 318.5,-477 C316,-473.25 310,-461.75 307.5,-457.5 C305,-453.25 306.75,-450.25 309.75,-448 C312.75,-445.75 320.25,-440.25 323.75,-437.75 C327.25,-435.25 330.75,-435.75 332.75,-439 C334.75,-442.25 341.75,-456 343.25,-459 C344.75,-462 344,-465.5 341.75,-467.25 C339.5,-469 331,-476 326.75,-478.5z"></path></g></g></g><g transform="matrix(1,0,0,1,2766,1480.2078857421875)" opacity="1" style="display: block;"><g opacity="1" transform="matrix(1,0,0,1,0,0)"><path fill="url(#__lottie_element_25165)" fill-opacity="1" d=" M661.25,481.5 C647.8519897460938,501.47601318359375 659,527.75 671.25,538.25 C683.5,548.75 710.5,572 715.75,576.75 C721,581.5 726.5,584.75 736.5,579.75 C746.5,574.75 770.27001953125,561.7379760742188 785.5,553 C800.75,544.25 814.8759765625,525.5440063476562 806,500.5 C792,461 742,470 733.5,484.5 C709.75,452.75 675,461 661.25,481.5z"></path><path stroke-linecap="butt" stroke-linejoin="miter" fill-opacity="0" stroke-miterlimit="4" stroke="rgb(255,255,255)" stroke-opacity="1" stroke-width="0" d=" M661.25,481.5 C647.8519897460938,501.47601318359375 659,527.75 671.25,538.25 C683.5,548.75 710.5,572 715.75,576.75 C721,581.5 726.5,584.75 736.5,579.75 C746.5,574.75 770.27001953125,561.7379760742188 785.5,553 C800.75,544.25 814.8759765625,525.5440063476562 806,500.5 C792,461 742,470 733.5,484.5 C709.75,452.75 675,461 661.25,481.5z"></path></g><g opacity="1" transform="matrix(1,0,0,1,0,0)"><path fill="rgb(250,134,151)" fill-opacity="1" d=" M772,483.25 C762.75,484.75 760.5,493.5 762.75,501.75 C765,510 770.25,515.5 778.5,515 C786.75,514.5 789.5,507.5 789.75,498.25 C790,489 781.25,481.75 772,483.25z"></path><path stroke-linecap="butt" stroke-linejoin="miter" fill-opacity="0" stroke-miterlimit="4" stroke="rgb(255,255,255)" stroke-opacity="1" stroke-width="0" d=" M772,483.25 C762.75,484.75 760.5,493.5 762.75,501.75 C765,510 770.25,515.5 778.5,515 C786.75,514.5 789.5,507.5 789.75,498.25 C790,489 781.25,481.75 772,483.25z"></path></g></g></g></svg>