<svg xmlns="http://www.w3.org/2000/svg" xmlns:xlink="http://www.w3.org/1999/xlink" viewBox="0 0 1920 1060" width="1920" height="1060" preserveAspectRatio="xMidYMid meet" style="width: 100%; height: 100%; transform: translate3d(0px, 0px, 0px); content-visibility: visible;"><defs><clipPath id="__lottie_element_25976"><rect width="1920" height="1060" x="0" y="0"></rect></clipPath><g id="__lottie_element_26031"><g transform="matrix(1.3333278894424438,-0.002405833685770631,0.002405833685770631,1.3333278894424438,-1.146636962890625,-4.991635799407959)" opacity="1" style="display: block;"><g opacity="1" transform="matrix(1,0,0,1,315.843994140625,401.0889892578125)"><path stroke-linecap="butt" stroke-linejoin="round" fill-opacity="0" stroke="rgb(252,201,14)" stroke-opacity="1" stroke-width="7.29" d=" M23.541000366210938,38.167999267578125 C21.436431884765625,40.36138153076172 17.27153205871582,40.9378776550293 14.63700008392334,39.43000030517578 C14.63700008392334,39.43000030517578 -49.79499816894531,2.194000005722046 -49.79499816894531,2.194000005722046 C-53.891998291015625,-0.17399999499320984 -54.585018157958984,-5.561767578125 -51.3060188293457,-8.973767280578613 C-51.3060188293457,-8.973767280578613 -23.552371978759766,-36.39162063598633 -23.552371978759766,-36.39162063598633 C-21.171512603759766,-38.73320007324219 -17.493328094482422,-39.03986358642578 -14.58832836151123,-37.360862731933594 C-14.58832836151123,-37.360862731933594 49.86532211303711,0.021333029493689537 49.86532211303711,0.021333029493689537 C53.96232223510742,2.3883330821990967 54.62059020996094,7.928210735321045 51.34049987792969,11.110772132873535 C51.34049987792969,11.110772132873535 23.541000366210938,38.167999267578125 23.541000366210938,38.167999267578125z"></path></g></g></g><mask id="__lottie_element_26031_1" mask-type="alpha"><use xlink:href="#__lottie_element_26031"></use></mask></defs><g clip-path="url(#__lottie_element_25976)"><g transform="matrix(1.3333300352096558,0,0,1.3333300352096558,0.002685546875,-5.33154296875)" opacity="1" style="display: block;"><g opacity="1" transform="matrix(1,0,0,1,720,629.1859741210938)"><path fill="rgb(88,204,2)" fill-opacity="1" d=" M-181.02200317382812,48.571998596191406 C-195.1540069580078,31.729999542236328 -208.6300048828125,15.668000221252441 -231.33200073242188,5.164999961853027 C-265.36700439453125,-10.583000183105469 -290.6369934082031,-12.109000205993652 -313.65899658203125,-13.498000144958496 C-337.5140075683594,-14.939000129699707 -358.9570007324219,-16.232999801635742 -385.239990234375,-33.05400085449219 C-414.2900085449219,-51.645999908447266 -426.0199890136719,-69.25800323486328 -438.07598876953125,-87.36100006103516 C-447.4530029296875,-101.44100189208984 -457.02801513671875,-115.81800079345703 -475.1050109863281,-131.18299865722656 C-508.5409851074219,-159.60400390625 -543.2780151367188,-169.4010009765625 -584.5960083007812,-169.4010009765625 C-584.5960083007812,-169.4010009765625 -721.9760131835938,-169.4010009765625 -721.9760131835938,-169.4010009765625 C-721.9760131835938,-169.4010009765625 -721.9760131835938,169.4010009765625 -721.9760131835938,169.4010009765625 C-721.9760131835938,169.4010009765625 720,169.4010009765625 720,169.4010009765625 C720,169.4010009765625 720,-169.4010009765625 720,-169.4010009765625 C720,-169.4010009765625 582.6199951171875,-169.4010009765625 582.6199951171875,-169.4010009765625 C541.2999877929688,-169.4010009765625 506.57000732421875,-159.60400390625 473.1300048828125,-131.18299865722656 C455.04998779296875,-115.81800079345703 445.4800109863281,-101.44100189208984 436.1000061035156,-87.36100006103516 C424.0400085449219,-69.25900268554688 412.30999755859375,-51.645999908447266 383.260009765625,-33.05400085449219 C356.9800109863281,-16.232999801635742 335.5400085449219,-14.939000129699707 311.67999267578125,-13.498000144958496 C288.6600036621094,-12.109000205993652 263.3909912109375,-10.583000183105469 229.3560028076172,5.164999961853027 C206.6540069580078,15.668000221252441 193.17799377441406,31.729999542236328 179.04600524902344,48.571998596191406 C150.0959930419922,83.0739974975586 118.39700317382812,120.85299682617188 -0.9879999756813049,120.85299682617188 C-120.37300109863281,120.85299682617188 -152.07200622558594,83.0739974975586 -181.02200317382812,48.571998596191406z"></path></g></g><g transform="matrix(1.355189323425293,0,0,1.355189323425293,-6.18341064453125,-18.39630126953125)" opacity="0.9583631278964105" style="display: block;"><g opacity="1" transform="matrix(1,0,0,1,282.9599914550781,597.7470092773438)"><path fill="rgb(80,164,99)" fill-opacity="1" d=" M-21.833999633789062,1.1859999895095825 C-21.833999633789062,1.1859999895095825 13.961000442504883,13.963000297546387 13.961000442504883,13.963000297546387 C15.590999603271484,14.545000076293945 17.354000091552734,14.645000457763672 19.038999557495117,14.25 C19.038999557495117,14.25 26.893999099731445,12.41100025177002 26.893999099731445,12.41100025177002 C28.93899917602539,11.932000160217285 29.871000289916992,9.555000305175781 28.69700050354004,7.813000202178955 C28.69700050354004,7.813000202178955 23.211000442504883,-0.32600000500679016 23.211000442504883,-0.32600000500679016 C22.732999801635742,-1.034999966621399 22.041000366210938,-1.5720000267028809 21.235000610351562,-1.8589999675750732 C21.235000610351562,-1.8589999675750732 -13.977999687194824,-14.38599967956543 -13.977999687194824,-14.38599967956543 C-14.493000030517578,-14.569999694824219 -15.039999961853027,-14.645000457763672 -15.586000442504883,-14.609000205993652 C-15.586000442504883,-14.609000205993652 -26.59000015258789,-13.871000289916992 -26.59000015258789,-13.871000289916992 C-28.562000274658203,-13.73900032043457 -29.871000289916992,-11.772000312805176 -29.226999282836914,-9.902999877929688 C-29.226999282836914,-9.902999877929688 -27.316999435424805,-4.359000205993652 -27.316999435424805,-4.359000205993652 C-26.427000045776367,-1.7730000019073486 -24.409000396728516,0.2669999897480011 -21.833999633789062,1.1859999895095825z"></path></g></g><g transform="matrix(1.3333300352096558,0,0,1.3333300352096558,0.00238037109375,-5.33184814453125)" opacity="1" style="display: block;"><g opacity="1" transform="matrix(1,0,0,1,720.0150146484375,642.8909912109375)"><path fill="rgb(93,173,0)" fill-opacity="1" d=" M-112.93499755859375,-15.895999908447266 C-112.93499755859375,-15.895999908447266 -102.16899871826172,4.705999851226807 -102.16899871826172,4.705999851226807 C-97.51300048828125,13.616000175476074 -88.29199981689453,19.201000213623047 -78.23899841308594,19.201000213623047 C-78.23899841308594,19.201000213623047 78.23899841308594,19.201000213623047 78.23899841308594,19.201000213623047 C88.29199981689453,19.201000213623047 97.51300048828125,13.616000175476074 102.16899871826172,4.705999851226807 C102.16899871826172,4.705999851226807 112.93499755859375,-15.895999908447266 112.93499755859375,-15.895999908447266 C112.93499755859375,-15.895999908447266 3.8540000915527344,-18.983999252319336 3.8540000915527344,-18.983999252319336 C3.8540000915527344,-18.983999252319336 3.8540000915527344,-19.20199966430664 3.8540000915527344,-19.20199966430664 C3.8540000915527344,-19.20199966430664 0,-19.093000411987305 0,-19.093000411987305 C0,-19.093000411987305 -3.8540000915527344,-19.20199966430664 -3.8540000915527344,-19.20199966430664 C-3.8540000915527344,-19.20199966430664 -3.8540000915527344,-18.983999252319336 -3.8540000915527344,-18.983999252319336 C-3.8540000915527344,-18.983999252319336 -112.93499755859375,-15.895999908447266 -112.93499755859375,-15.895999908447266z"></path></g></g><g transform="matrix(1.3333300352096558,0,0,1.3333300352096558,0.00238037109375,-5.33135986328125)" opacity="1" style="display: block;"><g opacity="1" transform="matrix(1,0,0,1,720,507.5669860839844)"><path fill="rgb(120,200,0)" fill-opacity="1" d=" M-80.74800109863281,139.3090057373047 C-80.74800109863281,139.3090057373047 80.74800109863281,139.3090057373047 80.74800109863281,139.3090057373047 C102.6729965209961,139.3090057373047 119.50700378417969,119.875 116.37999725341797,98.17400360107422 C116.37999725341797,98.17400360107422 85.49099731445312,-116.16100311279297 85.49099731445312,-116.16100311279297 C83.5770034790039,-129.44700622558594 72.19100189208984,-139.3090057373047 58.766998291015625,-139.3090057373047 C58.766998291015625,-139.3090057373047 -58.766998291015625,-139.3090057373047 -58.766998291015625,-139.3090057373047 C-72.19100189208984,-139.3090057373047 -83.5770034790039,-129.44700622558594 -85.49099731445312,-116.16100311279297 C-85.49099731445312,-116.16100311279297 -116.37999725341797,98.17400360107422 -116.37999725341797,98.17400360107422 C-119.50700378417969,119.875 -102.6729965209961,139.3090057373047 -80.74800109863281,139.3090057373047z"></path></g></g><g transform="matrix(1.3333300352096558,0,0,1.3333300352096558,0.00238037109375,-5.33135986328125)" opacity="1" style="display: block;"><g opacity="1" transform="matrix(1,0,0,1,720,507.5669860839844)"><path fill="rgb(255,255,255)" fill-opacity="1" d=" M111.9260025024414,98.81500244140625 C114.66200256347656,117.80400085449219 99.93299865722656,134.8090057373047 80.74800109863281,134.8090057373047 C80.74800109863281,134.8090057373047 -80.74800109863281,134.8090057373047 -80.74800109863281,134.8090057373047 C-99.93299865722656,134.8090057373047 -114.66200256347656,117.80400085449219 -111.9260025024414,98.81500244140625 C-111.9260025024414,98.81500244140625 -81.03700256347656,-115.51899719238281 -81.03700256347656,-115.51899719238281 C-79.44200134277344,-126.59100341796875 -69.9540023803711,-134.8090057373047 -58.766998291015625,-134.8090057373047 C-58.766998291015625,-134.8090057373047 58.766998291015625,-134.8090057373047 58.766998291015625,-134.8090057373047 C69.9540023803711,-134.8090057373047 79.44200134277344,-126.59100341796875 81.03700256347656,-115.51899719238281 C81.03700256347656,-115.51899719238281 111.9260025024414,98.81500244140625 111.9260025024414,98.81500244140625z"></path></g></g><g transform="matrix(1.3333300352096558,0,0,1.3333300352096558,0.00238037109375,-5.332733154296875)" opacity="1" style="display: block;"><g opacity="1" transform="matrix(1,0,0,1,720,382.60198974609375)"><path fill="rgb(164,243,79)" fill-opacity="1" d=" M81.09500122070312,9.843999862670898 C81.09500122070312,9.843999862670898 -81.09500122070312,9.843999862670898 -81.09500122070312,9.843999862670898 C-81.09500122070312,9.843999862670898 -81.03700256347656,9.446999549865723 -81.03700256347656,9.446999549865723 C-79.44200134277344,-1.625 -69.9540023803711,-9.843999862670898 -58.766998291015625,-9.843999862670898 C-58.766998291015625,-9.843999862670898 58.766998291015625,-9.843999862670898 58.766998291015625,-9.843999862670898 C69.9540023803711,-9.843999862670898 79.44200134277344,-1.625 81.03700256347656,9.446999549865723 C81.03700256347656,9.446999549865723 81.09500122070312,9.843999862670898 81.09500122070312,9.843999862670898z"></path></g></g><g transform="matrix(1.3333300352096558,0,0,1.3333300352096558,0.0035400390625,-36.930023193359375)" opacity="1" style="display: block;"><g opacity="1" transform="matrix(1,0,0,1,956.6640014648438,395.55499267578125)"><path fill="rgb(255,150,0)" fill-opacity="1" d=" M-20.812999725341797,-27.492000579833984 C-20.812999725341797,-27.492000579833984 -0.6492515206336975,-43.215858459472656 -0.6492515206336975,-43.215858459472656 C2.6467485427856445,-45.64585876464844 7.330748558044434,-43.532859802246094 7.69174861907959,-39.453861236572266 C7.69174861907959,-39.453861236572266 8.111000061035156,-38.10300064086914 8.111000061035156,-38.10300064086914 C8.111000061035156,-38.10300064086914 23.716251373291016,-47.369747161865234 23.716251373291016,-47.369747161865234 C26.762250900268555,-49.290748596191406 30.794252395629883,-47.64274978637695 31.62325096130371,-44.13874816894531 C31.62325096130371,-44.13874816894531 40.73564147949219,-4.982321739196777 40.73564147949219,-4.982321739196777 C42.88764190673828,3.683678388595581 42.02899932861328,13.173999786376953 37.823001861572266,21.83300018310547 C28.290000915527344,41.459999084472656 4.651000022888184,49.643001556396484 -14.97700023651123,40.11000061035156 C-34.604000091552734,30.576000213623047 -42.7859992980957,6.936999797821045 -33.25299835205078,-12.6899995803833 C-30.288999557495117,-18.79400062561035 -25.959999084472656,-23.790000915527344 -20.812999725341797,-27.492000579833984z"></path></g></g><g transform="matrix(1.3333300352096558,0,0,1.3333300352096558,-1.3007373809814453,-36.930023193359375)" opacity="1" style="display: block;"><g opacity="1" transform="matrix(1,0,0,1,971.5430297851562,407.3479919433594)"><path fill="rgb(255,199,0)" fill-opacity="1" d=" M4.429999828338623,-18.451000213623047 C5.841000080108643,-19.874000549316406 8.26200008392334,-19.253999710083008 8.8149995803833,-17.32900047302246 C8.8149995803833,-17.32900047302246 13.829000473022461,-2.188999891281128 13.829000473022461,-2.188999891281128 C14.604000091552734,1.2369999885559082 14.850000381469727,4.945000171661377 13.279000282287598,8.781000137329102 C9.630999565124512,17.691999435424805 1.406999945640564,21.635000228881836 -5.376999855041504,18.85700035095215 C-12.16100025177002,16.079999923706055 -15.008000373840332,7.765999794006348 -11.359999656677246,-1.1449999809265137 C-9.842000007629395,-4.85099983215332 -8.46500015258789,-6.486999988555908 -6.309000015258789,-8.928999900817871 C-3.190000057220459,-12.461999893188477 4.429999828338623,-18.451000213623047 4.429999828338623,-18.451000213623047z"></path></g></g><g transform="matrix(1.3330131769180298,0.02906564623117447,-0.02906564623117447,1.3330131769180298,16.002197265625,-42.44183349609375)" opacity="1" style="display: block;"><g opacity="1" transform="matrix(1,0,0,1,1097.5250244140625,555.156005859375)"><path fill="rgb(1,169,138)" fill-opacity="1" d=" M2.2149999141693115,23.42296600341797 C51.73770523071289,19.139476776123047 89.9659652709961,5.598111152648926 89.8608627319336,-8.014688491821289 C89.85086059570312,-8.055624961853027 89.85086059570312,-8.096562385559082 89.85086059570312,-8.13749885559082 C89.85086059570312,-8.13749885559082 89.0297622680664,-23.31026840209961 88.70176696777344,-24.215974807739258 C88.70135498046875,-24.19817543029785 65.375,-22.20311164855957 65.375,-22.20311164855957 C48.53499984741211,-25.544349670410156 24.594999313354492,-26.477895736694336 -1.7350000143051147,-24.186017990112305 C-28.065000534057617,-21.895034790039062 -51.505001068115234,-16.839035034179688 -67.55500030517578,-10.635595321655273 C-67.55500030517578,-10.635595321655273 -91.01282501220703,-8.107684135437012 -91.02302551269531,-8.113929748535156 C-91.05071258544922,-7.4411821365356445 -89.28456115722656,7.762589454650879 -89.28456115722656,7.762589454650879 C-87.00439453125,20.623313903808594 -48.343833923339844,27.809234619140625 2.2149999141693115,23.42296600341797z"></path></g></g><g transform="matrix(1.3330131769180298,0.02906564623117447,-0.02906564623117447,1.3330131769180298,16.002197265625,-42.44183349609375)" opacity="1" style="display: block;"><g opacity="1" transform="matrix(1,0,0,1,1096.4300537109375,538.4669799804688)"><path fill="rgb(0,211,172)" fill-opacity="1" d=" M89.94000244140625,-7.107010841369629 C91.02999877929688,6.085010528564453 51.650001525878906,20.295095443725586 1.9800000190734863,24.632909774780273 C-47.689998626708984,28.970722198486328 -88.8410415649414,21.792755126953125 -89.94000244140625,8.600629806518555 C-91.02999877929688,-4.591495990753174 -51.650001525878906,-18.801267623901367 -1.9700000286102295,-23.13918685913086 C47.70000076293945,-27.476999282836914 88.8499984741211,-20.29903221130371 89.94000244140625,-7.107010841369629z"></path></g></g><g transform="matrix(1.3330131769180298,0.02906564623117447,-0.02906564623117447,1.3330131769180298,16.002197265625,-42.44183349609375)" opacity="1" style="display: block;"><g opacity="1" transform="matrix(1,0,0,1,1100.1199951171875,535.4660034179688)"><path stroke-linecap="round" stroke-linejoin="round" fill-opacity="0" stroke="rgb(255,255,255)" stroke-opacity="1" stroke-width="6.4" d=" M-30.260000228881836,1.996000051498413 C-30.260000228881836,1.996000051498413 -6.508934497833252,9.441717147827148 -6.508934497833252,9.441717147827148 C-6.508934497833252,9.441717147827148 30.260000228881836,-8.406000137329102 30.260000228881836,-8.406000137329102"></path></g></g><g transform="matrix(1.3305892944335938,0.08544587343931198,-0.08544587343931198,1.3305892944335938,45.3814697265625,-93.6019287109375)" opacity="1" style="display: block;"><g opacity="1" transform="matrix(1,0,0,1,918.0180053710938,513.97998046875)"><path fill="rgb(228,158,0)" fill-opacity="1" d=" M5.880000114440918,21.136999130249023 C48.308998107910156,9.534000396728516 80.30599975585938,-8.746000289916992 77.52400207519531,-19.761999130249023 C77.51599884033203,-19.79599952697754 77.50599670410156,-19.83099937438965 77.49700164794922,-19.864999771118164 C77.49700164794922,-19.864999771118164 73.82599639892578,-33.290000915527344 73.82599639892578,-33.290000915527344 C73.82599639892578,-33.290000915527344 53.71099853515625,-27.788000106811523 53.71099853515625,-27.788000106811523 C38.525001525878906,-27.929000854492188 17.54199981689453,-24.884000778198242 -5.01800012588501,-18.714000701904297 C-27.57900047302246,-12.543999671936035 -47.19200134277344,-4.486999988555908 -60.19300079345703,3.36299991607666 C-60.19300079345703,3.36299991607666 -80.30699920654297,8.86400032043457 -80.30699920654297,8.86400032043457 C-80.30699920654297,8.86400032043457 -76.60700225830078,22.391000747680664 -76.60700225830078,22.391000747680664 C-73.3949966430664,33.290000915527344 -36.54999923706055,32.74100112915039 5.880000114440918,21.136999130249023z"></path></g></g><g transform="matrix(1.3305892944335938,0.08544587343931198,-0.08544587343931198,1.3305892944335938,45.3814697265625,-93.6019287109375)" opacity="1" style="display: block;"><g opacity="1" transform="matrix(1,0,0,1,914.7689819335938,501.7359924316406)"><path fill="rgb(255,199,0)" fill-opacity="1" d=" M77.06600189208984,-21.07699966430664 C80.07599639892578,-10.071999549865723 48.012001037597656,8.28600025177002 5.448999881744385,19.926000595092773 C-37.112998962402344,31.566999435424805 -74.05599975585938,32.082000732421875 -77.06600189208984,21.07699966430664 C-80.07599639892578,10.071999549865723 -48.012001037597656,-8.28600025177002 -5.448999881744385,-19.926000595092773 C37.112998962402344,-31.566999435424805 74.05599975585938,-32.082000732421875 77.06600189208984,-21.07699966430664z"></path></g></g><g transform="matrix(1.199958086013794,0.5735858082771301,-0.5735858082771301,1.199958086013794,960.9217529296875,618.7852172851562)" opacity="1" style="display: block;"><g opacity="1" transform="matrix(0.9673651456832886,-0.253386527299881,0.253386527299881,0.9673651456832886,0,0)"><path fill="rgb(228,158,0)" fill-opacity="1" d=" M70.30799865722656,0.09399999678134918 C70.11199951171875,10.09000015258789 38.70899963378906,18.179000854492188 0,18.179000854492188 C-38.70899963378906,18.179000854492188 -70.11199951171875,10.09000015258789 -70.30799865722656,0.09399999678134918 C-70.30799865722656,0.09399999678134918 -70.30799865722656,-12.246999740600586 -70.30799865722656,-12.246999740600586 C-70.30799865722656,-12.246999740600586 -51.95800018310547,-12.246999740600586 -51.95800018310547,-12.246999740600586 C-39.099998474121094,-15.892000198364258 -20.58300018310547,-18.179000854492188 0,-18.179000854492188 C20.58300018310547,-18.179000854492188 39.0989990234375,-15.892000198364258 51.957000732421875,-12.246999740600586 C51.957000732421875,-12.246999740600586 70.30799865722656,-12.246999740600586 70.30799865722656,-12.246999740600586 C70.30799865722656,-12.246999740600586 70.30799865722656,0 70.30799865722656,0 C70.30799865722656,0.03099999949336052 70.30899810791016,0.06300000101327896 70.30799865722656,0.09399999678134918z"></path></g></g><g transform="matrix(1.199958086013794,0.5735858082771301,-0.5735858082771301,1.199958086013794,964,602.7512817382812)" opacity="1" style="display: block;"><g opacity="1" transform="matrix(0.9673651456832886,-0.253386527299881,0.253386527299881,0.9673651456832886,0,0)"><path fill="rgb(255,199,0)" fill-opacity="1" d=" M0,-18.178499221801758 C38.80298614501953,-18.178499221801758 70.30799865722656,-10.032713890075684 70.30799865722656,0 C70.30799865722656,10.032713890075684 38.80298614501953,18.178499221801758 0,18.178499221801758 C-38.80298614501953,18.178499221801758 -70.30799865722656,10.032713890075684 -70.30799865722656,0 C-70.30799865722656,-10.032713890075684 -38.80298614501953,-18.178499221801758 0,-18.178499221801758z"></path></g></g><g transform="matrix(1.3061364889144897,0.25081369280815125,-0.25081369280815125,1.3061364889144897,931.7296752929688,594.5049438476562)" opacity="1" style="display: block;"><g opacity="1" transform="matrix(1,0,0,1,0,0)"><path fill="rgb(255,231,0)" fill-opacity="1" d=" M-4.839000225067139,12.208000183105469 C-9.934000015258789,11.574000358581543 -14.657999992370605,10.782999992370605 -18.913999557495117,9.866000175476074 C-18.913999557495117,9.866000175476074 22.750999450683594,-12.197999954223633 22.750999450683594,-12.197999954223633 C23.496999740600586,-12.204000473022461 24.2450008392334,-12.208000183105469 24.996999740600586,-12.208000183105469 C30.12700080871582,-12.208000183105469 35.11399841308594,-12.062999725341797 39.9010009765625,-11.789999961853027 C39.9010009765625,-11.789999961853027 -4.839000225067139,12.208000183105469 -4.839000225067139,12.208000183105469z M-23.44300079345703,-7.045000076293945 C-14.59000015258789,-9.333999633789062 -3.140000104904175,-11.020000457763672 9.781000137329102,-11.772000312805176 C9.781000137329102,-11.772000312805176 -28.725000381469727,7.257999897003174 -28.725000381469727,7.257999897003174 C-32.28499984741211,6.086999893188477 -35.0989990234375,4.843999862670898 -37.12799835205078,3.6040000915527344 C-39.60100173950195,2.0920000076293945 -39.9010009765625,1.3279999494552612 -39.9010009765625,0.8759999871253967 C-39.9010009765625,0.2409999966621399 -39.60100173950195,-0.3409999907016754 -37.12799835205078,-1.8530000448226929 C-34.18199920654297,-3.6540000438690186 -29.579999923706055,-5.458000183105469 -23.44300079345703,-7.045000076293945z"></path></g></g><g transform="matrix(1.3305892944335938,0.08544587343931198,-0.08544587343931198,1.3305892944335938,45.3814697265625,-93.6019287109375)" opacity="1" style="display: block;"><g opacity="1" transform="matrix(1,0,0,1,867.531982421875,508.4259948730469)"><path fill="rgb(255,231,0)" fill-opacity="1" d=" M23.6299991607666,-14.07699966430664 C24.281999588012695,-14.654999732971191 23.673999786376953,-15.696999549865723 22.851999282836914,-15.406000137329102 C10.491000175476074,-11.041999816894531 -0.2199999988079071,-6.245999813079834 -8.425000190734863,-1.5490000247955322 C-14.675999641418457,2.0299999713897705 -19.180999755859375,5.38700008392334 -21.8700008392334,8.244000434875488 C-24.12700080871582,10.642000198364258 -24.2810001373291,11.371000289916992 -24.090999603271484,12.065999984741211 C-23.954999923706055,12.562000274658203 -23.39699935913086,13.3100004196167 -20.232999801635742,14.22599983215332 C-17.84000015258789,14.918000221252441 -14.715999603271484,15.413000106811523 -10.909000396728516,15.654999732971191 C-10.281000137329102,15.696000099182129 -9.663999557495117,15.477999687194824 -9.192999839782715,15.0600004196167 C-9.192999839782715,15.0600004196167 23.6299991607666,-14.07699966430664 23.6299991607666,-14.07699966430664z"></path></g></g><g transform="matrix(1.3305892944335938,0.08544587343931198,-0.08544587343931198,1.3305892944335938,45.3814697265625,-93.6019287109375)" opacity="1" style="display: block;"><g opacity="1" transform="matrix(1,0,0,1,897.9210205078125,503.54400634765625)"><path fill="rgb(255,231,0)" fill-opacity="1" d=" M-27.18000030517578,19.009000778198242 C-27.724000930786133,19.520000457763672 -27.333999633789062,20.427000045776367 -26.589000701904297,20.375 C-22.475000381469727,20.09000015258789 -18.06100082397461,19.6200008392334 -13.406000137329102,18.965999603271484 C-12.913999557495117,18.89699935913086 -12.456000328063965,18.674999237060547 -12.095999717712402,18.33300018310547 C-12.095999717712402,18.33300018310547 27.13800048828125,-18.902000427246094 27.13800048828125,-18.902000427246094 C27.724000930786133,-19.45800018310547 27.211999893188477,-20.42799949645996 26.423999786376953,-20.25200080871582 C21.964000701904297,-19.2549991607666 17.38800048828125,-18.1200008392334 12.734999656677246,-16.847999572753906 C12.100000381469727,-16.673999786376953 11.468000411987305,-16.499000549316406 10.83899974822998,-16.322999954223633 C10.468999862670898,-16.2189998626709 10.130000114440918,-16.025999069213867 9.848999977111816,-15.762999534606934 C9.848999977111816,-15.762999534606934 -27.18000030517578,19.009000778198242 -27.18000030517578,19.009000778198242z"></path></g></g><g transform="matrix(1.332695722579956,-0.04112400487065315,0.04112400487065315,1.332695722579956,-13.436767578125,9.3736572265625)" opacity="1" style="display: block;"><g opacity="1" transform="matrix(1,0,0,1,462.50799560546875,339.37701416015625)"><path fill="rgb(228,158,0)" fill-opacity="1" d=" M-2.194999933242798,8.95199966430664 C16.097000122070312,13.272000312805176 31.84000015258789,12.954999923706055 33.04800033569336,8.253000259399414 C33.051998138427734,8.23799991607666 33.05500030517578,8.222999572753906 33.05799865722656,8.208000183105469 C33.05799865722656,8.208000183105469 34.42499923706055,2.4210000038146973 34.42499923706055,2.4210000038146973 C34.42499923706055,2.4210000038146973 25.753000259399414,0.37299999594688416 25.753000259399414,0.37299999594688416 C20.083999633789062,-2.7850000858306885 11.58899974822998,-5.932000160217285 1.8619999885559082,-8.229000091552734 C-7.863999843597412,-10.526000022888184 -16.8700008392334,-11.51200008392334 -23.351999282836914,-11.225000381469727 C-23.351999282836914,-11.225000381469727 -32.02399826049805,-13.27299976348877 -32.02399826049805,-13.27299976348877 C-32.02399826049805,-13.27299976348877 -33.402000427246094,-7.440999984741211 -33.402000427246094,-7.440999984741211 C-34.42499923706055,-2.694999933242798 -20.48699951171875,4.631999969482422 -2.194999933242798,8.95199966430664z"></path></g></g><g transform="matrix(1.332695722579956,-0.04112400487065315,0.04112400487065315,1.332695722579956,-13.436767578125,9.3736572265625)" opacity="1" style="display: block;"><g opacity="1" transform="matrix(1,0,0,1,463.7120056152344,333.93701171875)"><path fill="rgb(255,199,0)" fill-opacity="1" d=" M33.224998474121094,7.8470001220703125 C32.104000091552734,12.592000007629395 16.31999969482422,12.923999786376953 -2.0290000438690186,8.590999603271484 C-20.378999710083008,4.256999969482422 -34.345001220703125,-3.1019999980926514 -33.224998474121094,-7.8470001220703125 C-32.104000091552734,-12.590999603271484 -16.320999145507812,-12.923999786376953 2.0290000438690186,-8.59000015258789 C20.378000259399414,-4.25600004196167 34.345001220703125,3.1029999256134033 33.224998474121094,7.8470001220703125z"></path></g></g><g transform="matrix(1.332695722579956,-0.04112400487065315,0.04112400487065315,1.332695722579956,-13.436767578125,9.3736572265625)" opacity="1" style="display: block;"><g opacity="1" transform="matrix(1,0,0,1,444.19000244140625,327.49798583984375)"><path fill="rgb(255,231,0)" fill-opacity="1" d=" M10.361000061035156,-0.7390000224113464 C11.125,-0.9160000085830688 11.090999603271484,-1.9850000143051147 10.314000129699707,-2.0969998836517334 C5.513999938964844,-2.7869999408721924 1.1720000505447388,-3.0869998931884766 -2.4140000343322754,-3.010999917984009 C-5.491000175476074,-2.946000099182129 -7.867000102996826,-2.6070001125335693 -9.461000442504883,-2.0850000381469727 C-10.79800033569336,-1.6460000276565552 -11.005000114440918,-1.4049999713897705 -11.076000213623047,-1.1050000190734863 C-11.12600040435791,-0.890999972820282 -11.069999694824219,-0.4959999918937683 -10.069999694824219,0.49399998784065247 C-9.38599967956543,1.1710000038146973 -8.446000099182129,1.909000039100647 -7.254000186920166,2.686000108718872 C-6.7789998054504395,2.996000051498413 -6.197000026702881,3.0869998931884766 -5.644999980926514,2.9590001106262207 C-5.644999980926514,2.9590001106262207 10.361000061035156,-0.7390000224113464 10.361000061035156,-0.7390000224113464z"></path></g></g><g transform="matrix(1.332695722579956,-0.04112400487065315,0.04112400487065315,1.332695722579956,-13.436767578125,9.3736572265625)" opacity="1" style="display: block;"><g opacity="1" transform="matrix(1,0,0,1,456.84600830078125,331.4230041503906)"><path fill="rgb(255,231,0)" fill-opacity="1" d=" M-12.906000137329102,1.062999963760376 C-13.555999755859375,1.2319999933242798 -13.63599967956543,2.111999988555908 -13.022000312805176,2.381999969482422 C-11.782999992370605,2.927999973297119 -10.46399974822998,3.4679999351501465 -9.071999549865723,3.996000051498413 C-8.654000282287598,4.15500020980835 -8.194999694824219,4.176000118255615 -7.763000011444092,4.060999870300293 C-7.763000011444092,4.060999870300293 12.92300033569336,-1.4509999752044678 12.92300033569336,-1.4509999752044678 C13.625,-1.6380000114440918 13.63700008392334,-2.618000030517578 12.935999870300293,-2.811000108718872 C11.461999893188477,-3.2160000801086426 9.946000099182129,-3.6029999256134033 8.397000312805176,-3.9690001010894775 C8.21399974822998,-4.013000011444092 8.031000137329102,-4.054999828338623 7.8480000495910645,-4.0980000495910645 C7.511000156402588,-4.176000118255615 7.158999919891357,-4.170000076293945 6.823999881744385,-4.083000183105469 C6.823999881744385,-4.083000183105469 -12.906000137329102,1.062999963760376 -12.906000137329102,1.062999963760376z"></path></g></g><g transform="matrix(1.3310084342956543,0.07864756137132645,-0.07864756137132645,1.3310084342956543,32.36224365234375,-49.66729736328125)" opacity="1" style="display: block;"><g opacity="1" transform="matrix(1,0,0,1,439.7850036621094,407.3689880371094)"><path fill="rgb(228,158,0)" fill-opacity="1" d=" M-1.0360000133514404,12.041999816894531 C25.576000213623047,13.98799991607666 47.571998596191406,10.006999969482422 48.20899963378906,3.1449999809265137 C48.21099853515625,3.122999906539917 48.21200180053711,3.1010000705718994 48.2140007019043,3.0799999237060547 C48.2140007019043,3.0799999237060547 48.83000183105469,-5.340000152587891 48.83000183105469,-5.340000152587891 C48.83000183105469,-5.340000152587891 36.2140007019043,-6.263000011444092 36.2140007019043,-6.263000011444092 C27.558000564575195,-9.414999961853027 14.942999839782715,-11.918000221252441 0.7919999957084656,-12.95300006866455 C-13.357999801635742,-13.98799991607666 -26.202999114990234,-13.347000122070312 -35.22600173950195,-11.48799991607666 C-35.22600173950195,-11.48799991607666 -47.840999603271484,-12.40999984741211 -47.840999603271484,-12.40999984741211 C-47.840999603271484,-12.40999984741211 -48.46200180053711,-3.9260001182556152 -48.46200180053711,-3.9260001182556152 C-48.83000183105469,2.9570000171661377 -27.64699935913086,10.095999717712402 -1.0360000133514404,12.041999816894531z"></path></g></g><g transform="matrix(1.3310084342956543,0.07864756137132645,-0.07864756137132645,1.3310084342956543,32.36224365234375,-49.66729736328125)" opacity="1" style="display: block;"><g opacity="1" transform="matrix(1,0,0,1,440.281005859375,398.4739990234375)"><path fill="rgb(255,199,0)" fill-opacity="1" d=" M48.334999084472656,3.5350000858306885 C47.83000183105469,10.437000274658203 25.7810001373291,14.449999809265137 -0.9139999747276306,12.498000144958496 C-27.608999252319336,10.545000076293945 -48.840999603271484,3.367000102996826 -48.33599853515625,-3.5350000858306885 C-47.83100128173828,-10.437000274658203 -25.7810001373291,-14.449999809265137 0.9139999747276306,-12.496999740600586 C27.608999252319336,-10.545000076293945 48.84000015258789,-3.367000102996826 48.334999084472656,3.5350000858306885z"></path></g></g><g transform="matrix(1.3310084342956543,0.07864756137132645,-0.07864756137132645,1.3310084342956543,32.36224365234375,-49.66729736328125)" opacity="1" style="display: block;"><g opacity="1" transform="matrix(1,0,0,1,411.6600036621094,394.072998046875)"><path fill="rgb(255,231,0)" fill-opacity="1" d=" M15.178999900817871,-4.014999866485596 C15.987000465393066,-4.3429999351501465 15.76099967956543,-5.517000198364258 14.888999938964844,-5.508999824523926 C7.564000129699707,-5.442999839782715 1.0219999551773071,-4.877999782562256 -4.250999927520752,-3.9179999828338623 C-8.550000190734863,-3.135999917984009 -11.803999900817871,-2.125999927520752 -13.920000076293945,-1.0360000133514404 C-15.696000099182129,-0.12099999934434891 -15.932000160217285,0.2639999985694885 -15.96399974822998,0.699999988079071 C-15.987000465393066,1.0110000371932983 -15.819000244140625,1.5520000457763672 -14.194999694824219,2.7149999141693115 C-13.03499984741211,3.5460000038146973 -11.467000007629395,4.4079999923706055 -9.505999565124512,5.265999794006348 C-8.928999900817871,5.51800012588501 -8.274999618530273,5.517000198364258 -7.690999984741211,5.28000020980835 C-7.690999984741211,5.28000020980835 15.178999900817871,-4.014999866485596 15.178999900817871,-4.014999866485596z"></path></g></g><g transform="matrix(1.3310084342956543,0.07864756137132645,-0.07864756137132645,1.3310084342956543,32.36224365234375,-49.66729736328125)" opacity="1" style="display: block;"><g opacity="1" transform="matrix(1,0,0,1,430.16900634765625,396.61199951171875)"><path fill="rgb(255,231,0)" fill-opacity="1" d=" M-18.488000869750977,4.513999938964844 C-19.17099952697754,4.815000057220459 -19.104999542236328,5.796999931335449 -18.384000778198242,5.989999771118164 C-16.292999267578125,6.551000118255615 -14.053999900817871,7.078000068664551 -11.687000274658203,7.564000129699707 C-11.199999809265137,7.664000034332275 -10.694000244140625,7.60699987411499 -10.241000175476074,7.4039998054504395 C-10.241000175476074,7.4039998054504395 18.433000564575195,-5.377999782562256 18.433000564575195,-5.377999782562256 C19.17099952697754,-5.706999778747559 19.01099967956543,-6.7870001792907715 18.20800018310547,-6.879000186920166 C15.803000450134277,-7.1529998779296875 13.329000473022461,-7.385000228881836 10.800999641418457,-7.570000171661377 C10.480999946594238,-7.593999862670898 10.16100025177002,-7.616000175476074 9.840999603271484,-7.638000011444092 C9.456999778747559,-7.664000034332275 9.072999954223633,-7.59499979019165 8.720000267028809,-7.440000057220459 C8.720000267028809,-7.440000057220459 -18.488000869750977,4.513999938964844 -18.488000869750977,4.513999938964844z"></path></g></g><g transform="matrix(1.3234107494354248,-0.1623360961675644,0.1623360961675644,1.3234107494354248,-71.34765625,59.615966796875)" opacity="1" style="display: block;"><g opacity="1" transform="matrix(1,0,0,1,521.2379760742188,481.6189880371094)"><path fill="rgb(228,158,0)" fill-opacity="1" d=" M4.11299991607666,16.969999313354492 C38.888999938964844,8.878999710083008 65.41200256347656,-4.951000213623047 63.499000549316406,-13.972999572753906 C63.49300003051758,-14.001999855041504 63.486000061035156,-14.029999732971191 63.479000091552734,-14.057999610900879 C63.479000091552734,-14.057999610900879 60.91899871826172,-25.06100082397461 60.91899871826172,-25.06100082397461 C60.91899871826172,-25.06100082397461 44.43199920654297,-21.225000381469727 44.43199920654297,-21.225000381469727 C32.11899948120117,-21.812000274658203 15.005000114440918,-19.996000289916992 -3.486999988555908,-15.694000244140625 C-21.979000091552734,-11.392000198364258 -38.137001037597656,-5.4670000076293945 -48.926998138427734,0.4950000047683716 C-48.926998138427734,0.4950000047683716 -65.41300201416016,4.330999851226807 -65.41300201416016,4.330999851226807 C-65.41300201416016,4.330999851226807 -62.83399963378906,15.418000221252441 -62.83399963378906,15.418000221252441 C-60.56800079345703,24.357999801635742 -30.663999557495117,25.06100082397461 4.11299991607666,16.969999313354492z"></path></g></g><g transform="matrix(1.3234107494354248,-0.1623360961675644,0.1623360961675644,1.3234107494354248,-71.34765625,59.615966796875)" opacity="1" style="display: block;"><g opacity="1" transform="matrix(1,0,0,1,518.9849853515625,471.2279968261719)"><path fill="rgb(255,199,0)" fill-opacity="1" d=" M63.16600036621094,-14.696000099182129 C65.26499938964844,-5.676000118255615 38.68600082397461,8.21500015258789 3.799999952316284,16.332000732421875 C-31.086000442504883,24.447999954223633 -61.06800079345703,23.715999603271484 -63.16600036621094,14.696000099182129 C-65.26499938964844,5.676000118255615 -38.685001373291016,-8.215999603271484 -3.799999952316284,-16.332000732421875 C31.086000442504883,-24.447999954223633 61.06800079345703,-23.715999603271484 63.16600036621094,-14.696000099182129z"></path></g></g><g transform="matrix(1.3234107494354248,-0.1623360961675644,0.1623360961675644,1.3234107494354248,-71.34765625,59.615966796875)" opacity="1" style="display: block;"><g opacity="1" transform="matrix(1,0,0,1,480.40899658203125,475.42999267578125)"><path fill="rgb(255,231,0)" fill-opacity="1" d=" M19.389999389648438,-10.708000183105469 C19.996000289916992,-11.206000328063965 19.485000610351562,-12.161999702453613 18.736000061035156,-11.928000450134277 C8.713000297546387,-8.79800033569336 -0.004999999888241291,-5.2820000648498535 -6.73199987411499,-1.7660000324249268 C-11.913999557495117,0.9419999718666077 -15.67199993133545,3.5260000228881836 -17.941999435424805,5.760000228881836 C-19.847999572753906,7.635000228881836 -19.996000289916992,8.220999717712402 -19.863000869750977,8.791000366210938 C-19.768999099731445,9.196999549865723 -19.339000701904297,9.821000099182129 -16.802000045776367,10.661999702453613 C-14.899999618530273,11.293000221252441 -12.409000396728516,11.788000106811523 -9.369000434875488,12.104000091552734 C-8.805000305175781,12.161999702453613 -8.243000030517578,11.987000465393066 -7.804999828338623,11.628000259399414 C-7.804999828338623,11.628000259399414 19.389999389648438,-10.708000183105469 19.389999389648438,-10.708000183105469z"></path></g></g><g transform="matrix(1.3234107494354248,-0.1623360961675644,0.1623360961675644,1.3234107494354248,-71.34765625,59.615966796875)" opacity="1" style="display: block;"><g opacity="1" transform="matrix(1,0,0,1,505.24200439453125,472.1820068359375)"><path fill="rgb(255,231,0)" fill-opacity="1" d=" M-22.47100067138672,14.432999610900879 C-22.97800064086914,14.87399959564209 -22.659000396728516,15.70199966430664 -21.98699951171875,15.680999755859375 C-18.716999053955078,15.574999809265137 -15.210000038146973,15.336000442504883 -11.51200008392334,14.961000442504883 C-11.067000389099121,14.916000366210938 -10.647000312805176,14.732000350952148 -10.310999870300293,14.437000274658203 C-10.310999870300293,14.437000274658203 22.43199920654297,-14.333999633789062 22.43199920654297,-14.333999633789062 C22.97800064086914,-14.814000129699707 22.551000595092773,-15.70300006866455 21.836000442504883,-15.571000099182129 C18.266000747680664,-14.91100025177002 14.602999687194824,-14.14799976348877 10.875,-13.281000137329102 C10.371999740600586,-13.163999557495117 9.869999885559082,-13.045999526977539 9.369999885559082,-12.925999641418457 C9.034000396728516,-12.845999717712402 8.722000122070312,-12.684000015258789 8.461000442504883,-12.456999778747559 C8.461000442504883,-12.456999778747559 -22.47100067138672,14.432999610900879 -22.47100067138672,14.432999610900879z"></path></g></g><g transform="matrix(1.3124439716339111,0.23507410287857056,-0.23507410287857056,1.3124439716339111,103.4888916015625,-162.80532836914062)" opacity="1" style="display: block;"><g opacity="1" transform="matrix(1,0,0,1,562.1950073242188,389.09600830078125)"><path fill="rgb(255,75,75)" fill-opacity="1" d=" M-5.600950717926025,-16.418460845947266 C-10.130478858947754,-17.91128921508789 -15.022222518920898,-17.90262222290039 -19.837928771972656,-15.844799041748047 C-29.88823699951172,-11.555166244506836 -34.49178695678711,0.29424038529396057 -30.109525680541992,10.484098434448242 C-27.598886489868164,16.32065200805664 -22.454944610595703,20.51543426513672 -16.807464599609375,22.19912338256836 C-16.807464599609375,22.19912338256836 10.252334594726562,30.555057525634766 11.115912437438965,30.754413604736328 C13.667649269104004,31.504106521606445 16.42815589904785,30.329593658447266 17.63062858581543,27.883182525634766 C17.63062858581543,27.883182525634766 30.37467384338379,2.5192322731018066 30.552383422851562,0.9918369054794312 C32.82827377319336,-4.145336151123047 33.20331954956055,-10.30789566040039 30.804908752441406,-16.16609764099121 C26.55706214904785,-26.40498924255371 14.540926933288574,-31.064313888549805 4.543673515319824,-26.660913467407227 C-0.28502073884010315,-24.534717559814453 -3.6650328636169434,-20.898597717285156 -5.600950717926025,-16.418460845947266z"></path></g></g><g transform="matrix(1.3124439716339111,0.23507410287857056,-0.23507410287857056,1.3124439716339111,104.14959716796875,-162.68698120117188)" opacity="1" style="display: block;"><g opacity="1" transform="matrix(1,0,0,1,547.3300170898438,390.09600830078125)"><path fill="rgb(255,178,178)" fill-opacity="1" d=" M6.947000026702881,-2.993000030517578 C8.600000381469727,0.8429999947547913 6.829999923706055,5.293000221252441 2.993000030517578,6.946000099182129 C-0.8429999947547913,8.598999977111816 -5.293000221252441,6.828000068664551 -6.946000099182129,2.992000102996826 C-8.598999977111816,-0.8450000286102295 -6.828000068664551,-5.294000148773193 -2.992000102996826,-6.947000026702881 C0.8450000286102295,-8.600000381469727 5.294000148773193,-6.829999923706055 6.947000026702881,-2.993000030517578z"></path></g></g><g transform="matrix(1.3333278894424438,-0.002405833685770631,0.002405833685770631,1.3333278894424438,-1.145294189453125,-4.99163818359375)" opacity="1" style="display: block;"><g opacity="1" transform="matrix(1,0,0,1,290.697998046875,448.5400085449219)"><path fill="rgb(142,85,1)" fill-opacity="1" d=" M44.604000091552734,0.3319999873638153 C44.944000244140625,-0.9409999847412109 44.387001037597656,-2.2850000858306885 43.24599838256836,-2.944999933242798 C43.24599838256836,-2.944999933242798 -28.95800018310547,-44.672000885009766 -28.95800018310547,-44.672000885009766 C-30.618999481201172,-45.63199996948242 -32.73899841308594,-44.75299835205078 -33.23400115966797,-42.900001525878906 C-33.23400115966797,-42.900001525878906 -44.604000091552734,-0.3330000042915344 -44.604000091552734,-0.3330000042915344 C-44.944000244140625,0.9409999847412109 -44.38800048828125,2.2839999198913574 -43.24599838256836,2.944000005722046 C-43.24599838256836,2.944000005722046 28.957000732421875,44.67100143432617 28.957000732421875,44.67100143432617 C30.618999481201172,45.63100051879883 32.737998962402344,44.75400161743164 33.23400115966797,42.900001525878906 C33.23400115966797,42.900001525878906 44.604000091552734,0.3319999873638153 44.604000091552734,0.3319999873638153z"></path></g></g><g transform="matrix(1.3333278894424438,-0.002405833685770631,0.002405833685770631,1.3333278894424438,-1.146636962890625,-4.991635799407959)" opacity="1" style="display: block;"><g opacity="1" transform="matrix(1,0,0,1,291.25,464.4119873046875)"><path fill="rgb(114,68,0)" fill-opacity="1" d=" M40.58700180053711,-15.73799991607666 C40.58700180053711,-15.73799991607666 0.3610000014305115,-1.6299999952316284 0.3610000014305115,-1.6299999952316284 C0.3610000014305115,-1.6299999952316284 -38.327999114990234,-23.827999114990234 -38.327999114990234,-23.827999114990234 C-38.327999114990234,-23.827999114990234 -40.5880012512207,-15.36400032043457 -40.5880012512207,-15.36400032043457 C-40.5880012512207,-15.36400032043457 30.01799964904785,23.827999114990234 30.01799964904785,23.827999114990234 C30.01799964904785,23.827999114990234 40.58700180053711,-15.73799991607666 40.58700180053711,-15.73799991607666z"></path></g></g><g transform="matrix(1.3333278894424438,-0.002405833685770631,0.002405833685770631,1.3333278894424438,-1.145294189453125,-4.99163818359375)" opacity="1" style="display: block;"><g opacity="1" transform="matrix(1,0,0,1,238.1790008544922,431.72100830078125)"><path fill="rgb(206,125,3)" fill-opacity="1" d=" M-7.23799991607666,-19.02199935913086 C-7.23799991607666,-19.02199935913086 19.659000396728516,-27.47800064086914 19.659000396728516,-27.47800064086914 C19.659000396728516,-27.47800064086914 7.3379998207092285,18.645000457763672 7.3379998207092285,18.645000457763672 C7.3379998207092285,18.645000457763672 -19.659000396728516,27.476999282836914 -19.659000396728516,27.476999282836914 C-19.659000396728516,27.476999282836914 -7.23799991607666,-19.02199935913086 -7.23799991607666,-19.02199935913086z"></path></g></g><g transform="matrix(1.3333278894424438,-0.002405833685770631,0.002405833685770631,1.3333278894424438,-1.145294189453125,-4.99163818359375)" opacity="1" style="display: block;"><g opacity="1" transform="matrix(1,0,0,1,269.7250061035156,476.5169982910156)"><path fill="rgb(206,125,3)" fill-opacity="1" d=" M24.20800018310547,26.150999069213867 C24.20800018310547,26.150999069213867 -51.21200180053711,-17.31399917602539 -51.21200180053711,-17.31399917602539 C-51.21200180053711,-17.31399917602539 -24.20800018310547,-26.150999069213867 -24.20800018310547,-26.150999069213867 C-24.20800018310547,-26.150999069213867 51.21200180053711,17.31399917602539 51.21200180053711,17.31399917602539 C51.21200180053711,17.31399917602539 24.20800018310547,26.150999069213867 24.20800018310547,26.150999069213867z"></path></g></g><g transform="matrix(1.3333278894424438,-0.002405833685770631,0.002405833685770631,1.3333278894424438,-1.145294189453125,-4.99163818359375)" opacity="1" style="display: block;"><g opacity="1" transform="matrix(1,0,0,1,269.4280090332031,455.093994140625)"><path stroke-linecap="butt" stroke-linejoin="miter" fill-opacity="0" stroke-miterlimit="4" stroke="rgb(180,108,0)" stroke-opacity="1" stroke-width="2.916" d=" M37.400001525878906,42.827999114990234 C37.400001525878906,42.827999114990234 -37.400001525878906,-0.3529999852180481 -37.400001525878906,-0.3529999852180481 C-37.400001525878906,-0.3529999852180481 -26.052000045776367,-42.827999114990234 -26.052000045776367,-42.827999114990234"></path></g></g><g transform="matrix(1.3333278894424438,-0.002405833685770631,0.002405833685770631,1.3333278894424438,-1.145294189453125,-4.99163818359375)" opacity="1" style="display: block;"><g opacity="1" transform="matrix(1,0,0,1,300.08599853515625,494.0329895019531)"><path fill="rgb(238,171,0)" fill-opacity="1" d=" M-5.418000221252441,9.392000198364258 C-6.2210001945495605,9.678000450134277 -7.109000205993652,9.598999977111816 -7.8480000495910645,9.175000190734863 C-7.8480000495910645,9.175000190734863 -21.516000747680664,1.3329999446868896 -21.516000747680664,1.3329999446868896 C-22.610000610351562,0.7059999704360962 -22.44499969482422,-0.9210000038146973 -21.246999740600586,-1.315999984741211 C-21.246999740600586,-1.315999984741211 4.0960001945495605,-9.678000450134277 4.0960001945495605,-9.678000450134277 C4.0960001945495605,-9.678000450134277 22.610000610351562,-3.010999917984009 22.610000610351562,-3.010999917984009 C22.610000610351562,-3.010999917984009 22.2549991607666,-0.46700000762939453 22.2549991607666,-0.46700000762939453 C22.2549991607666,-0.46700000762939453 -5.418000221252441,9.392000198364258 -5.418000221252441,9.392000198364258z"></path></g></g><g transform="matrix(1.3333278894424438,-0.002405833685770631,0.002405833685770631,1.3333278894424438,-1.145296573638916,-4.99298095703125)" opacity="1" style="display: block;"><g opacity="1" transform="matrix(1,0,0,1,243.52000427246094,414.9110107421875)"><path fill="rgb(238,171,0)" fill-opacity="1" d=" M-15.661999702453613,11.17300033569336 C-16.76099967956543,11.526000022888184 -17.815000534057617,10.52400016784668 -17.51799964904785,9.407999992370605 C-17.51799964904785,9.407999992370605 -14.970999717712402,-0.12600000202655792 -14.970999717712402,-0.12600000202655792 C-14.71500015258789,-1.0820000171661377 -13.993000030517578,-1.843000054359436 -13.050999641418457,-2.1470000743865967 C-13.050999641418457,-2.1470000743865967 15.935999870300293,-11.526000022888184 15.935999870300293,-11.526000022888184 C15.935999870300293,-11.526000022888184 17.815000534057617,-9.140000343322754 17.815000534057617,-9.140000343322754 C17.815000534057617,-9.140000343322754 10.914999961853027,2.618000030517578 10.914999961853027,2.618000030517578 C10.914999961853027,2.618000030517578 -15.661999702453613,11.17300033569336 -15.661999702453613,11.17300033569336z"></path></g></g><g transform="matrix(1.3333278894424438,-0.002405833685770631,0.002405833685770631,1.3333278894424438,-1.145294189453125,-4.99163818359375)" opacity="1" style="display: block;"><g opacity="1" transform="matrix(1,0,0,1,290.697998046875,448.53900146484375)"><path stroke-linecap="butt" stroke-linejoin="round" fill-opacity="0" stroke="rgb(254,199,0)" stroke-opacity="1" stroke-width="7.29" d=" M30.517000198364258,41.23400115966797 C30.517000198364258,41.23400115966797 41.50299835205078,-0.24799999594688416 41.50299835205078,-0.24799999594688416 C41.50299835205078,-0.24799999594688416 -29.95800018310547,-41.03900146484375 -29.95800018310547,-41.03900146484375 C-29.95800018310547,-41.03900146484375 -40.9379997253418,0.06800000369548798 -40.9379997253418,0.06800000369548798 C-40.9379997253418,0.06800000369548798 30.517000198364258,41.23400115966797 30.517000198364258,41.23400115966797z"></path></g></g><g transform="matrix(0.9809234738349915,0.19438138604164124,-0.19438138604164124,0.9809234738349915,961.3914184570312,681.5870361328125)" opacity="1" style="display: block;"><g opacity="1" transform="matrix(1,0,0,1,0,0)"><path fill="rgb(206,125,3)" fill-opacity="1" d=" M-610.75439453125,-94.08142852783203 C-610.6925659179688,-92.95822143554688 -486.8153381347656,-52.31224060058594 -487.2759094238281,-52.48866271972656 C-508.23663330078125,-60.19472122192383 -530.925537109375,-68.1667709350586 -550.0386352539062,-74.73485565185547 C-586.4813232421875,-87.44426727294922 -610.7938232421875,-94.80502319335938 -610.75439453125,-94.08142852783203z"></path><path stroke-linecap="butt" stroke-linejoin="miter" fill-opacity="0" stroke-miterlimit="4" stroke="rgb(8,49,86)" stroke-opacity="1" stroke-width="0" d=" M-610.75439453125,-94.08142852783203 C-610.6925659179688,-92.95822143554688 -486.8153381347656,-52.31224060058594 -487.2759094238281,-52.48866271972656 C-508.23663330078125,-60.19472122192383 -530.925537109375,-68.1667709350586 -550.0386352539062,-74.73485565185547 C-586.4813232421875,-87.44426727294922 -610.7938232421875,-94.80502319335938 -610.75439453125,-94.08142852783203z"></path></g></g><g transform="matrix(1.3333278894424438,-0.002405833685770631,0.002405833685770631,1.3333278894424438,-1.145294189453125,-4.99163818359375)" opacity="1" style="display: block;"><g opacity="1" transform="matrix(1,0,0,1,240.12399291992188,453.3940124511719)"><path fill="rgb(238,171,0)" fill-opacity="1" d=" M-20.19499969482422,-5.502999782562256 C-19.968000411987305,-6.349999904632568 -19.329999923706055,-7.025000095367432 -18.49799919128418,-7.298999786376953 C-18.49799919128418,-7.298999786376953 8.991000175476074,-16.41900062561035 8.991000175476074,-16.41900062561035 C8.991000175476074,-16.41900062561035 6.139999866485596,-5.747000217437744 6.139999866485596,-5.747000217437744 C5.711999893188477,-4.14300012588501 6.421999931335449,-2.4519999027252197 7.867000102996826,-1.6339999437332153 C7.867000102996826,-1.6339999437332153 23.111000061035156,6.992000102996826 23.111000061035156,6.992000102996826 C23.111000061035156,6.992000102996826 -4.622000217437744,16.191999435424805 -4.622000217437744,16.191999435424805 C-5.315999984741211,16.420000076293945 -6.074999809265137,16.344999313354492 -6.711999893188477,15.984999656677246 C-6.711999893188477,15.984999656677246 -20.95599937438965,7.925000190734863 -20.95599937438965,7.925000190734863 C-22.400999069213867,7.10699987411499 -23.111000061035156,5.415999889373779 -22.683000564575195,3.812000036239624 C-22.683000564575195,3.812000036239624 -20.19499969482422,-5.502999782562256 -20.19499969482422,-5.502999782562256z"></path></g></g><g transform="matrix(1.3333278894424438,-0.002405833685770631,0.002405833685770631,1.3333278894424438,-1.146636962890625,-4.991635799407959)" opacity="1" style="display: block;"><g opacity="1" transform="matrix(1,0,0,1,286.81298828125,385.8680114746094)"><path fill="rgb(180,108,0)" fill-opacity="1" d=" M7.862722873687744,-27.99667739868164 C-8.241071701049805,-32.73074722290039 -25.17274284362793,-23.924360275268555 -29.703893661499023,-7.587191104888916 C-34.336055755615234,9.013580322265625 -23.686914443969727,23.712749481201172 -7.025914192199707,28.162750244140625 C9.634085655212402,32.61375045776367 24.87774658203125,25.72467613220215 29.328744888305664,9.064675331115723 C33.77874755859375,-7.596324443817139 23.978384017944336,-23.255115509033203 7.862722873687744,-27.99667739868164z"></path></g></g><g transform="matrix(1.3333278894424438,-0.002405833685770631,0.002405833685770631,1.3333278894424438,-1.146636962890625,-4.991635799407959)" opacity="1" style="display: block;"><g opacity="1" transform="matrix(1,0,0,1,286.81298828125,385.8680114746094)"><path stroke-linecap="butt" stroke-linejoin="miter" fill-opacity="0" stroke-miterlimit="4" stroke="rgb(252,201,14)" stroke-opacity="1" stroke-width="5.832" d=" M-27.175146102905273,-6.452199935913086 C-31.077777862548828,8.868775367736816 -22.406633377075195,23.472204208374023 -7.302633762359619,27.507204055786133 C7.802366256713867,31.54120445251465 23.915071487426758,21.94921112060547 26.719179153442383,7.089388370513916 C29.57286834716797,-7.705295562744141 20.127708435058594,-22.498680114746094 5.626145362854004,-25.981735229492188 C-8.996414184570312,-29.437042236328125 -23.470840454101562,-20.429018020629883 -27.175146102905273,-6.452199935913086z"></path></g></g><g transform="matrix(1.3333278894424438,-0.002405833685770631,0.002405833685770631,1.3333278894424438,-1.146636962890625,-4.991635799407959)" opacity="1" style="display: block;"><g opacity="1" transform="matrix(1,0,0,1,315.96600341796875,401.11700439453125)"><path fill="rgb(142,85,1)" fill-opacity="1" d=" M21.659000396728516,40.65399932861328 C21.659000396728516,40.65399932861328 -55.77299880981445,-4.09499979019165 -55.77299880981445,-4.09499979019165 C-55.77299880981445,-4.09499979019165 -21.62797737121582,-38.5903205871582 -21.62797737121582,-38.5903205871582 C-21.62797737121582,-38.5903205871582 55.80402374267578,6.158679008483887 55.80402374267578,6.158679008483887 C55.80402374267578,6.158679008483887 21.659000396728516,40.65399932861328 21.659000396728516,40.65399932861328z"></path></g></g><g transform="matrix(1.3333278894424438,-0.002405833685770631,0.002405833685770631,1.3333278894424438,-1.146636962890625,-4.991635799407959)" opacity="1" style="display: block;"><g opacity="1" transform="matrix(1,0,0,1,350.41900634765625,419.6820068359375)"><path fill="rgb(114,68,0)" fill-opacity="1" d=" M-16.864213943481445,23.218673706054688 C-20.697799682617188,16.71183967590332 -21.022329330444336,8.157438278198242 -18.29047966003418,0.8889733552932739 C-13.318070411682129,-13.00589656829834 1.1310529708862305,-20.425111770629883 15.357769012451172,-16.397483825683594 C17.73670768737793,-15.680619239807129 19.69573402404785,-14.703919410705566 21.767732620239258,-13.5269193649292 C21.767732620239258,-13.5269193649292 -16.864213943481445,23.218673706054688 -16.864213943481445,23.218673706054688z"></path></g></g><g transform="matrix(1.3333278894424438,-0.002405833685770631,0.002405833685770631,1.3333278894424438,-1.146636962890625,-4.991635799407959)" opacity="1" style="display: block;"><g opacity="1" transform="matrix(1,0,0,1,315.843994140625,401.0889892578125)"><path stroke-linecap="butt" stroke-linejoin="round" fill-opacity="0" stroke="rgb(252,201,14)" stroke-opacity="1" stroke-width="7.29" d=" M23.541000366210938,38.167999267578125 C21.436431884765625,40.36138153076172 17.27153205871582,40.9378776550293 14.63700008392334,39.43000030517578 C14.63700008392334,39.43000030517578 -49.79499816894531,2.194000005722046 -49.79499816894531,2.194000005722046 C-53.891998291015625,-0.17399999499320984 -54.585018157958984,-5.561767578125 -51.3060188293457,-8.973767280578613 C-51.3060188293457,-8.973767280578613 -23.552371978759766,-36.39162063598633 -23.552371978759766,-36.39162063598633 C-21.171512603759766,-38.73320007324219 -17.493328094482422,-39.03986358642578 -14.58832836151123,-37.360862731933594 C-14.58832836151123,-37.360862731933594 49.86532211303711,0.021333029493689537 49.86532211303711,0.021333029493689537 C53.96232223510742,2.3883330821990967 54.62059020996094,7.928210735321045 51.34049987792969,11.110772132873535 C51.34049987792969,11.110772132873535 23.541000366210938,38.167999267578125 23.541000366210938,38.167999267578125z"></path></g></g><g mask="url(#__lottie_element_26031_1)" style="display: block;"><g transform="matrix(0.9970011115074158,0.0773560181260109,-0.0773560181260109,0.9970011115074158,964.8821411132812,590.0154418945312)" opacity="1"><g opacity="1" transform="matrix(1,0,0,1,0,0)"><path fill="rgb(255,231,0)" fill-opacity="1" d=" M-530.1068725585938,-56.35565948486328 C-530.1068725585938,-56.35565948486328 -504.7745361328125,0.27140820026397705 -504.7745361328125,0.27140820026397705 C-504.7745361328125,0.27140820026397705 -477.8088073730469,46.73369598388672 -477.8088073730469,46.73369598388672 C-477.8088073730469,46.73369598388672 -423.9360046386719,-10.979999542236328 -423.9360046386719,-10.979999542236328 C-423.9360046386719,-10.979999542236328 -530.1068725585938,-56.35565948486328 -530.1068725585938,-56.35565948486328z"></path></g></g></g><g transform="matrix(1.3333278894424438,-0.002405833685770631,0.002405833685770631,1.3333278894424438,-12.7633056640625,7.174619674682617)" opacity="1" style="display: block;"><g opacity="1" transform="matrix(1,0,0,1,348.114990234375,430.14801025390625)"><path fill="rgb(254,244,0)" fill-opacity="1" d=" M-0.1181812584400177,-4.451022148132324 C-0.1181812584400177,-4.451022148132324 3.077277898788452,1.9392865896224976 3.077277898788452,1.9392865896224976 C3.077277898788452,1.9392865896224976 1.1959524154663086,3.654381513595581 -0.48853471875190735,4.799543857574463 C-0.578181266784668,4.6498918533325195 -3.544296979904175,-1.5381896495819092 -3.544296979904175,-1.5381896495819092 C-3.544296979904175,-1.5381896495819092 -0.1181812584400177,-4.451022148132324 -0.1181812584400177,-4.451022148132324z"></path></g></g><g transform="matrix(1.3333278894424438,-0.002405833685770631,0.002405833685770631,1.3333278894424438,-1.1465963125228882,-4.991635799407959)" opacity="1" style="display: block;"><g opacity="1" transform="matrix(1,0,0,1,321.5889892578125,373.43798828125)"><path fill="rgb(254,244,0)" fill-opacity="1" d=" M6.249495506286621,9.967604637145996 C6.249495506286621,9.967604637145996 2.418811798095703,-0.5015018582344055 2.418811798095703,-0.5015018582344055 C2.418811798095703,-0.5015018582344055 -5.101543426513672,-4.943010330200195 -5.101543426513672,-4.943010330200195 C-5.101543426513672,-4.943010330200195 -1.1731622219085693,5.68949556350708 -1.1731622219085693,5.68949556350708 C-1.1731622219085693,5.68949556350708 6.249495506286621,9.967604637145996 6.249495506286621,9.967604637145996z"></path></g></g><g transform="matrix(1.3333227634429932,0.0044106896966695786,-0.0044106896966695786,1.3333227634429932,2.089569091796875,-7.03558349609375)" opacity="1" style="display: block;"><g opacity="1" transform="matrix(1,0,0,1,328.34100341796875,472.88299560546875)"><path fill="rgb(28,176,246)" fill-opacity="1" d=" M2.2049999237060547,-17.479999542236328 C0.34700000286102295,-18.208999633789062 -1.7569999694824219,-17.906999588012695 -3.3359999656677246,-16.684999465942383 C-3.3359999656677246,-16.684999465942383 -15.336999893188477,-7.395999908447266 -15.336999893188477,-7.395999908447266 C-16.891000747680664,-6.193999767303467 -17.711000442504883,-4.271999835968018 -17.506000518798828,-2.319000005722046 C-17.506000518798828,-2.319000005722046 -16.33099937438965,8.862000465393066 -16.33099937438965,8.862000465393066 C-16.10700035095215,11 -14.692000389099121,12.82800006866455 -12.678999900817871,13.581999778747559 C-12.678999900817871,13.581999778747559 -2.1480000019073486,17.520999908447266 -2.1480000019073486,17.520999908447266 C-0.30799999833106995,18.209999084472656 1.7569999694824219,17.895999908447266 3.309999942779541,16.694000244140625 C3.309999942779541,16.694000244140625 15.310999870300293,7.4039998054504395 15.310999870300293,7.4039998054504395 C16.889999389648438,6.183000087738037 17.709999084472656,4.21999979019165 17.469999313354492,2.23799991607666 C17.469999313354492,2.23799991607666 16.131999969482422,-8.817999839782715 16.131999969482422,-8.817999839782715 C15.880999565124512,-10.887999534606934 14.513999938964844,-12.652000427246094 12.572999954223633,-13.413999557495117 C12.572999954223633,-13.413999557495117 2.2049999237060547,-17.479999542236328 2.2049999237060547,-17.479999542236328z"></path></g></g><g transform="matrix(1.3333227634429932,0.0044106896966695786,-0.0044106896966695786,1.3333227634429932,2.089569091796875,-7.03558349609375)" opacity="1" style="display: block;"><g opacity="1" transform="matrix(1,0,0,1,333.5509948730469,463.2040100097656)"><path fill="rgb(221,244,255)" fill-opacity="1" d=" M4.836999893188477,-1.3960000276565552 C4.836999893188477,-1.3960000276565552 -3.9140000343322754,-4.561999797821045 -3.9140000343322754,-4.561999797821045 C-4.946000099182129,-4.935999870300293 -6.043000221252441,-4.197000026702881 -6.084000110626221,-3.0999999046325684 C-6.084000110626221,-3.0999999046325684 -6.260000228881836,1.5950000286102295 -6.260000228881836,1.5950000286102295 C-6.2870001792907715,2.321000099182129 -5.828000068664551,2.9769999980926514 -5.135000228881836,3.197999954223633 C-5.135000228881836,3.197999954223633 -0.2160000056028366,4.7729997634887695 -0.2160000056028366,4.7729997634887695 C0.2919999957084656,4.935999870300293 0.8479999899864197,4.839000225067139 1.2699999809265137,4.51200008392334 C1.2699999809265137,4.51200008392334 5.2779998779296875,1.409000039100647 5.2779998779296875,1.409000039100647 C6.2870001792907715,0.6269999742507935 6.038000106811523,-0.9610000252723694 4.836999893188477,-1.3960000276565552z"></path></g></g><g transform="matrix(1.3327466249465942,-0.03943876922130585,0.03943876922130585,1.3327466249465942,-20.07672119140625,5.97100830078125)" opacity="1" style="display: block;"><g opacity="1" transform="matrix(1,0,0,1,364.93701171875,514.4970092773438)"><path fill="rgb(28,176,246)" fill-opacity="1" d=" M-7.763000011444092,-22.413000106811523 C-9.756999969482422,-22.323999404907227 -11.557000160217285,-21.19300079345703 -12.503000259399414,-19.434999465942383 C-12.503000259399414,-19.434999465942383 -22.98200035095215,0.04699999839067459 -22.98200035095215,0.04699999839067459 C-23.913000106811523,1.7769999504089355 -23.881999969482422,3.864000082015991 -22.899999618530273,5.565000057220459 C-22.899999618530273,5.565000057220459 -14.39900016784668,20.304000854492188 -14.39900016784668,20.304000854492188 C-13.324999809265137,22.166000366210938 -11.291000366210938,23.260000228881836 -9.145000457763672,23.1299991607666 C-9.145000457763672,23.1299991607666 7.8379998207092285,22.10099983215332 7.8379998207092285,22.10099983215332 C9.798999786376953,21.98200035095215 11.557999610900879,20.85700035095215 12.48799991607666,19.128000259399414 C12.48799991607666,19.128000259399414 22.968000411987305,-0.3540000021457672 22.968000411987305,-0.3540000021457672 C23.913000106811523,-2.1110000610351562 23.864999771118164,-4.23799991607666 22.84000015258789,-5.951000213623047 C22.84000015258789,-5.951000213623047 14.190999984741211,-20.413999557495117 14.190999984741211,-20.413999557495117 C13.121000289916992,-22.202999114990234 11.154999732971191,-23.26099967956543 9.071000099182129,-23.167999267578125 C9.071000099182129,-23.167999267578125 -7.763000011444092,-22.413000106811523 -7.763000011444092,-22.413000106811523z"></path></g></g><g transform="matrix(1.3327466249465942,-0.03943876922130585,0.03943876922130585,1.3327466249465942,-20.07672119140625,5.97100830078125)" opacity="1" style="display: block;"><g opacity="1" transform="matrix(1,0,0,1,365.2799987792969,501)"><path fill="rgb(221,244,255)" fill-opacity="1" d=" M6.791999816894531,-5.504000186920166 C6.791999816894531,-5.504000186920166 -7.142000198364258,-4.510000228881836 -7.142000198364258,-4.510000228881836 C-8.237000465393066,-4.432000160217285 -8.939000129699707,-3.309000015258789 -8.529999732971191,-2.2899999618530273 C-8.529999732971191,-2.2899999618530273 -5.806000232696533,4.506999969482422 -5.806000232696533,4.506999969482422 C-5.534999847412109,5.182000160217285 -4.848999977111816,5.59499979019165 -4.125999927520752,5.515999794006348 C-4.125999927520752,5.515999794006348 3.3289999961853027,4.701000213623047 3.3289999961853027,4.701000213623047 C3.8589999675750732,4.64300012588501 4.327000141143799,4.328000068664551 4.578999996185303,3.8580000400543213 C4.578999996185303,3.8580000400543213 8.333000183105469,-3.121000051498413 8.333000183105469,-3.121000051498413 C8.937999725341797,-4.244999885559082 8.065999984741211,-5.59499979019165 6.791999816894531,-5.504000186920166z"></path></g></g><g transform="matrix(1.3328349590301514,0.036330439150333405,-0.036330439150333405,1.3328349590301514,20.237457275390625,-20.74658203125)" opacity="1" style="display: block;"><g opacity="1" transform="matrix(1,0,0,1,288.5830078125,553.0960083007812)"><path fill="rgb(28,176,246)" fill-opacity="1" d=" M-30.18899917602539,-6.455999851226807 C-31.187999725341797,-4.729000091552734 -31.20599937438965,-2.6029999256134033 -30.233999252319336,-0.859000027179718 C-30.233999252319336,-0.859000027179718 -15.36299991607666,25.8439998626709 -15.36299991607666,25.8439998626709 C-14.406999588012695,27.559999465942383 -12.631999969482422,28.65999984741211 -10.670000076293945,28.75 C-10.670000076293945,28.75 13.336000442504883,29.851999282836914 13.336000442504883,29.851999282836914 C15.482999801635742,29.951000213623047 17.50200080871582,28.827999114990234 18.548999786376953,26.950000762939453 C18.548999786376953,26.950000762939453 30.25,5.960999965667725 30.25,5.960999965667725 C31.20599937438965,4.244999885559082 31.207000732421875,2.1559998989105225 30.250999450683594,0.4399999976158142 C30.250999450683594,0.4399999976158142 15.378999710083008,-26.26300048828125 15.378999710083008,-26.26300048828125 C14.407999992370605,-28.006000518798828 12.592000007629395,-29.110000610351562 10.595999717712402,-29.170000076293945 C10.595999717712402,-29.170000076293945 -13.194000244140625,-29.88800048828125 -13.194000244140625,-29.88800048828125 C-15.277999877929688,-29.951000213623047 -17.229000091552734,-28.864999771118164 -18.273000717163086,-27.059999465942383 C-18.273000717163086,-27.059999465942383 -30.18899917602539,-6.455999851226807 -30.18899917602539,-6.455999851226807z"></path></g></g><g transform="matrix(1.3328349590301514,0.036330439150333405,-0.036330439150333405,1.3328349590301514,20.237457275390625,-20.74658203125)" opacity="1" style="display: block;"><g opacity="1" transform="matrix(1,0,0,1,272.7969970703125,541.458984375)"><path fill="rgb(221,244,255)" fill-opacity="1" d=" M0.6230000257492065,-10.295000076293945 C0.6230000257492065,-10.295000076293945 -8.755000114440918,6.958000183105469 -8.755000114440918,6.958000183105469 C-9.279999732971191,7.921999931335449 -8.713000297546387,9.118000030517578 -7.635000228881836,9.322999954223633 C-7.635000228881836,9.322999954223633 2.694999933242798,11.288999557495117 2.694999933242798,11.288999557495117 C3.4089999198913574,11.425000190734863 4.126999855041504,11.067999839782715 4.448999881744385,10.416999816894531 C4.448999881744385,10.416999816894531 9.043000221252441,1.1549999713897705 9.043000221252441,1.1549999713897705 C9.279999732971191,0.6769999861717224 9.265999794006348,0.11299999803304672 9.006999969482422,-0.3529999852180481 C9.006999969482422,-0.3529999852180481 3.4619998931884766,-10.3100004196167 3.4619998931884766,-10.3100004196167 C2.8399999141693115,-11.425000190734863 1.2330000400543213,-11.416999816894531 0.6230000257492065,-10.295000076293945z"></path></g></g><g transform="matrix(1.3305892944335938,-0.08544587343931198,0.08544587343931198,1.3305892944335938,-26.2706298828125,77.60635375976562)" opacity="1" style="display: block;"><g opacity="1" transform="matrix(1,0,0,1,1097.469970703125,324.95098876953125)"><path fill="rgb(28,176,246)" fill-opacity="1" d=" M9.510000228881836,11.571999549865723 C0.8500000238418579,18.843000411987305 -8.800000190734863,21.981000900268555 -13.489999771118164,19.38599967956543 C-16.940000534057617,17.499000549316406 -20.639999389648438,13.51099967956543 -21.59000015258789,9.685999870300293 C-23.25,4.6020002365112305 -18.489999771118164,-4.294000148773193 -9.869999885559082,-11.526000022888184 C-1.1399999856948853,-18.85099983215332 8.579999923706055,-21.981000900268555 13.239999771118164,-19.284000396728516 C16.610000610351562,-17.694000244140625 19.670000076293945,-13.75100040435791 21.010000228881836,-10.204999923706055 C23.25,-5.236999988555908 18.459999084472656,4.064000129699707 9.510000228881836,11.571999549865723z"></path></g></g><g transform="matrix(1.3305892944335938,-0.08544587343931198,0.08544587343931198,1.3305892944335938,-26.2706298828125,77.60635375976562)" opacity="1" style="display: block;"><g opacity="1" transform="matrix(1,0,0,1,1102.405029296875,332.7909851074219)"><path fill="rgb(28,176,246)" fill-opacity="1" d=" M9.515000343322754,11.661999702453613 C-1.2050000429153442,20.66200065612793 -12.585000038146973,25.21500015258789 -17.645000457763672,22.88800048828125 C-21.375,21.200000762939453 -25.145000457763672,17.224000930786133 -25.795000076293945,13.114999771118164 C-27.114999771118164,7.698999881744385 -20.665000915527344,-2.6470000743865967 -9.994999885559082,-11.597999572753906 C0.8050000071525574,-20.66200065612793 12.265000343322754,-25.215999603271484 17.274999618530273,-22.77199935913086 C20.94499969482422,-21.402000427246094 23.9950008392334,-17.402999877929688 25.125,-13.647000312805176 C27.114999771118164,-8.425000190734863 20.594999313354492,2.371000051498413 9.515000343322754,11.661999702453613z"></path></g></g><g transform="matrix(1.3305892944335938,-0.08544587343931198,0.08544587343931198,1.3305892944335938,-26.2706298828125,77.60635375976562)" opacity="1" style="display: block;"><g opacity="1" transform="matrix(1,0,0,1,1110.1600341796875,343.1000061035156)"><path stroke-linecap="round" stroke-linejoin="miter" fill-opacity="0" stroke-miterlimit="4" stroke="rgb(201,199,199)" stroke-opacity="1" stroke-width="6.816" d=" M6.070000171661377,7.809000015258789 C6.070000171661377,7.809000015258789 -6.070000171661377,-7.809000015258789 -6.070000171661377,-7.809000015258789"></path></g></g><g transform="matrix(1.3305892944335938,-0.08544587343931198,0.08544587343931198,1.3305892944335938,-26.2706298828125,77.60635375976562)" opacity="1" style="display: block;"><g opacity="1" transform="matrix(1,0,0,1,1121.0150146484375,359.45098876953125)"><path fill="rgb(28,176,246)" fill-opacity="1" d=" M9.515000343322754,11.663999557495117 C-1.215000033378601,20.663000106811523 -12.585000038146973,25.215999603271484 -17.645000457763672,22.888999938964844 C-21.385000228881836,21.201000213623047 -25.145000457763672,17.225000381469727 -25.795000076293945,13.116000175476074 C-27.114999771118164,7.701000213623047 -20.674999237060547,-2.6459999084472656 -10.005000114440918,-11.595999717712402 C0.7950000166893005,-20.660999298095703 12.265000343322754,-25.21500015258789 17.264999389648438,-22.770000457763672 C20.934999465942383,-21.400999069213867 23.985000610351562,-17.402000427246094 25.125,-13.645999908447266 C27.114999771118164,-8.423999786376953 20.584999084472656,2.371999979019165 9.515000343322754,11.663999557495117z"></path></g></g><g transform="matrix(1.3305892944335938,-0.08544587343931198,0.08544587343931198,1.3305892944335938,-26.2706298828125,77.60635375976562)" opacity="1" style="display: block;"><g opacity="1" transform="matrix(1,0,0,1,1127.050048828125,367.72198486328125)"><path fill="rgb(28,176,246)" fill-opacity="1" d=" M9.510000228881836,11.571000099182129 C0.8399999737739563,18.843000411987305 -8.800000190734863,21.981000900268555 -13.489999771118164,19.38599967956543 C-16.950000762939453,17.499000549316406 -20.639999389648438,13.51099967956543 -21.59000015258789,9.685999870300293 C-23.25,4.6020002365112305 -18.489999771118164,-4.294000148773193 -9.869999885559082,-11.526000022888184 C-1.1399999856948853,-18.85099983215332 8.579999923706055,-21.981000900268555 13.229999542236328,-19.284000396728516 C16.600000381469727,-17.694000244140625 19.670000076293945,-13.75100040435791 21.010000228881836,-10.204999923706055 C23.25,-5.23799991607666 18.459999084472656,4.064000129699707 9.510000228881836,11.571000099182129z"></path></g></g><g transform="matrix(1.3305892944335938,-0.08544587343931198,0.08544587343931198,1.3305892944335938,-26.2706298828125,77.60635375976562)" opacity="1" style="display: block;"><g opacity="1" transform="matrix(1,0,0,1,1101.6099853515625,358.3160095214844)"><path stroke-linecap="round" stroke-linejoin="miter" fill-opacity="0" stroke-miterlimit="4" stroke="rgb(96,200,249)" stroke-opacity="1" stroke-width="6.816" d=" M19.1299991607666,13.496999740600586 C16.510000228881836,15.581000328063965 14.25,19.483999252319336 13.789999961853027,21.200000762939453 M4.75,5.077000141143799 C2.140000104904175,7.160999774932861 -0.12999999523162842,11.062999725341797 -0.5899999737739563,12.779999732971191 M-13.789999961853027,-21.200000762939453 C-16.399999618530273,-19.117000579833984 -18.670000076293945,-15.21399974822998 -19.1299991607666,-13.496999740600586"></path></g></g><g transform="matrix(1.5828850269317627,0,0,1.5828850269317627,-275.32080078125,-154.0994873046875)" opacity="0.9583631278964105" style="display: block;"><g opacity="1" transform="matrix(1,0,0,1,1118.2349853515625,595.9940185546875)"><path fill="rgb(80,164,99)" fill-opacity="1" d=" M-50.045318603515625,14.22391414642334 C-44.498172760009766,15.10473346710205 -27.289443969726562,15.69495964050293 -21.759445190429688,15.776959419250488 C23.800556182861328,16.448959350585938 49.26499938964844,9.147000312805176 49.404998779296875,-0.5 C49.505001068115234,-7.083000183105469 32.39500045776367,-13.069999694824219 7.034999847412109,-16.422000885009766 C0.9449999928474426,-10.96399974822998 -6.224999904632568,-5.458000183105469 -14.975000381469727,0.1379999965429306 C-27.295000076293945,8.026000022888184 -39.08897018432617,11.712443351745605 -50.045318603515625,14.22391414642334z"></path></g></g><g transform="matrix(1.320971965789795,-0.18111304938793182,0.18111304938793182,1.320971965789795,-98.7713623046875,81.3165283203125)" opacity="1" style="display: block;"><g opacity="1" transform="matrix(1,0,0,1,459.75299072265625,576.7369995117188)"><path fill="rgb(191,255,121)" fill-opacity="1" d=" M-12.321999549865723,-2.9200000762939453 C-12.321999549865723,-2.9200000762939453 -1.5989999771118164,-12.562000274658203 -1.5989999771118164,-12.562000274658203 C-0.2849999964237213,-13.744000434875488 1.7380000352859497,-13.63599967956543 2.9200000762939453,-12.321999549865723 C2.9200000762939453,-12.321999549865723 12.562000274658203,-1.5989999771118164 12.562000274658203,-1.5989999771118164 C13.744000434875488,-0.2849999964237213 13.63700008392334,1.7380000352859497 12.321999549865723,2.9200000762939453 C12.321999549865723,2.9200000762939453 1.600000023841858,12.562000274658203 1.600000023841858,12.562000274658203 C0.2849999964237213,13.744000434875488 -1.7380000352859497,13.63599967956543 -2.9200000762939453,12.321999549865723 C-2.9200000762939453,12.321999549865723 -12.562000274658203,1.5989999771118164 -12.562000274658203,1.5989999771118164 C-13.744000434875488,0.2849999964237213 -13.63599967956543,-1.7380000352859497 -12.321999549865723,-2.9200000762939453z"></path></g></g><g transform="matrix(1.3185620307922363,0.19789709150791168,-0.19789709150791168,1.3185620307922363,104.7564697265625,-222.890869140625)" opacity="1" style="display: block;"><g opacity="1" transform="matrix(1,0,0,1,1113.7139892578125,446.2139892578125)"><path fill="rgb(191,255,121)" fill-opacity="1" d=" M-14.979999542236328,-8.1899995803833 C-14.979999542236328,-8.1899995803833 3.9660000801086426,-16.606000900268555 3.9660000801086426,-16.606000900268555 C5.580999851226807,-17.322999954223633 7.4720001220703125,-16.594999313354492 8.1899995803833,-14.979999542236328 C8.1899995803833,-14.979999542236328 16.604999542236328,3.9660000801086426 16.604999542236328,3.9660000801086426 C17.322999954223633,5.580999851226807 16.594999313354492,7.4720001220703125 14.979999542236328,8.189000129699707 C14.979999542236328,8.189000129699707 -3.9660000801086426,16.604999542236328 -3.9660000801086426,16.604999542236328 C-5.580999851226807,17.32200050354004 -7.4720001220703125,16.594999313354492 -8.1899995803833,14.979000091552734 C-8.1899995803833,14.979000091552734 -16.604999542236328,-3.9660000801086426 -16.604999542236328,-3.9660000801086426 C-17.322999954223633,-5.581999778747559 -16.594999313354492,-7.4730000495910645 -14.979999542236328,-8.1899995803833z"></path></g></g></g></svg>